<?xml version="1.0" encoding="us-ascii" standalone="no"?><svg xmlns="http://www.w3.org/2000/svg" xmlns:xlink="http://www.w3.org/1999/xlink" contentStyleType="text/css" height="736px" preserveAspectRatio="none" style="width:515px;height:736px;background:#FFFFFF;" version="1.1" viewBox="0 0 515 736" width="515px" zoomAndPan="magnify"><defs/><g><text fill="#000000" font-family="Arial" font-size="14" font-weight="bold" lengthAdjust="spacing" textLength="370" x="65.5" y="23.1318">Diagramme de D&#233;finition de Blocs - N&#339;ud de mesure</text><text fill="#000000" font-family="Arial" font-size="14" font-style="italic" font-weight="bold" lengthAdjust="spacing" textLength="376" x="62.5" y="39.2305">D&#233;composition fonctionnelle interne - Syst&#232;me EauS&#251;re</text><!--cluster Fonctions internes--><g id="cluster_Fonctions internes"><path d="M10,122.1973 L112,122.1973 A6,6 0 0 1 116,126.1973 L123,140.8462 L254,140.8462 A4,4 0 0 1 258,144.8462 L258,725.1973 A4,4 0 0 1 254,729.1973 L10,729.1973 A4,4 0 0 1 6,725.1973 L6,126.1973 A4,4 0 0 1 10,122.1973 " fill="#FFF8E1" style="stroke:#4A4A6A;stroke-width:1.5;"/><line style="stroke:#4A4A6A;stroke-width:1.5;" x1="6" x2="123" y1="140.8462" y2="140.8462"/><text fill="#000000" font-family="Arial" font-size="11" font-weight="bold" lengthAdjust="spacing" textLength="104" x="10" y="134.5151">Fonctions internes</text></g><!--class Acquisition des mesures--><g id="elem_Acquisition des mesures"><rect codeLine="28" fill="#EAF4FB" height="63.9961" id="Acquisition des mesures" rx="4" ry="4" style="stroke:#2C7BB6;stroke-width:1.5;" width="220" x="22" y="153.1973"/><rect fill="#D6EAF8" height="32.998" rx="4" ry="4" style="stroke:#D6EAF8;stroke-width:1.5;" width="220" x="22" y="153.1973"/><rect fill="#D6EAF8" height="4" style="stroke:#D6EAF8;stroke-width:1.5;" width="220" x="22" y="182.1953"/><rect codeLine="28" fill="none" height="63.9961" id="Acquisition des mesures" rx="4" ry="4" style="stroke:#2C7BB6;stroke-width:1.5;" width="220" x="22" y="153.1973"/><ellipse cx="71.75" cy="169.6963" fill="#ADD1B2" rx="9" ry="9" style="stroke:#181818;stroke-width:1.0;"/><path d="M73.2813,166.9619 Q73.375,166.8213 73.5,166.7588 Q73.625,166.6807 73.7656,166.6807 Q74,166.6807 74.1563,166.8525 Q74.3125,167.0244 74.3125,167.415 L74.3125,168.3525 Q74.3125,168.7432 74.1563,168.915 Q74,169.0869 73.7656,169.0869 Q73.5469,169.0869 73.4063,168.9619 Q73.2656,168.8369 73.2031,168.5088 Q73.1719,168.2744 73.0625,168.1494 Q72.8438,167.915 72.4375,167.7744 Q72.0469,167.6182 71.6563,167.6182 Q71.1563,167.6182 70.7344,167.8369 Q70.3281,168.0557 70,168.54 Q69.6875,169.0244 69.6875,169.6807 L69.6875,170.3994 Q69.6875,171.1963 70.2656,171.7275 Q70.8438,172.2588 71.875,172.2588 Q72.4844,172.2588 72.9063,172.0869 Q73.1563,171.9932 73.4375,171.7119 Q73.6094,171.54 73.7031,171.4932 Q73.7969,171.4307 73.9219,171.4307 Q74.1406,171.4307 74.3125,171.6025 Q74.4844,171.7744 74.4844,171.9932 Q74.4844,172.2119 74.25,172.4775 Q73.9219,172.8525 73.4063,173.0713 Q72.7188,173.3525 71.875,173.3525 Q70.9063,173.3525 70.125,172.9619 Q69.4844,172.6338 69.0313,171.9463 Q68.5938,171.2432 68.5938,170.415 L68.5938,169.665 Q68.5938,168.8057 68.9844,168.0713 Q69.3906,167.3213 70.0938,166.9307 Q70.8125,166.5244 71.6094,166.5244 Q72.0781,166.5244 72.5,166.6338 Q72.9219,166.7432 73.2813,166.9619 Z " fill="#000000"/><text fill="#000000" font-family="Arial" font-size="10" font-style="italic" lengthAdjust="spacing" textLength="37" x="127.25" y="167.5771">&#171;block&#187;</text><text fill="#000000" font-family="Arial" font-size="10" lengthAdjust="spacing" textLength="113" x="89.25" y="179.0762">Acquisition des mesures</text><line style="stroke:#2C7BB6;stroke-width:1.5;" x1="23" x2="241" y1="186.1953" y2="186.1953"/><ellipse cx="33" cy="197.4448" fill="none" rx="3" ry="3" style="stroke:#038048;stroke-width:1.0;"/><text fill="#000000" font-family="Arial" font-size="10" lengthAdjust="spacing" textLength="162" x="40" y="199.5752">collecter les param&#232;tres physiques</text><ellipse cx="33" cy="208.9438" fill="none" rx="3" ry="3" style="stroke:#038048;stroke-width:1.0;"/><text fill="#000000" font-family="Arial" font-size="10" lengthAdjust="spacing" textLength="130" x="40" y="211.0742">valider et filtrer les donn&#233;es</text></g><!--class D?tection d'?v?nements--><g id="elem_D&#233;tection d'&#233;v&#233;nements"><rect codeLine="33" fill="#EAF4FB" height="63.9961" id="D&#233;tection d'&#233;v&#233;nements" rx="4" ry="4" style="stroke:#2C7BB6;stroke-width:1.5;" width="220" x="22" y="277.1973"/><rect fill="#D6EAF8" height="32.998" rx="4" ry="4" style="stroke:#D6EAF8;stroke-width:1.5;" width="220" x="22" y="277.1973"/><rect fill="#D6EAF8" height="4" style="stroke:#D6EAF8;stroke-width:1.5;" width="220" x="22" y="306.1953"/><rect codeLine="33" fill="none" height="63.9961" id="D&#233;tection d'&#233;v&#233;nements" rx="4" ry="4" style="stroke:#2C7BB6;stroke-width:1.5;" width="220" x="22" y="277.1973"/><ellipse cx="71.25" cy="293.6963" fill="#ADD1B2" rx="9" ry="9" style="stroke:#181818;stroke-width:1.0;"/><path d="M72.7813,290.9619 Q72.875,290.8213 73,290.7588 Q73.125,290.6807 73.2656,290.6807 Q73.5,290.6807 73.6563,290.8525 Q73.8125,291.0244 73.8125,291.415 L73.8125,292.3525 Q73.8125,292.7432 73.6563,292.915 Q73.5,293.0869 73.2656,293.0869 Q73.0469,293.0869 72.9063,292.9619 Q72.7656,292.8369 72.7031,292.5088 Q72.6719,292.2744 72.5625,292.1494 Q72.3438,291.915 71.9375,291.7744 Q71.5469,291.6182 71.1563,291.6182 Q70.6563,291.6182 70.2344,291.8369 Q69.8281,292.0557 69.5,292.54 Q69.1875,293.0244 69.1875,293.6807 L69.1875,294.3994 Q69.1875,295.1963 69.7656,295.7275 Q70.3438,296.2588 71.375,296.2588 Q71.9844,296.2588 72.4063,296.0869 Q72.6563,295.9932 72.9375,295.7119 Q73.1094,295.54 73.2031,295.4932 Q73.2969,295.4307 73.4219,295.4307 Q73.6406,295.4307 73.8125,295.6025 Q73.9844,295.7744 73.9844,295.9932 Q73.9844,296.2119 73.75,296.4775 Q73.4219,296.8525 72.9063,297.0713 Q72.2188,297.3525 71.375,297.3525 Q70.4063,297.3525 69.625,296.9619 Q68.9844,296.6338 68.5313,295.9463 Q68.0938,295.2432 68.0938,294.415 L68.0938,293.665 Q68.0938,292.8057 68.4844,292.0713 Q68.8906,291.3213 69.5938,290.9307 Q70.3125,290.5244 71.1094,290.5244 Q71.5781,290.5244 72,290.6338 Q72.4219,290.7432 72.7813,290.9619 Z " fill="#000000"/><text fill="#000000" font-family="Arial" font-size="10" font-style="italic" lengthAdjust="spacing" textLength="37" x="127.25" y="291.5771">&#171;block&#187;</text><text fill="#000000" font-family="Arial" font-size="10" lengthAdjust="spacing" textLength="114" x="88.75" y="303.0762">D&#233;tection d'&#233;v&#233;nements</text><line style="stroke:#2C7BB6;stroke-width:1.5;" x1="23" x2="241" y1="310.1953" y2="310.1953"/><ellipse cx="33" cy="321.4448" fill="none" rx="3" ry="3" style="stroke:#038048;stroke-width:1.0;"/><text fill="#000000" font-family="Arial" font-size="10" lengthAdjust="spacing" textLength="162" x="40" y="323.5752">surveiller les conditions anormales</text><ellipse cx="33" cy="332.9438" fill="none" rx="3" ry="3" style="stroke:#038048;stroke-width:1.0;"/><text fill="#000000" font-family="Arial" font-size="10" lengthAdjust="spacing" textLength="159" x="40" y="335.0742">d&#233;clencher des alertes prioritaires</text></g><!--class Traitement local--><g id="elem_Traitement local"><rect codeLine="38" fill="#EAF4FB" height="63.9961" id="Traitement local" rx="4" ry="4" style="stroke:#2C7BB6;stroke-width:1.5;" width="220" x="22" y="401.1973"/><rect fill="#D6EAF8" height="32.998" rx="4" ry="4" style="stroke:#D6EAF8;stroke-width:1.5;" width="220" x="22" y="401.1973"/><rect fill="#D6EAF8" height="4" style="stroke:#D6EAF8;stroke-width:1.5;" width="220" x="22" y="430.1953"/><rect codeLine="38" fill="none" height="63.9961" id="Traitement local" rx="4" ry="4" style="stroke:#2C7BB6;stroke-width:1.5;" width="220" x="22" y="401.1973"/><ellipse cx="88.75" cy="417.6963" fill="#ADD1B2" rx="9" ry="9" style="stroke:#181818;stroke-width:1.0;"/><path d="M90.2813,414.9619 Q90.375,414.8213 90.5,414.7588 Q90.625,414.6807 90.7656,414.6807 Q91,414.6807 91.1563,414.8525 Q91.3125,415.0244 91.3125,415.415 L91.3125,416.3525 Q91.3125,416.7432 91.1563,416.915 Q91,417.0869 90.7656,417.0869 Q90.5469,417.0869 90.4063,416.9619 Q90.2656,416.8369 90.2031,416.5088 Q90.1719,416.2744 90.0625,416.1494 Q89.8438,415.915 89.4375,415.7744 Q89.0469,415.6182 88.6563,415.6182 Q88.1563,415.6182 87.7344,415.8369 Q87.3281,416.0557 87,416.54 Q86.6875,417.0244 86.6875,417.6807 L86.6875,418.3994 Q86.6875,419.1963 87.2656,419.7275 Q87.8438,420.2588 88.875,420.2588 Q89.4844,420.2588 89.9063,420.0869 Q90.1563,419.9932 90.4375,419.7119 Q90.6094,419.54 90.7031,419.4932 Q90.7969,419.4307 90.9219,419.4307 Q91.1406,419.4307 91.3125,419.6025 Q91.4844,419.7744 91.4844,419.9932 Q91.4844,420.2119 91.25,420.4775 Q90.9219,420.8525 90.4063,421.0713 Q89.7188,421.3525 88.875,421.3525 Q87.9063,421.3525 87.125,420.9619 Q86.4844,420.6338 86.0313,419.9463 Q85.5938,419.2432 85.5938,418.415 L85.5938,417.665 Q85.5938,416.8057 85.9844,416.0713 Q86.3906,415.3213 87.0938,414.9307 Q87.8125,414.5244 88.6094,414.5244 Q89.0781,414.5244 89.5,414.6338 Q89.9219,414.7432 90.2813,414.9619 Z " fill="#000000"/><text fill="#000000" font-family="Arial" font-size="10" font-style="italic" lengthAdjust="spacing" textLength="37" x="127.25" y="415.5771">&#171;block&#187;</text><text fill="#000000" font-family="Arial" font-size="10" lengthAdjust="spacing" textLength="79" x="106.25" y="427.0762">Traitement local</text><line style="stroke:#2C7BB6;stroke-width:1.5;" x1="23" x2="241" y1="434.1953" y2="434.1953"/><ellipse cx="33" cy="445.4448" fill="none" rx="3" ry="3" style="stroke:#038048;stroke-width:1.0;"/><text fill="#000000" font-family="Arial" font-size="10" lengthAdjust="spacing" textLength="152" x="40" y="447.5752">pr&#233;parer et encoder les donn&#233;es</text><ellipse cx="33" cy="456.9438" fill="none" rx="3" ry="3" style="stroke:#038048;stroke-width:1.0;"/><text fill="#000000" font-family="Arial" font-size="10" lengthAdjust="spacing" textLength="161" x="40" y="459.0742">coordonner les fonctions du n&#339;ud</text></g><!--class Communication--><g id="elem_Communication"><rect codeLine="43" fill="#EAF4FB" height="63.9961" id="Communication" rx="4" ry="4" style="stroke:#2C7BB6;stroke-width:1.5;" width="220" x="22" y="525.1973"/><rect fill="#D6EAF8" height="32.998" rx="4" ry="4" style="stroke:#D6EAF8;stroke-width:1.5;" width="220" x="22" y="525.1973"/><rect fill="#D6EAF8" height="4" style="stroke:#D6EAF8;stroke-width:1.5;" width="220" x="22" y="554.1953"/><rect codeLine="43" fill="none" height="63.9961" id="Communication" rx="4" ry="4" style="stroke:#2C7BB6;stroke-width:1.5;" width="220" x="22" y="525.1973"/><ellipse cx="90.25" cy="541.6963" fill="#ADD1B2" rx="9" ry="9" style="stroke:#181818;stroke-width:1.0;"/><path d="M91.7813,538.9619 Q91.875,538.8213 92,538.7588 Q92.125,538.6807 92.2656,538.6807 Q92.5,538.6807 92.6563,538.8525 Q92.8125,539.0244 92.8125,539.415 L92.8125,540.3525 Q92.8125,540.7432 92.6563,540.915 Q92.5,541.0869 92.2656,541.0869 Q92.0469,541.0869 91.9063,540.9619 Q91.7656,540.8369 91.7031,540.5088 Q91.6719,540.2744 91.5625,540.1494 Q91.3438,539.915 90.9375,539.7744 Q90.5469,539.6182 90.1563,539.6182 Q89.6563,539.6182 89.2344,539.8369 Q88.8281,540.0557 88.5,540.54 Q88.1875,541.0244 88.1875,541.6807 L88.1875,542.3994 Q88.1875,543.1963 88.7656,543.7275 Q89.3438,544.2588 90.375,544.2588 Q90.9844,544.2588 91.4063,544.0869 Q91.6563,543.9932 91.9375,543.7119 Q92.1094,543.54 92.2031,543.4932 Q92.2969,543.4307 92.4219,543.4307 Q92.6406,543.4307 92.8125,543.6025 Q92.9844,543.7744 92.9844,543.9932 Q92.9844,544.2119 92.75,544.4775 Q92.4219,544.8525 91.9063,545.0713 Q91.2188,545.3525 90.375,545.3525 Q89.4063,545.3525 88.625,544.9619 Q87.9844,544.6338 87.5313,543.9463 Q87.0938,543.2432 87.0938,542.415 L87.0938,541.665 Q87.0938,540.8057 87.4844,540.0713 Q87.8906,539.3213 88.5938,538.9307 Q89.3125,538.5244 90.1094,538.5244 Q90.5781,538.5244 91,538.6338 Q91.4219,538.7432 91.7813,538.9619 Z " fill="#000000"/><text fill="#000000" font-family="Arial" font-size="10" font-style="italic" lengthAdjust="spacing" textLength="37" x="127.25" y="539.5771">&#171;block&#187;</text><text fill="#000000" font-family="Arial" font-size="10" lengthAdjust="spacing" textLength="76" x="107.75" y="551.0762">Communication</text><line style="stroke:#2C7BB6;stroke-width:1.5;" x1="23" x2="241" y1="558.1953" y2="558.1953"/><ellipse cx="33" cy="569.4448" fill="none" rx="3" ry="3" style="stroke:#038048;stroke-width:1.0;"/><text fill="#000000" font-family="Arial" font-size="10" lengthAdjust="spacing" textLength="163" x="40" y="571.5752">transmettre les donn&#233;es collect&#233;es</text><ellipse cx="33" cy="580.9438" fill="none" rx="3" ry="3" style="stroke:#038048;stroke-width:1.0;"/><text fill="#000000" font-family="Arial" font-size="10" lengthAdjust="spacing" textLength="168" x="40" y="583.0742">recevoir les configurations distantes</text></g><!--class Gestion ?nergie--><g id="elem_Gestion &#233;nergie"><rect codeLine="48" fill="#EAF4FB" height="63.9961" id="Gestion &#233;nergie" rx="4" ry="4" style="stroke:#2C7BB6;stroke-width:1.5;" width="220" x="22" y="649.1973"/><rect fill="#D6EAF8" height="32.998" rx="4" ry="4" style="stroke:#D6EAF8;stroke-width:1.5;" width="220" x="22" y="649.1973"/><rect fill="#D6EAF8" height="4" style="stroke:#D6EAF8;stroke-width:1.5;" width="220" x="22" y="678.1953"/><rect codeLine="48" fill="none" height="63.9961" id="Gestion &#233;nergie" rx="4" ry="4" style="stroke:#2C7BB6;stroke-width:1.5;" width="220" x="22" y="649.1973"/><ellipse cx="90.75" cy="665.6963" fill="#ADD1B2" rx="9" ry="9" style="stroke:#181818;stroke-width:1.0;"/><path d="M92.2813,662.9619 Q92.375,662.8213 92.5,662.7588 Q92.625,662.6807 92.7656,662.6807 Q93,662.6807 93.1563,662.8525 Q93.3125,663.0244 93.3125,663.415 L93.3125,664.3525 Q93.3125,664.7432 93.1563,664.915 Q93,665.0869 92.7656,665.0869 Q92.5469,665.0869 92.4063,664.9619 Q92.2656,664.8369 92.2031,664.5088 Q92.1719,664.2744 92.0625,664.1494 Q91.8438,663.915 91.4375,663.7744 Q91.0469,663.6182 90.6563,663.6182 Q90.1563,663.6182 89.7344,663.8369 Q89.3281,664.0557 89,664.54 Q88.6875,665.0244 88.6875,665.6807 L88.6875,666.3994 Q88.6875,667.1963 89.2656,667.7275 Q89.8438,668.2588 90.875,668.2588 Q91.4844,668.2588 91.9063,668.0869 Q92.1563,667.9932 92.4375,667.7119 Q92.6094,667.54 92.7031,667.4932 Q92.7969,667.4307 92.9219,667.4307 Q93.1406,667.4307 93.3125,667.6025 Q93.4844,667.7744 93.4844,667.9932 Q93.4844,668.2119 93.25,668.4775 Q92.9219,668.8525 92.4063,669.0713 Q91.7188,669.3525 90.875,669.3525 Q89.9063,669.3525 89.125,668.9619 Q88.4844,668.6338 88.0313,667.9463 Q87.5938,667.2432 87.5938,666.415 L87.5938,665.665 Q87.5938,664.8057 87.9844,664.0713 Q88.3906,663.3213 89.0938,662.9307 Q89.8125,662.5244 90.6094,662.5244 Q91.0781,662.5244 91.5,662.6338 Q91.9219,662.7432 92.2813,662.9619 Z " fill="#000000"/><text fill="#000000" font-family="Arial" font-size="10" font-style="italic" lengthAdjust="spacing" textLength="37" x="127.25" y="663.5771">&#171;block&#187;</text><text fill="#000000" font-family="Arial" font-size="10" lengthAdjust="spacing" textLength="75" x="108.25" y="675.0762">Gestion &#233;nergie</text><line style="stroke:#2C7BB6;stroke-width:1.5;" x1="23" x2="241" y1="682.1953" y2="682.1953"/><ellipse cx="33" cy="693.4448" fill="none" rx="3" ry="3" style="stroke:#038048;stroke-width:1.0;"/><text fill="#000000" font-family="Arial" font-size="10" lengthAdjust="spacing" textLength="160" x="40" y="695.5752">surveiller le niveau d'alimentation</text><ellipse cx="33" cy="704.9438" fill="none" rx="3" ry="3" style="stroke:#038048;stroke-width:1.0;"/><text fill="#000000" font-family="Arial" font-size="10" lengthAdjust="spacing" textLength="173" x="40" y="707.0742">optimiser la consommation du n&#339;ud</text></g><!--class N?ud de mesure--><g id="elem_N&#339;ud de mesure"><rect codeLine="24" fill="#EAF4FB" height="32.998" id="N&#339;ud de mesure" rx="4" ry="4" style="stroke:#2C7BB6;stroke-width:1.5;" width="220" x="256" y="60.1973"/><rect fill="#D6EAF8" height="32.998" rx="4" ry="4" style="stroke:#D6EAF8;stroke-width:1.5;" width="220" x="256" y="60.1973"/><rect fill="#D6EAF8" height="4" style="stroke:#D6EAF8;stroke-width:1.5;" width="220" x="256" y="89.1953"/><rect codeLine="24" fill="none" height="32.998" id="N&#339;ud de mesure" rx="4" ry="4" style="stroke:#2C7BB6;stroke-width:1.5;" width="220" x="256" y="60.1973"/><ellipse cx="322.25" cy="76.6963" fill="#ADD1B2" rx="9" ry="9" style="stroke:#181818;stroke-width:1.0;"/><path d="M323.7813,73.9619 Q323.875,73.8213 324,73.7588 Q324.125,73.6807 324.2656,73.6807 Q324.5,73.6807 324.6563,73.8525 Q324.8125,74.0244 324.8125,74.415 L324.8125,75.3525 Q324.8125,75.7432 324.6563,75.915 Q324.5,76.0869 324.2656,76.0869 Q324.0469,76.0869 323.9063,75.9619 Q323.7656,75.8369 323.7031,75.5088 Q323.6719,75.2744 323.5625,75.1494 Q323.3438,74.915 322.9375,74.7744 Q322.5469,74.6182 322.1563,74.6182 Q321.6563,74.6182 321.2344,74.8369 Q320.8281,75.0557 320.5,75.54 Q320.1875,76.0244 320.1875,76.6807 L320.1875,77.3994 Q320.1875,78.1963 320.7656,78.7275 Q321.3438,79.2588 322.375,79.2588 Q322.9844,79.2588 323.4063,79.0869 Q323.6563,78.9932 323.9375,78.7119 Q324.1094,78.54 324.2031,78.4932 Q324.2969,78.4307 324.4219,78.4307 Q324.6406,78.4307 324.8125,78.6025 Q324.9844,78.7744 324.9844,78.9932 Q324.9844,79.2119 324.75,79.4775 Q324.4219,79.8525 323.9063,80.0713 Q323.2188,80.3525 322.375,80.3525 Q321.4063,80.3525 320.625,79.9619 Q319.9844,79.6338 319.5313,78.9463 Q319.0938,78.2432 319.0938,77.415 L319.0938,76.665 Q319.0938,75.8057 319.4844,75.0713 Q319.8906,74.3213 320.5938,73.9307 Q321.3125,73.5244 322.1094,73.5244 Q322.5781,73.5244 323,73.6338 Q323.4219,73.7432 323.7813,73.9619 Z " fill="#000000"/><text fill="#000000" font-family="Arial" font-size="10" font-style="italic" lengthAdjust="spacing" textLength="37" x="361.25" y="74.5771">&#171;block&#187;</text><text fill="#000000" font-family="Arial" font-size="10" lengthAdjust="spacing" textLength="80" x="339.75" y="86.0762">N&#339;ud de mesure</text></g><!--link Acquisition des mesures to D?tection d'?v?nements--><!--link D?tection d'?v?nements to Traitement local--><!--link Traitement local to Communication--><!--link Communication to Gestion ?nergie--><!--reverse link N?ud de mesure to Acquisition des mesures--><g id="link_N&#339;ud de mesure_Acquisition des mesures"><path codeLine="60" d="M310.3787,97.3426 C293.6987,103.4826 285.95,106.7073 269,114.1973 C242.37,125.9673 213.58,140.4073 189.3,153.1073 " fill="none" id="N&#339;ud de mesure-backto-Acquisition des mesures" style="stroke:#2C3E50;stroke-width:1.0;"/><polygon fill="#2C3E50" points="321.64,93.1973,314.6276,91.5162,310.3787,97.3426,317.3911,99.0237,321.64,93.1973" style="stroke:#2C3E50;stroke-width:1.0;"/></g><!--reverse link N?ud de mesure to D?tection d'?v?nements--><g id="link_N&#339;ud de mesure_D&#233;tection d'&#233;v&#233;nements"><path codeLine="61" d="M347.4637,102.9568 C322.3737,137.0968 270.92,206.6173 260,217.1973 C236.79,239.6773 207.64,260.8473 183.03,277.0973 " fill="none" id="N&#339;ud de mesure-backto-D&#233;tection d'&#233;v&#233;nements" style="stroke:#2C3E50;stroke-width:1.0;"/><polygon fill="#2C3E50" points="354.57,93.2873,347.7937,95.7533,347.4637,102.9568,354.24,100.4908,354.57,93.2873" style="stroke:#2C3E50;stroke-width:1.0;"/></g><!--reverse link N?ud de mesure to Traitement local--><g id="link_N&#339;ud de mesure_Traitement local"><path codeLine="62" d="M361.3193,105.0366 C353.4093,148.8766 327.78,263.5673 260,341.1973 C239.47,364.7173 211.69,385.3973 187.27,401.0773 " fill="none" id="N&#339;ud de mesure-backto-Traitement local" style="stroke:#2C3E50;stroke-width:1.0;"/><polygon fill="#2C3E50" points="363.45,93.2273,358.4482,98.4217,361.3193,105.0366,366.3211,99.8422,363.45,93.2273" style="stroke:#2C3E50;stroke-width:1.0;"/></g><!--reverse link N?ud de mesure to Communication--><g id="link_N&#339;ud de mesure_Communication"><path codeLine="63" d="M371.0639,105.2237 C375.5439,131.2737 380.42,173.1173 371,217.1973 C345.78,335.2973 336.57,371.8173 260,465.1973 C240.46,489.0173 213.24,509.5473 188.91,525.0373 " fill="none" id="N&#339;ud de mesure-backto-Communication" style="stroke:#2C3E50;stroke-width:1.0;"/><polygon fill="#2C3E50" points="369.03,93.3973,366.1048,99.9884,371.0639,105.2237,373.9891,98.6325,369.03,93.3973" style="stroke:#2C3E50;stroke-width:1.0;"/></g><!--reverse link N?ud de mesure to Gestion ?nergie--><g id="link_N&#339;ud de mesure_Gestion &#233;nergie"><path codeLine="64" d="M393.1958,101.2579 C431.5558,135.7279 508,214.8973 508,308.1973 C508,308.1973 508,308.1973 508,434.1973 C508,562.4273 352.98,627.4073 242.02,657.4973 " fill="none" id="N&#339;ud de mesure-backto-Gestion &#233;nergie" style="stroke:#2C3E50;stroke-width:1.0;"/><polygon fill="#2C3E50" points="384.27,93.2373,386.0593,100.2228,393.1958,101.2579,391.4064,94.2723,384.27,93.2373" style="stroke:#2C3E50;stroke-width:1.0;"/></g><!--SRC=[XLJ1ZjCm4BtdAwnoG08LjilkieUgKjfjuCIbAt403gupQKTrxApjT5KGNy5FRB-1OyH_CKxIaatIabFQUVFclJTsx0PLnWrFMGm9pwMBj7AVU0eiDCXbOFlg2_mER3Hg58NarawvsAoCpbKyqr8Rzc8UHbVHj0FJ9WPJGovdxwVJctx8_Hh5He6rRFJckW49ZT6Fn_vty-kBHj6kUQmVKQrOmgM5HYKZUNm57PLH5DtEHpt0fiwhy2gy2K-1JYcjGMLcRYU1BRMCJzJxCmsTCxZCNGDpqSPy14uQEhxkRYZ_spPuuS20Thli16EAQkPndp5sQtPvsQpLx4Q1ORT1iCOO6AIPsx4KqYKO6mGE7TaSBoTto5VKGmU9G7V5Fa653hNoFwTI2yk6xDEVNtdi_qZ1vWR6RvUJhsgC4u8BdMRQLXs9LiA_A934ZOeSAA3snSwwueacp7c-A7vx0fm4GMcJ3Lha0pOUBsdkPaAGEdSsY6fgUw2rWyE1O3-2WB6QB1GFETg30LjpsWOfmHazhvdGf58G6PC4B8Chdfpnx-kTnOSSR8tSSaa96WQE9IW9KhN4vBJObwYV3GaKYWDHANXPxBV5Na4AolMA87LRG19IKGgjOgnySgLDokLHH4nPIr1YJL3lZ4h6UR46jK77qNIKt1kEhfpDQ2oNVG8oK-p9U-MEw7NSTLUbHHV8hxQg9iTzn3bJVeEjsJETfhb2mJsgRx0pNDaKwDh0itc7lJHc6n2mrNYCAC5LRdWz7gtZT2JQtZ-0BLVWqpShXF-6pnHkWUUqCzgspwmSK2DrvZ15wu7SAx3aZbShRja_VGA7N-WUng2-qMTF3S-T4qzpvXHrc3fxzWJTvTTFk_lvfdnhQtV_ddPh9-GWe12wD_hLi6uu5SwvdZCvdUdgPd86t8hW3BBh-2y0]--></g></svg>