<?xml version="1.0" encoding="us-ascii" standalone="no"?><svg xmlns="http://www.w3.org/2000/svg" xmlns:xlink="http://www.w3.org/1999/xlink" contentStyleType="text/css" height="736px" preserveAspectRatio="none" style="width:519px;height:736px;background:#FFFFFF;" version="1.1" viewBox="0 0 519 736" width="519px" zoomAndPan="magnify"><defs/><g><text fill="#000000" font-family="Arial" font-size="14" font-weight="bold" lengthAdjust="spacing" textLength="456" x="24.5" y="23.1318">Diagramme de D&#233;finition de Blocs - Passerelle de communication</text><text fill="#000000" font-family="Arial" font-size="14" font-style="italic" font-weight="bold" lengthAdjust="spacing" textLength="376" x="64.5" y="39.2305">D&#233;composition fonctionnelle interne - Syst&#232;me EauS&#251;re</text><!--cluster Fonctions internes--><g id="cluster_Fonctions internes"><path d="M10,122.1973 L112,122.1973 A6,6 0 0 1 116,126.1973 L123,140.8462 L258,140.8462 A4,4 0 0 1 262,144.8462 L262,725.1973 A4,4 0 0 1 258,729.1973 L10,729.1973 A4,4 0 0 1 6,725.1973 L6,126.1973 A4,4 0 0 1 10,122.1973 " fill="#E8EAF6" style="stroke:#4A4A6A;stroke-width:1.5;"/><line style="stroke:#4A4A6A;stroke-width:1.5;" x1="6" x2="123" y1="140.8462" y2="140.8462"/><text fill="#000000" font-family="Arial" font-size="11" font-weight="bold" lengthAdjust="spacing" textLength="104" x="10" y="134.5151">Fonctions internes</text></g><!--class Gestion communication--><g id="elem_Gestion communication"><rect codeLine="28" fill="#EAF4FB" height="63.9961" id="Gestion communication" rx="4" ry="4" style="stroke:#2C7BB6;stroke-width:1.5;" width="223" x="22.5" y="153.1973"/><rect fill="#C5CAE9" height="32.998" rx="4" ry="4" style="stroke:#C5CAE9;stroke-width:1.5;" width="223" x="22.5" y="153.1973"/><rect fill="#C5CAE9" height="4" style="stroke:#C5CAE9;stroke-width:1.5;" width="223" x="22.5" y="182.1953"/><rect codeLine="28" fill="none" height="63.9961" id="Gestion communication" rx="4" ry="4" style="stroke:#2C7BB6;stroke-width:1.5;" width="223" x="22.5" y="153.1973"/><ellipse cx="73.25" cy="169.6963" fill="#ADD1B2" rx="9" ry="9" style="stroke:#181818;stroke-width:1.0;"/><path d="M74.7813,166.9619 Q74.875,166.8213 75,166.7588 Q75.125,166.6807 75.2656,166.6807 Q75.5,166.6807 75.6563,166.8525 Q75.8125,167.0244 75.8125,167.415 L75.8125,168.3525 Q75.8125,168.7432 75.6563,168.915 Q75.5,169.0869 75.2656,169.0869 Q75.0469,169.0869 74.9063,168.9619 Q74.7656,168.8369 74.7031,168.5088 Q74.6719,168.2744 74.5625,168.1494 Q74.3438,167.915 73.9375,167.7744 Q73.5469,167.6182 73.1563,167.6182 Q72.6563,167.6182 72.2344,167.8369 Q71.8281,168.0557 71.5,168.54 Q71.1875,169.0244 71.1875,169.6807 L71.1875,170.3994 Q71.1875,171.1963 71.7656,171.7275 Q72.3438,172.2588 73.375,172.2588 Q73.9844,172.2588 74.4063,172.0869 Q74.6563,171.9932 74.9375,171.7119 Q75.1094,171.54 75.2031,171.4932 Q75.2969,171.4307 75.4219,171.4307 Q75.6406,171.4307 75.8125,171.6025 Q75.9844,171.7744 75.9844,171.9932 Q75.9844,172.2119 75.75,172.4775 Q75.4219,172.8525 74.9063,173.0713 Q74.2188,173.3525 73.375,173.3525 Q72.4063,173.3525 71.625,172.9619 Q70.9844,172.6338 70.5313,171.9463 Q70.0938,171.2432 70.0938,170.415 L70.0938,169.665 Q70.0938,168.8057 70.4844,168.0713 Q70.8906,167.3213 71.5938,166.9307 Q72.3125,166.5244 73.1094,166.5244 Q73.5781,166.5244 74,166.6338 Q74.4219,166.7432 74.7813,166.9619 Z " fill="#000000"/><text fill="#000000" font-family="Arial" font-size="10" font-style="italic" lengthAdjust="spacing" textLength="37" x="129.25" y="167.5771">&#171;block&#187;</text><text fill="#000000" font-family="Arial" font-size="10" lengthAdjust="spacing" textLength="114" x="90.75" y="179.0762">Gestion communication</text><line style="stroke:#2C7BB6;stroke-width:1.5;" x1="23.5" x2="244.5" y1="186.1953" y2="186.1953"/><ellipse cx="33.5" cy="197.4448" fill="none" rx="3" ry="3" style="stroke:#038048;stroke-width:1.0;"/><text fill="#000000" font-family="Arial" font-size="10" lengthAdjust="spacing" textLength="199" x="40.5" y="199.5752">assurer la r&#233;ception des donn&#233;es du n&#339;ud</text><ellipse cx="33.5" cy="208.9438" fill="none" rx="3" ry="3" style="stroke:#038048;stroke-width:1.0;"/><text fill="#000000" font-family="Arial" font-size="10" lengthAdjust="spacing" textLength="183" x="40.5" y="211.0742">maintenir la liaison avec la plateforme</text></g><!--class Relais des donn?es--><g id="elem_Relais des donn&#233;es"><rect codeLine="33" fill="#EAF4FB" height="63.9961" id="Relais des donn&#233;es" rx="4" ry="4" style="stroke:#2C7BB6;stroke-width:1.5;" width="221" x="24.5" y="277.1973"/><rect fill="#C5CAE9" height="32.998" rx="4" ry="4" style="stroke:#C5CAE9;stroke-width:1.5;" width="221" x="24.5" y="277.1973"/><rect fill="#C5CAE9" height="4" style="stroke:#C5CAE9;stroke-width:1.5;" width="221" x="24.5" y="306.1953"/><rect codeLine="33" fill="none" height="63.9961" id="Relais des donn&#233;es" rx="4" ry="4" style="stroke:#2C7BB6;stroke-width:1.5;" width="221" x="24.5" y="277.1973"/><ellipse cx="85.75" cy="293.6963" fill="#ADD1B2" rx="9" ry="9" style="stroke:#181818;stroke-width:1.0;"/><path d="M87.2813,290.9619 Q87.375,290.8213 87.5,290.7588 Q87.625,290.6807 87.7656,290.6807 Q88,290.6807 88.1563,290.8525 Q88.3125,291.0244 88.3125,291.415 L88.3125,292.3525 Q88.3125,292.7432 88.1563,292.915 Q88,293.0869 87.7656,293.0869 Q87.5469,293.0869 87.4063,292.9619 Q87.2656,292.8369 87.2031,292.5088 Q87.1719,292.2744 87.0625,292.1494 Q86.8438,291.915 86.4375,291.7744 Q86.0469,291.6182 85.6563,291.6182 Q85.1563,291.6182 84.7344,291.8369 Q84.3281,292.0557 84,292.54 Q83.6875,293.0244 83.6875,293.6807 L83.6875,294.3994 Q83.6875,295.1963 84.2656,295.7275 Q84.8438,296.2588 85.875,296.2588 Q86.4844,296.2588 86.9063,296.0869 Q87.1563,295.9932 87.4375,295.7119 Q87.6094,295.54 87.7031,295.4932 Q87.7969,295.4307 87.9219,295.4307 Q88.1406,295.4307 88.3125,295.6025 Q88.4844,295.7744 88.4844,295.9932 Q88.4844,296.2119 88.25,296.4775 Q87.9219,296.8525 87.4063,297.0713 Q86.7188,297.3525 85.875,297.3525 Q84.9063,297.3525 84.125,296.9619 Q83.4844,296.6338 83.0313,295.9463 Q82.5938,295.2432 82.5938,294.415 L82.5938,293.665 Q82.5938,292.8057 82.9844,292.0713 Q83.3906,291.3213 84.0938,290.9307 Q84.8125,290.5244 85.6094,290.5244 Q86.0781,290.5244 86.5,290.6338 Q86.9219,290.7432 87.2813,290.9619 Z " fill="#000000"/><text fill="#000000" font-family="Arial" font-size="10" font-style="italic" lengthAdjust="spacing" textLength="37" x="130.25" y="291.5771">&#171;block&#187;</text><text fill="#000000" font-family="Arial" font-size="10" lengthAdjust="spacing" textLength="91" x="103.25" y="303.0762">Relais des donn&#233;es</text><line style="stroke:#2C7BB6;stroke-width:1.5;" x1="25.5" x2="244.5" y1="310.1953" y2="310.1953"/><ellipse cx="35.5" cy="321.4448" fill="none" rx="3" ry="3" style="stroke:#038048;stroke-width:1.0;"/><text fill="#000000" font-family="Arial" font-size="10" lengthAdjust="spacing" textLength="197" x="42.5" y="323.5752">acheminer les donn&#233;es vers la plateforme</text><ellipse cx="35.5" cy="332.9438" fill="none" rx="3" ry="3" style="stroke:#038048;stroke-width:1.0;"/><text fill="#000000" font-family="Arial" font-size="10" lengthAdjust="spacing" textLength="196" x="42.5" y="335.0742">garantir l'int&#233;grit&#233; des donn&#233;es transmises</text></g><!--class Supervision r?seau--><g id="elem_Supervision r&#233;seau"><rect codeLine="38" fill="#EAF4FB" height="63.9961" id="Supervision r&#233;seau" rx="4" ry="4" style="stroke:#2C7BB6;stroke-width:1.5;" width="220" x="26" y="401.1973"/><rect fill="#C5CAE9" height="32.998" rx="4" ry="4" style="stroke:#C5CAE9;stroke-width:1.5;" width="220" x="26" y="401.1973"/><rect fill="#C5CAE9" height="4" style="stroke:#C5CAE9;stroke-width:1.5;" width="220" x="26" y="430.1953"/><rect codeLine="38" fill="none" height="63.9961" id="Supervision r&#233;seau" rx="4" ry="4" style="stroke:#2C7BB6;stroke-width:1.5;" width="220" x="26" y="401.1973"/><ellipse cx="87.75" cy="417.6963" fill="#ADD1B2" rx="9" ry="9" style="stroke:#181818;stroke-width:1.0;"/><path d="M89.2813,414.9619 Q89.375,414.8213 89.5,414.7588 Q89.625,414.6807 89.7656,414.6807 Q90,414.6807 90.1563,414.8525 Q90.3125,415.0244 90.3125,415.415 L90.3125,416.3525 Q90.3125,416.7432 90.1563,416.915 Q90,417.0869 89.7656,417.0869 Q89.5469,417.0869 89.4063,416.9619 Q89.2656,416.8369 89.2031,416.5088 Q89.1719,416.2744 89.0625,416.1494 Q88.8438,415.915 88.4375,415.7744 Q88.0469,415.6182 87.6563,415.6182 Q87.1563,415.6182 86.7344,415.8369 Q86.3281,416.0557 86,416.54 Q85.6875,417.0244 85.6875,417.6807 L85.6875,418.3994 Q85.6875,419.1963 86.2656,419.7275 Q86.8438,420.2588 87.875,420.2588 Q88.4844,420.2588 88.9063,420.0869 Q89.1563,419.9932 89.4375,419.7119 Q89.6094,419.54 89.7031,419.4932 Q89.7969,419.4307 89.9219,419.4307 Q90.1406,419.4307 90.3125,419.6025 Q90.4844,419.7744 90.4844,419.9932 Q90.4844,420.2119 90.25,420.4775 Q89.9219,420.8525 89.4063,421.0713 Q88.7188,421.3525 87.875,421.3525 Q86.9063,421.3525 86.125,420.9619 Q85.4844,420.6338 85.0313,419.9463 Q84.5938,419.2432 84.5938,418.415 L84.5938,417.665 Q84.5938,416.8057 84.9844,416.0713 Q85.3906,415.3213 86.0938,414.9307 Q86.8125,414.5244 87.6094,414.5244 Q88.0781,414.5244 88.5,414.6338 Q88.9219,414.7432 89.2813,414.9619 Z " fill="#000000"/><text fill="#000000" font-family="Arial" font-size="10" font-style="italic" lengthAdjust="spacing" textLength="37" x="131.25" y="415.5771">&#171;block&#187;</text><text fill="#000000" font-family="Arial" font-size="10" lengthAdjust="spacing" textLength="89" x="105.25" y="427.0762">Supervision r&#233;seau</text><line style="stroke:#2C7BB6;stroke-width:1.5;" x1="27" x2="245" y1="434.1953" y2="434.1953"/><ellipse cx="37" cy="445.4448" fill="none" rx="3" ry="3" style="stroke:#038048;stroke-width:1.0;"/><text fill="#000000" font-family="Arial" font-size="10" lengthAdjust="spacing" textLength="157" x="44" y="447.5752">surveiller l'&#233;tat de la connectivit&#233;</text><ellipse cx="37" cy="456.9438" fill="none" rx="3" ry="3" style="stroke:#038048;stroke-width:1.0;"/><text fill="#000000" font-family="Arial" font-size="10" lengthAdjust="spacing" textLength="165" x="44" y="459.0742">d&#233;tecter les interruptions de liaison</text></g><!--class Interface avec la plateforme--><g id="elem_Interface avec la plateforme"><rect codeLine="43" fill="#EAF4FB" height="63.9961" id="Interface avec la plateforme" rx="4" ry="4" style="stroke:#2C7BB6;stroke-width:1.5;" width="220" x="26" y="525.1973"/><rect fill="#C5CAE9" height="32.998" rx="4" ry="4" style="stroke:#C5CAE9;stroke-width:1.5;" width="220" x="26" y="525.1973"/><rect fill="#C5CAE9" height="4" style="stroke:#C5CAE9;stroke-width:1.5;" width="220" x="26" y="554.1953"/><rect codeLine="43" fill="none" height="63.9961" id="Interface avec la plateforme" rx="4" ry="4" style="stroke:#2C7BB6;stroke-width:1.5;" width="220" x="26" y="525.1973"/><ellipse cx="65.25" cy="541.6963" fill="#ADD1B2" rx="9" ry="9" style="stroke:#181818;stroke-width:1.0;"/><path d="M66.7813,538.9619 Q66.875,538.8213 67,538.7588 Q67.125,538.6807 67.2656,538.6807 Q67.5,538.6807 67.6563,538.8525 Q67.8125,539.0244 67.8125,539.415 L67.8125,540.3525 Q67.8125,540.7432 67.6563,540.915 Q67.5,541.0869 67.2656,541.0869 Q67.0469,541.0869 66.9063,540.9619 Q66.7656,540.8369 66.7031,540.5088 Q66.6719,540.2744 66.5625,540.1494 Q66.3438,539.915 65.9375,539.7744 Q65.5469,539.6182 65.1563,539.6182 Q64.6563,539.6182 64.2344,539.8369 Q63.8281,540.0557 63.5,540.54 Q63.1875,541.0244 63.1875,541.6807 L63.1875,542.3994 Q63.1875,543.1963 63.7656,543.7275 Q64.3438,544.2588 65.375,544.2588 Q65.9844,544.2588 66.4063,544.0869 Q66.6563,543.9932 66.9375,543.7119 Q67.1094,543.54 67.2031,543.4932 Q67.2969,543.4307 67.4219,543.4307 Q67.6406,543.4307 67.8125,543.6025 Q67.9844,543.7744 67.9844,543.9932 Q67.9844,544.2119 67.75,544.4775 Q67.4219,544.8525 66.9063,545.0713 Q66.2188,545.3525 65.375,545.3525 Q64.4063,545.3525 63.625,544.9619 Q62.9844,544.6338 62.5313,543.9463 Q62.0938,543.2432 62.0938,542.415 L62.0938,541.665 Q62.0938,540.8057 62.4844,540.0713 Q62.8906,539.3213 63.5938,538.9307 Q64.3125,538.5244 65.1094,538.5244 Q65.5781,538.5244 66,538.6338 Q66.4219,538.7432 66.7813,538.9619 Z " fill="#000000"/><text fill="#000000" font-family="Arial" font-size="10" font-style="italic" lengthAdjust="spacing" textLength="37" x="131.25" y="539.5771">&#171;block&#187;</text><text fill="#000000" font-family="Arial" font-size="10" lengthAdjust="spacing" textLength="134" x="82.75" y="551.0762">Interface avec la plateforme</text><line style="stroke:#2C7BB6;stroke-width:1.5;" x1="27" x2="245" y1="558.1953" y2="558.1953"/><ellipse cx="37" cy="569.4448" fill="none" rx="3" ry="3" style="stroke:#038048;stroke-width:1.0;"/><text fill="#000000" font-family="Arial" font-size="10" lengthAdjust="spacing" textLength="188" x="44" y="571.5752">formater les donn&#233;es pour la plateforme</text><ellipse cx="37" cy="580.9438" fill="none" rx="3" ry="3" style="stroke:#038048;stroke-width:1.0;"/><text fill="#000000" font-family="Arial" font-size="10" lengthAdjust="spacing" textLength="168" x="44" y="583.0742">recevoir les configurations distantes</text></g><!--class Alerte locale--><g id="elem_Alerte locale"><rect codeLine="48" fill="#EAF4FB" height="63.9961" id="Alerte locale" rx="4" ry="4" style="stroke:#2C7BB6;stroke-width:1.5;" width="220" x="26" y="649.1973"/><rect fill="#C5CAE9" height="32.998" rx="4" ry="4" style="stroke:#C5CAE9;stroke-width:1.5;" width="220" x="26" y="649.1973"/><rect fill="#C5CAE9" height="4" style="stroke:#C5CAE9;stroke-width:1.5;" width="220" x="26" y="678.1953"/><rect codeLine="48" fill="none" height="63.9961" id="Alerte locale" rx="4" ry="4" style="stroke:#2C7BB6;stroke-width:1.5;" width="220" x="26" y="649.1973"/><ellipse cx="101.75" cy="665.6963" fill="#ADD1B2" rx="9" ry="9" style="stroke:#181818;stroke-width:1.0;"/><path d="M103.2813,662.9619 Q103.375,662.8213 103.5,662.7588 Q103.625,662.6807 103.7656,662.6807 Q104,662.6807 104.1563,662.8525 Q104.3125,663.0244 104.3125,663.415 L104.3125,664.3525 Q104.3125,664.7432 104.1563,664.915 Q104,665.0869 103.7656,665.0869 Q103.5469,665.0869 103.4063,664.9619 Q103.2656,664.8369 103.2031,664.5088 Q103.1719,664.2744 103.0625,664.1494 Q102.8438,663.915 102.4375,663.7744 Q102.0469,663.6182 101.6563,663.6182 Q101.1563,663.6182 100.7344,663.8369 Q100.3281,664.0557 100,664.54 Q99.6875,665.0244 99.6875,665.6807 L99.6875,666.3994 Q99.6875,667.1963 100.2656,667.7275 Q100.8438,668.2588 101.875,668.2588 Q102.4844,668.2588 102.9063,668.0869 Q103.1563,667.9932 103.4375,667.7119 Q103.6094,667.54 103.7031,667.4932 Q103.7969,667.4307 103.9219,667.4307 Q104.1406,667.4307 104.3125,667.6025 Q104.4844,667.7744 104.4844,667.9932 Q104.4844,668.2119 104.25,668.4775 Q103.9219,668.8525 103.4063,669.0713 Q102.7188,669.3525 101.875,669.3525 Q100.9063,669.3525 100.125,668.9619 Q99.4844,668.6338 99.0313,667.9463 Q98.5938,667.2432 98.5938,666.415 L98.5938,665.665 Q98.5938,664.8057 98.9844,664.0713 Q99.3906,663.3213 100.0938,662.9307 Q100.8125,662.5244 101.6094,662.5244 Q102.0781,662.5244 102.5,662.6338 Q102.9219,662.7432 103.2813,662.9619 Z " fill="#000000"/><text fill="#000000" font-family="Arial" font-size="10" font-style="italic" lengthAdjust="spacing" textLength="37" x="131.25" y="663.5771">&#171;block&#187;</text><text fill="#000000" font-family="Arial" font-size="10" lengthAdjust="spacing" textLength="61" x="119.25" y="675.0762">Alerte locale</text><line style="stroke:#2C7BB6;stroke-width:1.5;" x1="27" x2="245" y1="682.1953" y2="682.1953"/><ellipse cx="37" cy="693.4448" fill="none" rx="3" ry="3" style="stroke:#038048;stroke-width:1.0;"/><text fill="#000000" font-family="Arial" font-size="10" lengthAdjust="spacing" textLength="180" x="44" y="695.5752">signaler les anomalies de transmission</text><ellipse cx="37" cy="704.9438" fill="none" rx="3" ry="3" style="stroke:#038048;stroke-width:1.0;"/><text fill="#000000" font-family="Arial" font-size="10" lengthAdjust="spacing" textLength="177" x="44" y="707.0742">notifier en cas de perte de connexion</text></g><!--class Passerelle de communication--><g id="elem_Passerelle de communication"><rect codeLine="24" fill="#EAF4FB" height="32.998" id="Passerelle de communication" rx="4" ry="4" style="stroke:#2C7BB6;stroke-width:1.5;" width="220" x="260" y="60.1973"/><rect fill="#C5CAE9" height="32.998" rx="4" ry="4" style="stroke:#C5CAE9;stroke-width:1.5;" width="220" x="260" y="60.1973"/><rect fill="#C5CAE9" height="4" style="stroke:#C5CAE9;stroke-width:1.5;" width="220" x="260" y="89.1953"/><rect codeLine="24" fill="none" height="32.998" id="Passerelle de communication" rx="4" ry="4" style="stroke:#2C7BB6;stroke-width:1.5;" width="220" x="260" y="60.1973"/><ellipse cx="295.95" cy="76.6963" fill="#ADD1B2" rx="9" ry="9" style="stroke:#181818;stroke-width:1.0;"/><path d="M297.4813,73.9619 Q297.575,73.8213 297.7,73.7588 Q297.825,73.6807 297.9656,73.6807 Q298.2,73.6807 298.3563,73.8525 Q298.5125,74.0244 298.5125,74.415 L298.5125,75.3525 Q298.5125,75.7432 298.3563,75.915 Q298.2,76.0869 297.9656,76.0869 Q297.7469,76.0869 297.6063,75.9619 Q297.4656,75.8369 297.4031,75.5088 Q297.3719,75.2744 297.2625,75.1494 Q297.0438,74.915 296.6375,74.7744 Q296.2469,74.6182 295.8563,74.6182 Q295.3563,74.6182 294.9344,74.8369 Q294.5281,75.0557 294.2,75.54 Q293.8875,76.0244 293.8875,76.6807 L293.8875,77.3994 Q293.8875,78.1963 294.4656,78.7275 Q295.0438,79.2588 296.075,79.2588 Q296.6844,79.2588 297.1063,79.0869 Q297.3563,78.9932 297.6375,78.7119 Q297.8094,78.54 297.9031,78.4932 Q297.9969,78.4307 298.1219,78.4307 Q298.3406,78.4307 298.5125,78.6025 Q298.6844,78.7744 298.6844,78.9932 Q298.6844,79.2119 298.45,79.4775 Q298.1219,79.8525 297.6063,80.0713 Q296.9188,80.3525 296.075,80.3525 Q295.1063,80.3525 294.325,79.9619 Q293.6844,79.6338 293.2313,78.9463 Q292.7938,78.2432 292.7938,77.415 L292.7938,76.665 Q292.7938,75.8057 293.1844,75.0713 Q293.5906,74.3213 294.2938,73.9307 Q295.0125,73.5244 295.8094,73.5244 Q296.2781,73.5244 296.7,73.6338 Q297.1219,73.7432 297.4813,73.9619 Z " fill="#000000"/><text fill="#000000" font-family="Arial" font-size="10" font-style="italic" lengthAdjust="spacing" textLength="37" x="365.05" y="74.5771">&#171;block&#187;</text><text fill="#000000" font-family="Arial" font-size="10" lengthAdjust="spacing" textLength="141" x="313.05" y="86.0762">Passerelle de communication</text></g><!--link Gestion communication to Relais des donn?es--><!--link Relais des donn?es to Supervision r?seau--><!--link Supervision r?seau to Interface avec la plateforme--><!--link Interface avec la plateforme to Alerte locale--><!--reverse link Passerelle de communication to Gestion communication--><g id="link_Passerelle de communication_Gestion communication"><path codeLine="60" d="M314.4017,97.4007 C297.7317,103.5507 289.97,106.7573 273,114.1973 C246.03,126.0273 216.82,140.4673 192.18,153.1573 " fill="none" id="Passerelle de communication-backto-Gestion communication" style="stroke:#2C3E50;stroke-width:1.0;"/><polygon fill="#2C3E50" points="325.66,93.2473,318.6464,91.5712,314.4017,97.4007,321.4154,99.0768,325.66,93.2473" style="stroke:#2C3E50;stroke-width:1.0;"/></g><!--reverse link Passerelle de communication to Relais des donn?es--><g id="link_Passerelle de communication_Relais des donn&#233;es"><path codeLine="61" d="M351.696,103.4427 C328.836,135.4527 284.53,196.4373 263,217.1973 C239.74,239.6273 210.59,260.7873 185.98,277.0473 " fill="none" id="Passerelle de communication-backto-Relais des donn&#233;es" style="stroke:#2C3E50;stroke-width:1.0;"/><polygon fill="#2C3E50" points="358.67,93.6773,351.9279,96.2353,351.696,103.4427,358.4381,100.8846,358.67,93.6773" style="stroke:#2C3E50;stroke-width:1.0;"/></g><!--reverse link Passerelle de communication to Supervision r?seau--><g id="link_Passerelle de communication_Supervision r&#233;seau"><path codeLine="62" d="M365.1507,105.004 C356.9907,148.774 330.73,263.3373 263,341.1973 C242.62,364.6273 215.06,385.3073 190.83,401.0073 " fill="none" id="Passerelle de communication-backto-Supervision r&#233;seau" style="stroke:#2C3E50;stroke-width:1.0;"/><polygon fill="#2C3E50" points="367.35,93.2073,362.3181,98.3726,365.1507,105.004,370.1826,99.8387,367.35,93.2073" style="stroke:#2C3E50;stroke-width:1.0;"/></g><!--reverse link Passerelle de communication to Interface avec la plateforme--><g id="link_Passerelle de communication_Interface avec la plateforme"><path codeLine="63" d="M374.3851,105.2682 C378.2351,131.3082 382.26,173.1073 373,217.1973 C348.25,335.0273 340.03,371.8373 264,465.1973 C244.54,489.0873 217.33,509.6173 192.99,525.0973 " fill="none" id="Passerelle de communication-backto-Interface avec la plateforme" style="stroke:#2C3E50;stroke-width:1.0;"/><polygon fill="#2C3E50" points="372.63,93.3973,369.5506,99.9178,374.3851,105.2682,377.4645,98.7477,372.63,93.3973" style="stroke:#2C3E50;stroke-width:1.0;"/></g><!--reverse link Passerelle de communication to Alerte locale--><g id="link_Passerelle de communication_Alerte locale"><path codeLine="64" d="M397.1958,101.2579 C435.5558,135.7279 512,214.8973 512,308.1973 C512,308.1973 512,308.1973 512,434.1973 C512,562.4273 356.98,627.4073 246.02,657.4973 " fill="none" id="Passerelle de communication-backto-Alerte locale" style="stroke:#2C3E50;stroke-width:1.0;"/><polygon fill="#2C3E50" points="388.27,93.2373,390.0593,100.2228,397.1958,101.2579,395.4064,94.2723,388.27,93.2373" style="stroke:#2C3E50;stroke-width:1.0;"/></g><!--SRC=[ZLHDZn914BtFh-ZWmKI3- -7kkYQ4P611lHWZ9XxKGpDJCrJewPvqzx2YyLVu9-GtU2J-Bwk7HcU77i8S253llNhrgi0iKPPSyuAbaF5AsAcIzYqlWCKQkOXCg3x3Ry0kBXh5H71ZHZnPvbfLCXqheJHxD8cdLzFH0Kpf5BI7N8vVZ4OtOSY71IPB2SQmYsVN3KYijRh_nty-kJvl5Cs2f-eUPSuoBWmqAYNPupaSkhmbdpS1ODFdLNmLtyHTe2wd7bHdPjS2s5o9jACUpZIsLkEyiWtCUHlp6ZXvE9XhV3sE9o_Ru9a53Sgkomx50kNOuJvYQXViyh9Py-fQWcQtKRJ051WKfLsp0eevQ1D55YsDEPWFxv3dnA538j3TTfEXH8jAkeyZeHB3-kmTzI4tGjIWH1L59J7X3ZOucmy_om4EYKg5KfaTErCoSMzapK99qqWWgTdQsEqlwZRXrMpxMyFW38THL8_CUaSQzTXWC2S_oo71_JvOR-hRc7qBqziV2liUHOnvuLTWQbjTaWHcz3nbXAuqnIOuqpGHb3uBmr8QPhjnRoec__oiKiyek6ijiUO8v6Y8m5UGkC-bu1OofGiWz8-6eVSW2Fb0E6WdMG1jsXbgMbZH3W_a7Jwd_Klhl3mcLzjDhf5U7_gt13456Z0jJxEg1Br2uoQcuGtmAkI90be1qevSb-t6SkkMHMuIjsvQnyhrzE2K0FIT7w1UagxAtSeSQvTNoyWR1yju0e4SGuvSWTjsIAMgT30a3Gci5ExWP3h3lDBSUq9ZAS63R68Qrv9VbN0Hz60mbrnu3rogWWk4UiPztYvN3vRAOeO41Zf9NgFAMh- -UahnA_uFfUjutTF_H3_k5EGN-Y-L_V1PEOdWkVcdhH4w0wSHF8yEZQCRT6B7LzoMUvX-554kn_yhdlGzCvpTgUnWd2ToWp6Uo3qUtuaYhT3-0W00]--></g></svg>