<?xml version="1.0" encoding="us-ascii" standalone="no"?><svg xmlns="http://www.w3.org/2000/svg" xmlns:xlink="http://www.w3.org/1999/xlink" contentStyleType="text/css" height="612px" preserveAspectRatio="none" style="width:446px;height:612px;background:#FFFFFF;" version="1.1" viewBox="0 0 446 612" width="446px" zoomAndPan="magnify"><defs/><g><text fill="#000000" font-family="Arial" font-size="14" font-weight="bold" lengthAdjust="spacing" textLength="403" x="14.5" y="23.1318">Diagramme de D&#233;finition de Blocs - Application utilisateur</text><text fill="#000000" font-family="Arial" font-size="14" font-style="italic" font-weight="bold" lengthAdjust="spacing" textLength="376" x="28" y="39.2305">D&#233;composition fonctionnelle interne - Syst&#232;me EauS&#251;re</text><!--cluster Fonctions internes--><g id="cluster_Fonctions internes"><path d="M10,122.1973 L112,122.1973 A6,6 0 0 1 116,126.1973 L123,140.8462 L260,140.8462 A4,4 0 0 1 264,144.8462 L264,601.1973 A4,4 0 0 1 260,605.1973 L10,605.1973 A4,4 0 0 1 6,601.1973 L6,126.1973 A4,4 0 0 1 10,122.1973 " fill="#FFEBEE" style="stroke:#4A4A6A;stroke-width:1.5;"/><line style="stroke:#4A4A6A;stroke-width:1.5;" x1="6" x2="123" y1="140.8462" y2="140.8462"/><text fill="#000000" font-family="Arial" font-size="11" font-weight="bold" lengthAdjust="spacing" textLength="104" x="10" y="134.5151">Fonctions internes</text></g><!--class Authentification utilisateur--><g id="elem_Authentification utilisateur"><rect codeLine="28" fill="#FCE4EC" height="63.9961" id="Authentification utilisateur" rx="4" ry="4" style="stroke:#C62828;stroke-width:1.5;" width="220" x="22" y="153.1973"/><rect fill="#FFCDD2" height="32.998" rx="4" ry="4" style="stroke:#FFCDD2;stroke-width:1.5;" width="220" x="22" y="153.1973"/><rect fill="#FFCDD2" height="4" style="stroke:#FFCDD2;stroke-width:1.5;" width="220" x="22" y="182.1953"/><rect codeLine="28" fill="none" height="63.9961" id="Authentification utilisateur" rx="4" ry="4" style="stroke:#C62828;stroke-width:1.5;" width="220" x="22" y="153.1973"/><ellipse cx="65.75" cy="169.6963" fill="#ADD1B2" rx="9" ry="9" style="stroke:#181818;stroke-width:1.0;"/><path d="M67.2813,166.9619 Q67.375,166.8213 67.5,166.7588 Q67.625,166.6807 67.7656,166.6807 Q68,166.6807 68.1563,166.8525 Q68.3125,167.0244 68.3125,167.415 L68.3125,168.3525 Q68.3125,168.7432 68.1563,168.915 Q68,169.0869 67.7656,169.0869 Q67.5469,169.0869 67.4063,168.9619 Q67.2656,168.8369 67.2031,168.5088 Q67.1719,168.2744 67.0625,168.1494 Q66.8438,167.915 66.4375,167.7744 Q66.0469,167.6182 65.6563,167.6182 Q65.1563,167.6182 64.7344,167.8369 Q64.3281,168.0557 64,168.54 Q63.6875,169.0244 63.6875,169.6807 L63.6875,170.3994 Q63.6875,171.1963 64.2656,171.7275 Q64.8438,172.2588 65.875,172.2588 Q66.4844,172.2588 66.9063,172.0869 Q67.1563,171.9932 67.4375,171.7119 Q67.6094,171.54 67.7031,171.4932 Q67.7969,171.4307 67.9219,171.4307 Q68.1406,171.4307 68.3125,171.6025 Q68.4844,171.7744 68.4844,171.9932 Q68.4844,172.2119 68.25,172.4775 Q67.9219,172.8525 67.4063,173.0713 Q66.7188,173.3525 65.875,173.3525 Q64.9063,173.3525 64.125,172.9619 Q63.4844,172.6338 63.0313,171.9463 Q62.5938,171.2432 62.5938,170.415 L62.5938,169.665 Q62.5938,168.8057 62.9844,168.0713 Q63.3906,167.3213 64.0938,166.9307 Q64.8125,166.5244 65.6094,166.5244 Q66.0781,166.5244 66.5,166.6338 Q66.9219,166.7432 67.2813,166.9619 Z " fill="#000000"/><text fill="#000000" font-family="Arial" font-size="10" font-style="italic" lengthAdjust="spacing" textLength="37" x="127.25" y="167.5771">&#171;block&#187;</text><text fill="#000000" font-family="Arial" font-size="10" lengthAdjust="spacing" textLength="125" x="83.25" y="179.0762">Authentification utilisateur</text><line style="stroke:#C62828;stroke-width:1.5;" x1="23" x2="241" y1="186.1953" y2="186.1953"/><ellipse cx="33" cy="197.4448" fill="none" rx="3" ry="3" style="stroke:#038048;stroke-width:1.0;"/><text fill="#000000" font-family="Arial" font-size="10" lengthAdjust="spacing" textLength="145" x="40" y="199.5752">v&#233;rifier l'identit&#233; de l'utilisateur</text><ellipse cx="33" cy="208.9438" fill="none" rx="3" ry="3" style="stroke:#038048;stroke-width:1.0;"/><text fill="#000000" font-family="Arial" font-size="10" lengthAdjust="spacing" textLength="167" x="40" y="211.0742">g&#233;rer la session et les droits d'acc&#232;s</text></g><!--class Visualisation des donn?es--><g id="elem_Visualisation des donn&#233;es"><rect codeLine="33" fill="#FCE4EC" height="63.9961" id="Visualisation des donn&#233;es" rx="4" ry="4" style="stroke:#C62828;stroke-width:1.5;" width="225" x="22.5" y="277.1973"/><rect fill="#FFCDD2" height="32.998" rx="4" ry="4" style="stroke:#FFCDD2;stroke-width:1.5;" width="225" x="22.5" y="277.1973"/><rect fill="#FFCDD2" height="4" style="stroke:#FFCDD2;stroke-width:1.5;" width="225" x="22.5" y="306.1953"/><rect codeLine="33" fill="none" height="63.9961" id="Visualisation des donn&#233;es" rx="4" ry="4" style="stroke:#C62828;stroke-width:1.5;" width="225" x="22.5" y="277.1973"/><ellipse cx="70.25" cy="293.6963" fill="#ADD1B2" rx="9" ry="9" style="stroke:#181818;stroke-width:1.0;"/><path d="M71.7813,290.9619 Q71.875,290.8213 72,290.7588 Q72.125,290.6807 72.2656,290.6807 Q72.5,290.6807 72.6563,290.8525 Q72.8125,291.0244 72.8125,291.415 L72.8125,292.3525 Q72.8125,292.7432 72.6563,292.915 Q72.5,293.0869 72.2656,293.0869 Q72.0469,293.0869 71.9063,292.9619 Q71.7656,292.8369 71.7031,292.5088 Q71.6719,292.2744 71.5625,292.1494 Q71.3438,291.915 70.9375,291.7744 Q70.5469,291.6182 70.1563,291.6182 Q69.6563,291.6182 69.2344,291.8369 Q68.8281,292.0557 68.5,292.54 Q68.1875,293.0244 68.1875,293.6807 L68.1875,294.3994 Q68.1875,295.1963 68.7656,295.7275 Q69.3438,296.2588 70.375,296.2588 Q70.9844,296.2588 71.4063,296.0869 Q71.6563,295.9932 71.9375,295.7119 Q72.1094,295.54 72.2031,295.4932 Q72.2969,295.4307 72.4219,295.4307 Q72.6406,295.4307 72.8125,295.6025 Q72.9844,295.7744 72.9844,295.9932 Q72.9844,296.2119 72.75,296.4775 Q72.4219,296.8525 71.9063,297.0713 Q71.2188,297.3525 70.375,297.3525 Q69.4063,297.3525 68.625,296.9619 Q67.9844,296.6338 67.5313,295.9463 Q67.0938,295.2432 67.0938,294.415 L67.0938,293.665 Q67.0938,292.8057 67.4844,292.0713 Q67.8906,291.3213 68.5938,290.9307 Q69.3125,290.5244 70.1094,290.5244 Q70.5781,290.5244 71,290.6338 Q71.4219,290.7432 71.7813,290.9619 Z " fill="#000000"/><text fill="#000000" font-family="Arial" font-size="10" font-style="italic" lengthAdjust="spacing" textLength="37" x="130.25" y="291.5771">&#171;block&#187;</text><text fill="#000000" font-family="Arial" font-size="10" lengthAdjust="spacing" textLength="122" x="87.75" y="303.0762">Visualisation des donn&#233;es</text><line style="stroke:#C62828;stroke-width:1.5;" x1="23.5" x2="246.5" y1="310.1953" y2="310.1953"/><ellipse cx="33.5" cy="321.4448" fill="none" rx="3" ry="3" style="stroke:#038048;stroke-width:1.0;"/><text fill="#000000" font-family="Arial" font-size="10" lengthAdjust="spacing" textLength="160" x="40.5" y="323.5752">afficher les mesures en temps r&#233;el</text><ellipse cx="33.5" cy="332.9438" fill="none" rx="3" ry="3" style="stroke:#038048;stroke-width:1.0;"/><text fill="#000000" font-family="Arial" font-size="10" lengthAdjust="spacing" textLength="201" x="40.5" y="335.0742">pr&#233;senter l'historique sous forme graphique</text></g><!--class Gestion des alertes--><g id="elem_Gestion des alertes"><rect codeLine="38" fill="#FCE4EC" height="63.9961" id="Gestion des alertes" rx="4" ry="4" style="stroke:#C62828;stroke-width:1.5;" width="220" x="28" y="401.1973"/><rect fill="#FFCDD2" height="32.998" rx="4" ry="4" style="stroke:#FFCDD2;stroke-width:1.5;" width="220" x="28" y="401.1973"/><rect fill="#FFCDD2" height="4" style="stroke:#FFCDD2;stroke-width:1.5;" width="220" x="28" y="430.1953"/><rect codeLine="38" fill="none" height="63.9961" id="Gestion des alertes" rx="4" ry="4" style="stroke:#C62828;stroke-width:1.5;" width="220" x="28" y="401.1973"/><ellipse cx="89.75" cy="417.6963" fill="#ADD1B2" rx="9" ry="9" style="stroke:#181818;stroke-width:1.0;"/><path d="M91.2813,414.9619 Q91.375,414.8213 91.5,414.7588 Q91.625,414.6807 91.7656,414.6807 Q92,414.6807 92.1563,414.8525 Q92.3125,415.0244 92.3125,415.415 L92.3125,416.3525 Q92.3125,416.7432 92.1563,416.915 Q92,417.0869 91.7656,417.0869 Q91.5469,417.0869 91.4063,416.9619 Q91.2656,416.8369 91.2031,416.5088 Q91.1719,416.2744 91.0625,416.1494 Q90.8438,415.915 90.4375,415.7744 Q90.0469,415.6182 89.6563,415.6182 Q89.1563,415.6182 88.7344,415.8369 Q88.3281,416.0557 88,416.54 Q87.6875,417.0244 87.6875,417.6807 L87.6875,418.3994 Q87.6875,419.1963 88.2656,419.7275 Q88.8438,420.2588 89.875,420.2588 Q90.4844,420.2588 90.9063,420.0869 Q91.1563,419.9932 91.4375,419.7119 Q91.6094,419.54 91.7031,419.4932 Q91.7969,419.4307 91.9219,419.4307 Q92.1406,419.4307 92.3125,419.6025 Q92.4844,419.7744 92.4844,419.9932 Q92.4844,420.2119 92.25,420.4775 Q91.9219,420.8525 91.4063,421.0713 Q90.7188,421.3525 89.875,421.3525 Q88.9063,421.3525 88.125,420.9619 Q87.4844,420.6338 87.0313,419.9463 Q86.5938,419.2432 86.5938,418.415 L86.5938,417.665 Q86.5938,416.8057 86.9844,416.0713 Q87.3906,415.3213 88.0938,414.9307 Q88.8125,414.5244 89.6094,414.5244 Q90.0781,414.5244 90.5,414.6338 Q90.9219,414.7432 91.2813,414.9619 Z " fill="#000000"/><text fill="#000000" font-family="Arial" font-size="10" font-style="italic" lengthAdjust="spacing" textLength="37" x="133.25" y="415.5771">&#171;block&#187;</text><text fill="#000000" font-family="Arial" font-size="10" lengthAdjust="spacing" textLength="89" x="107.25" y="427.0762">Gestion des alertes</text><line style="stroke:#C62828;stroke-width:1.5;" x1="29" x2="247" y1="434.1953" y2="434.1953"/><ellipse cx="39" cy="445.4448" fill="none" rx="3" ry="3" style="stroke:#038048;stroke-width:1.0;"/><text fill="#000000" font-family="Arial" font-size="10" lengthAdjust="spacing" textLength="166" x="46" y="447.5752">recevoir et afficher les notifications</text><ellipse cx="39" cy="456.9438" fill="none" rx="3" ry="3" style="stroke:#038048;stroke-width:1.0;"/><text fill="#000000" font-family="Arial" font-size="10" lengthAdjust="spacing" textLength="169" x="46" y="459.0742">permettre l'acquittement des alertes</text></g><!--class Gestion des param?tres--><g id="elem_Gestion des param&#232;tres"><rect codeLine="43" fill="#FCE4EC" height="63.9961" id="Gestion des param&#232;tres" rx="4" ry="4" style="stroke:#C62828;stroke-width:1.5;" width="220" x="28" y="525.1973"/><rect fill="#FFCDD2" height="32.998" rx="4" ry="4" style="stroke:#FFCDD2;stroke-width:1.5;" width="220" x="28" y="525.1973"/><rect fill="#FFCDD2" height="4" style="stroke:#FFCDD2;stroke-width:1.5;" width="220" x="28" y="554.1953"/><rect codeLine="43" fill="none" height="63.9961" id="Gestion des param&#232;tres" rx="4" ry="4" style="stroke:#C62828;stroke-width:1.5;" width="220" x="28" y="525.1973"/><ellipse cx="79.25" cy="541.6963" fill="#ADD1B2" rx="9" ry="9" style="stroke:#181818;stroke-width:1.0;"/><path d="M80.7813,538.9619 Q80.875,538.8213 81,538.7588 Q81.125,538.6807 81.2656,538.6807 Q81.5,538.6807 81.6563,538.8525 Q81.8125,539.0244 81.8125,539.415 L81.8125,540.3525 Q81.8125,540.7432 81.6563,540.915 Q81.5,541.0869 81.2656,541.0869 Q81.0469,541.0869 80.9063,540.9619 Q80.7656,540.8369 80.7031,540.5088 Q80.6719,540.2744 80.5625,540.1494 Q80.3438,539.915 79.9375,539.7744 Q79.5469,539.6182 79.1563,539.6182 Q78.6563,539.6182 78.2344,539.8369 Q77.8281,540.0557 77.5,540.54 Q77.1875,541.0244 77.1875,541.6807 L77.1875,542.3994 Q77.1875,543.1963 77.7656,543.7275 Q78.3438,544.2588 79.375,544.2588 Q79.9844,544.2588 80.4063,544.0869 Q80.6563,543.9932 80.9375,543.7119 Q81.1094,543.54 81.2031,543.4932 Q81.2969,543.4307 81.4219,543.4307 Q81.6406,543.4307 81.8125,543.6025 Q81.9844,543.7744 81.9844,543.9932 Q81.9844,544.2119 81.75,544.4775 Q81.4219,544.8525 80.9063,545.0713 Q80.2188,545.3525 79.375,545.3525 Q78.4063,545.3525 77.625,544.9619 Q76.9844,544.6338 76.5313,543.9463 Q76.0938,543.2432 76.0938,542.415 L76.0938,541.665 Q76.0938,540.8057 76.4844,540.0713 Q76.8906,539.3213 77.5938,538.9307 Q78.3125,538.5244 79.1094,538.5244 Q79.5781,538.5244 80,538.6338 Q80.4219,538.7432 80.7813,538.9619 Z " fill="#000000"/><text fill="#000000" font-family="Arial" font-size="10" font-style="italic" lengthAdjust="spacing" textLength="37" x="133.25" y="539.5771">&#171;block&#187;</text><text fill="#000000" font-family="Arial" font-size="10" lengthAdjust="spacing" textLength="110" x="96.75" y="551.0762">Gestion des param&#232;tres</text><line style="stroke:#C62828;stroke-width:1.5;" x1="29" x2="247" y1="558.1953" y2="558.1953"/><ellipse cx="39" cy="569.4448" fill="none" rx="3" ry="3" style="stroke:#038048;stroke-width:1.0;"/><text fill="#000000" font-family="Arial" font-size="10" lengthAdjust="spacing" textLength="171" x="46" y="571.5752">configurer les pr&#233;f&#233;rences utilisateur</text><ellipse cx="39" cy="580.9438" fill="none" rx="3" ry="3" style="stroke:#038048;stroke-width:1.0;"/><text fill="#000000" font-family="Arial" font-size="10" lengthAdjust="spacing" textLength="179" x="46" y="583.0742">d&#233;finir les seuils d'alerte personnalis&#233;s</text></g><!--class Application utilisateur--><g id="elem_Application utilisateur"><rect codeLine="24" fill="#FCE4EC" height="32.998" id="Application utilisateur" rx="4" ry="4" style="stroke:#C62828;stroke-width:1.5;" width="220" x="220" y="60.1973"/><rect fill="#FFCDD2" height="32.998" rx="4" ry="4" style="stroke:#FFCDD2;stroke-width:1.5;" width="220" x="220" y="60.1973"/><rect fill="#FFCDD2" height="4" style="stroke:#FFCDD2;stroke-width:1.5;" width="220" x="220" y="89.1953"/><rect codeLine="24" fill="none" height="32.998" id="Application utilisateur" rx="4" ry="4" style="stroke:#C62828;stroke-width:1.5;" width="220" x="220" y="60.1973"/><ellipse cx="274.25" cy="76.6963" fill="#ADD1B2" rx="9" ry="9" style="stroke:#181818;stroke-width:1.0;"/><path d="M275.7813,73.9619 Q275.875,73.8213 276,73.7588 Q276.125,73.6807 276.2656,73.6807 Q276.5,73.6807 276.6563,73.8525 Q276.8125,74.0244 276.8125,74.415 L276.8125,75.3525 Q276.8125,75.7432 276.6563,75.915 Q276.5,76.0869 276.2656,76.0869 Q276.0469,76.0869 275.9063,75.9619 Q275.7656,75.8369 275.7031,75.5088 Q275.6719,75.2744 275.5625,75.1494 Q275.3438,74.915 274.9375,74.7744 Q274.5469,74.6182 274.1563,74.6182 Q273.6563,74.6182 273.2344,74.8369 Q272.8281,75.0557 272.5,75.54 Q272.1875,76.0244 272.1875,76.6807 L272.1875,77.3994 Q272.1875,78.1963 272.7656,78.7275 Q273.3438,79.2588 274.375,79.2588 Q274.9844,79.2588 275.4063,79.0869 Q275.6563,78.9932 275.9375,78.7119 Q276.1094,78.54 276.2031,78.4932 Q276.2969,78.4307 276.4219,78.4307 Q276.6406,78.4307 276.8125,78.6025 Q276.9844,78.7744 276.9844,78.9932 Q276.9844,79.2119 276.75,79.4775 Q276.4219,79.8525 275.9063,80.0713 Q275.2188,80.3525 274.375,80.3525 Q273.4063,80.3525 272.625,79.9619 Q271.9844,79.6338 271.5313,78.9463 Q271.0938,78.2432 271.0938,77.415 L271.0938,76.665 Q271.0938,75.8057 271.4844,75.0713 Q271.8906,74.3213 272.5938,73.9307 Q273.3125,73.5244 274.1094,73.5244 Q274.5781,73.5244 275,73.6338 Q275.4219,73.7432 275.7813,73.9619 Z " fill="#000000"/><text fill="#000000" font-family="Arial" font-size="10" font-style="italic" lengthAdjust="spacing" textLength="37" x="325.25" y="74.5771">&#171;block&#187;</text><text fill="#000000" font-family="Arial" font-size="10" lengthAdjust="spacing" textLength="104" x="291.75" y="86.0762">Application utilisateur</text></g><!--link Authentification utilisateur to Visualisation des donn?es--><!--link Visualisation des donn?es to Gestion des alertes--><!--link Gestion des alertes to Gestion des param?tres--><!--reverse link Application utilisateur to Authentification utilisateur--><g id="link_Application utilisateur_Authentification utilisateur"><path codeLine="54" d="M290.2133,99.0945 C261.1733,114.7245 226.39,133.4273 190.01,152.9973 " fill="none" id="Application utilisateur-backto-Authentification utilisateur" style="stroke:#2C3E50;stroke-width:1.0;"/><polygon fill="#2C3E50" points="300.78,93.4073,293.6009,92.7287,290.2133,99.0945,297.3924,99.7731,300.78,93.4073" style="stroke:#2C3E50;stroke-width:1.0;"/></g><!--reverse link Application utilisateur to Visualisation des donn?es--><g id="link_Application utilisateur_Visualisation des donn&#233;es"><path codeLine="55" d="M321.0186,104.6819 C311.5786,132.0619 293.12,178.1373 260,217.1973 C240.12,240.6373 213.02,261.3173 189.13,277.0073 " fill="none" id="Application utilisateur-backto-Visualisation des donn&#233;es" style="stroke:#2C3E50;stroke-width:1.0;"/><polygon fill="#2C3E50" points="324.93,93.3373,319.1928,97.7058,321.0186,104.6819,326.7559,100.3134,324.93,93.3373" style="stroke:#2C3E50;stroke-width:1.0;"/></g><!--reverse link Application utilisateur to Gestion des alertes--><g id="link_Application utilisateur_Gestion des alertes"><path codeLine="56" d="M330.4175,105.2271 C330.6275,149.0671 325.59,263.5673 265,341.1973 C246.23,365.2573 219.43,385.7373 195.28,401.1473 " fill="none" id="Application utilisateur-backto-Gestion des alertes" style="stroke:#2C3E50;stroke-width:1.0;"/><polygon fill="#2C3E50" points="330.36,93.2273,326.3888,99.2464,330.4175,105.2271,334.3887,99.208,330.36,93.2273" style="stroke:#2C3E50;stroke-width:1.0;"/></g><!--reverse link Application utilisateur to Gestion des param?tres--><g id="link_Application utilisateur_Gestion des param&#232;tres"><path codeLine="57" d="M346.9276,103.6408 C350.6076,109.8508 348.14,106.9173 350,114.1973 C361.35,158.5473 357.44,172.0273 350,217.1973 C331.08,332.0273 335.47,371.8273 266,465.1973 C247.93,489.4773 221.47,509.8073 197.29,525.0573 " fill="none" id="Application utilisateur-backto-Gestion des param&#232;tres" style="stroke:#2C3E50;stroke-width:1.0;"/><polygon fill="#2C3E50" points="340.81,93.3173,340.4276,100.5182,346.9276,103.6408,347.31,96.4398,340.81,93.3173" style="stroke:#2C3E50;stroke-width:1.0;"/></g><!--SRC=[bLJ1Rjf04BtxArRqWDIA9g59b0D28c3QKozKxQ7jOR77UCHwrzbP9w9L_oTyGu_-iSuQapfWtDGNO- -RDs_U6qDhrBcqCXCn9B9GRcwq-oWp41EBKWNKThx07o0kBXg7aP94jp9QhwmfT3mrobZnQZuDByFf4SpO66mDcLuFRuOtxP1FAKPh3KJYukrL0pAnrZpKzSFfk_3gl758gOpD0-gLIAGYQ9paB4-ku5ZbFBmDmnPWK-Vbv79oFJa5EgMq1bMUkOq2iJGgFd7Uxkd4EOlBmZKmvuUO3o1PGyjSqzbiU0XUEB1Wt2O_mPYXddhS5unTAeR3vbdDRZLOSHC4ASOW8ClTHcIGBS5I43XqFEPeEPwXN74DBnA3PkKsGOqEZVQFjyf490PYakSA8rczBXmg9EcWiAEpvVYR7k6OooAJvOPsbOdHaV-XGN4Fr3o91gPPRCYLZzmfbCMY_6rXT8RZ8AZ65RqJJNfYD5goZlMOeNKEeZUlMz2Uddhx1H4_Wq28FMdXKj0EasvchX5ylH7tvTOoc7rJVNQDArsvzLQeVgEo1gyOx95I4A-KPmSd5928hK77jxwCelAH6FwheUapKY4hgftD36IlogsVuLYHJ5XxwjimC0CgBDz12yU1ah1SfcfapWy4tWvMco8vO_6k046c8Cx4il6ST9xwbmUItWCzYP4Ah6lNOY62UuFMp_bCbpP_BQQz7E2E_5LuxsHqLw1ZoIolsQH3HhN9vIFNjqg9Z4vmLTXQW9yzyN7eY9-EeuftYxq34nIegdWg5LufSG8-4tPmh-aVkpFuofyLRyXt_XVJWyvKFLbNw7mTihK5ucbQWtgwkbYQVWO1JtZwWtizgEix7NW9GPSfBoXlTU4_wvxD_GS0]--></g></svg>