<?xml version="1.0" encoding="us-ascii" standalone="no"?><svg xmlns="http://www.w3.org/2000/svg" xmlns:xlink="http://www.w3.org/1999/xlink" contentStyleType="text/css" height="411px" preserveAspectRatio="none" style="width:713px;height:411px;background:#FFFFFF;" version="1.1" viewBox="0 0 713 411" width="713px" zoomAndPan="magnify"><defs/><g><text fill="#000000" font-family="Arial" font-size="14" font-weight="bold" lengthAdjust="spacing" textLength="335" x="182" y="23.1318">Diagramme de D&#233;finition de Blocs - Vue Globale</text><text fill="#000000" font-family="Arial" font-size="14" font-style="italic" font-weight="bold" lengthAdjust="spacing" textLength="462" x="118.5" y="39.2305">Syst&#232;me EauS&#251;re - Surveillance de la qualit&#233; de l'eau en milieu rural</text><!--cluster Syst?me EauS?re--><g id="cluster_Syst&#232;me EauS&#251;re"><path d="M8.5,59.1973 L110.5,59.1973 A3.75,3.75 0 0 1 113,61.6973 L120,78.9961 L703.5,78.9961 A2.5,2.5 0 0 1 706,81.4961 L706,271.6973 A2.5,2.5 0 0 1 703.5,274.1973 L8.5,274.1973 A2.5,2.5 0 0 1 6,271.6973 L6,61.6973 A2.5,2.5 0 0 1 8.5,59.1973 " fill="#DDEEFF" style="stroke:#4A4A6A;stroke-width:1.5;"/><line style="stroke:#4A4A6A;stroke-width:1.5;" x1="6" x2="120" y1="78.9961" y2="78.9961"/><text fill="#000000" font-family="Arial" font-size="12" font-weight="bold" lengthAdjust="spacing" textLength="101" x="10" y="72.4531">Syst&#232;me EauS&#251;re</text></g><!--class EauS?re--><g id="elem_EauS&#251;re"><rect codeLine="24" fill="#EAF4FB" height="36.4478" id="EauS&#251;re" rx="2.5" ry="2.5" style="stroke:#2C7BB6;stroke-width:1.5;" width="79" x="325.5" y="91.1973"/><ellipse cx="339.5" cy="109.4211" fill="#ADD1B2" rx="10" ry="10" style="stroke:#181818;stroke-width:1.0;"/><path d="M340.9844,106.6243 Q341.0938,106.468 341.2188,106.3899 Q341.3594,106.3118 341.5156,106.3118 Q341.7813,106.3118 341.9375,106.4993 Q342.1094,106.6868 342.1094,107.1086 L342.1094,108.1399 Q342.1094,108.5618 341.9375,108.7493 Q341.7813,108.9368 341.5156,108.9368 Q341.2656,108.9368 341.125,108.7961 Q340.9844,108.6711 340.9063,108.2961 Q340.875,108.0461 340.75,107.9211 Q340.5,107.6555 340.0625,107.4993 Q339.6406,107.343 339.2031,107.343 Q338.6719,107.343 338.2188,107.5774 Q337.7656,107.8118 337.4219,108.343 Q337.0781,108.8586 337.0781,109.593 L337.0781,110.3743 Q337.0781,111.2336 337.7031,111.8118 Q338.3438,112.3899 339.4531,112.3899 Q340.125,112.3899 340.5938,112.218 Q340.8594,112.1086 341.1563,111.7961 Q341.3438,111.6086 341.4531,111.5618 Q341.5625,111.4993 341.6875,111.4993 Q341.9375,111.4993 342.1094,111.6868 Q342.2969,111.8586 342.2969,112.1086 Q342.2969,112.3586 342.0469,112.6399 Q341.6875,113.0461 341.125,113.2805 Q340.375,113.593 339.4688,113.593 Q338.3906,113.593 337.5469,113.1555 Q336.8438,112.8118 336.3594,112.0461 Q335.875,111.2805 335.875,110.3899 L335.875,109.5774 Q335.875,108.6399 336.3125,107.8274 Q336.75,107.0149 337.5156,106.5774 Q338.2969,106.1399 339.1563,106.1399 Q339.6875,106.1399 340.1406,106.2649 Q340.5938,106.3743 340.9844,106.6243 Z " fill="#000000"/><text fill="#000000" font-family="Arial" font-size="12" font-style="italic" lengthAdjust="spacing" textLength="53" x="350.5" y="107.4531">&#171;system&#187;</text><text fill="#000000" font-family="Arial" font-size="11" lengthAdjust="spacing" textLength="41" x="356.5" y="120.314">EauS&#251;re</text></g><!--class N?ud de mesure--><g id="elem_N&#339;ud de mesure"><rect codeLine="27" fill="#EAF4FB" height="69.7456" id="N&#339;ud de mesure" rx="2.5" ry="2.5" style="stroke:#2C7BB6;stroke-width:1.5;" width="216" x="22" y="188.1973"/><ellipse cx="84.5" cy="206.4211" fill="#ADD1B2" rx="10" ry="10" style="stroke:#181818;stroke-width:1.0;"/><path d="M85.9844,203.6243 Q86.0938,203.468 86.2188,203.3899 Q86.3594,203.3118 86.5156,203.3118 Q86.7813,203.3118 86.9375,203.4993 Q87.1094,203.6868 87.1094,204.1086 L87.1094,205.1399 Q87.1094,205.5618 86.9375,205.7493 Q86.7813,205.9368 86.5156,205.9368 Q86.2656,205.9368 86.125,205.7961 Q85.9844,205.6711 85.9063,205.2961 Q85.875,205.0461 85.75,204.9211 Q85.5,204.6555 85.0625,204.4993 Q84.6406,204.343 84.2031,204.343 Q83.6719,204.343 83.2188,204.5774 Q82.7656,204.8118 82.4219,205.343 Q82.0781,205.8586 82.0781,206.593 L82.0781,207.3743 Q82.0781,208.2336 82.7031,208.8118 Q83.3438,209.3899 84.4531,209.3899 Q85.125,209.3899 85.5938,209.218 Q85.8594,209.1086 86.1563,208.7961 Q86.3438,208.6086 86.4531,208.5618 Q86.5625,208.4993 86.6875,208.4993 Q86.9375,208.4993 87.1094,208.6868 Q87.2969,208.8586 87.2969,209.1086 Q87.2969,209.3586 87.0469,209.6399 Q86.6875,210.0461 86.125,210.2805 Q85.375,210.593 84.4688,210.593 Q83.3906,210.593 82.5469,210.1555 Q81.8438,209.8118 81.3594,209.0461 Q80.875,208.2805 80.875,207.3899 L80.875,206.5774 Q80.875,205.6399 81.3125,204.8274 Q81.75,204.0149 82.5156,203.5774 Q83.2969,203.1399 84.1563,203.1399 Q84.6875,203.1399 85.1406,203.2649 Q85.5938,203.3743 85.9844,203.6243 Z " fill="#000000"/><text fill="#000000" font-family="Arial" font-size="12" font-style="italic" lengthAdjust="spacing" textLength="45" x="122.5" y="204.4531">&#171;block&#187;</text><text fill="#000000" font-family="Arial" font-size="11" lengthAdjust="spacing" textLength="83" x="103.5" y="217.314">N&#339;ud de mesure</text><line style="stroke:#2C7BB6;stroke-width:1.5;" x1="23" x2="237" y1="224.645" y2="224.645"/><ellipse cx="33" cy="236.4695" fill="none" rx="3" ry="3" style="stroke:#038048;stroke-width:1.0;"/><text fill="#000000" font-family="Arial" font-size="11" lengthAdjust="spacing" textLength="191" x="41" y="238.9629">collecte de donn&#233;es environnementales</text><ellipse cx="33" cy="249.1184" fill="none" rx="3" ry="3" style="stroke:#038048;stroke-width:1.0;"/><text fill="#000000" font-family="Arial" font-size="11" lengthAdjust="spacing" textLength="180" x="41" y="251.6118">transmission p&#233;riodique des mesures</text></g><!--class Passerelle de communication--><g id="elem_Passerelle de communication"><rect codeLine="32" fill="#EAF4FB" height="69.7456" id="Passerelle de communication" rx="2.5" ry="2.5" style="stroke:#2C7BB6;stroke-width:1.5;" width="184" x="273" y="188.1973"/><ellipse cx="293.75" cy="206.4211" fill="#ADD1B2" rx="10" ry="10" style="stroke:#181818;stroke-width:1.0;"/><path d="M295.2344,203.6243 Q295.3438,203.468 295.4688,203.3899 Q295.6094,203.3118 295.7656,203.3118 Q296.0313,203.3118 296.1875,203.4993 Q296.3594,203.6868 296.3594,204.1086 L296.3594,205.1399 Q296.3594,205.5618 296.1875,205.7493 Q296.0313,205.9368 295.7656,205.9368 Q295.5156,205.9368 295.375,205.7961 Q295.2344,205.6711 295.1563,205.2961 Q295.125,205.0461 295,204.9211 Q294.75,204.6555 294.3125,204.4993 Q293.8906,204.343 293.4531,204.343 Q292.9219,204.343 292.4688,204.5774 Q292.0156,204.8118 291.6719,205.343 Q291.3281,205.8586 291.3281,206.593 L291.3281,207.3743 Q291.3281,208.2336 291.9531,208.8118 Q292.5938,209.3899 293.7031,209.3899 Q294.375,209.3899 294.8438,209.218 Q295.1094,209.1086 295.4063,208.7961 Q295.5938,208.6086 295.7031,208.5618 Q295.8125,208.4993 295.9375,208.4993 Q296.1875,208.4993 296.3594,208.6868 Q296.5469,208.8586 296.5469,209.1086 Q296.5469,209.3586 296.2969,209.6399 Q295.9375,210.0461 295.375,210.2805 Q294.625,210.593 293.7188,210.593 Q292.6406,210.593 291.7969,210.1555 Q291.0938,209.8118 290.6094,209.0461 Q290.125,208.2805 290.125,207.3899 L290.125,206.5774 Q290.125,205.6399 290.5625,204.8274 Q291,204.0149 291.7656,203.5774 Q292.5469,203.1399 293.4063,203.1399 Q293.9375,203.1399 294.3906,203.2649 Q294.8438,203.3743 295.2344,203.6243 Z " fill="#000000"/><text fill="#000000" font-family="Arial" font-size="12" font-style="italic" lengthAdjust="spacing" textLength="45" x="355.25" y="204.4531">&#171;block&#187;</text><text fill="#000000" font-family="Arial" font-size="11" lengthAdjust="spacing" textLength="139" x="308.25" y="217.314">Passerelle de communication</text><line style="stroke:#2C7BB6;stroke-width:1.5;" x1="274" x2="456" y1="224.645" y2="224.645"/><ellipse cx="284" cy="236.4695" fill="none" rx="3" ry="3" style="stroke:#038048;stroke-width:1.0;"/><text fill="#000000" font-family="Arial" font-size="11" lengthAdjust="spacing" textLength="157" x="292" y="238.9629">relais des donn&#233;es vers le cloud</text><ellipse cx="284" cy="249.1184" fill="none" rx="3" ry="3" style="stroke:#038048;stroke-width:1.0;"/><text fill="#000000" font-family="Arial" font-size="11" lengthAdjust="spacing" textLength="159" x="292" y="251.6118">gestion de la connectivit&#233; r&#233;seau</text></g><!--class Plateforme cloud--><g id="elem_Plateforme cloud"><rect codeLine="37" fill="#EAF4FB" height="69.7456" id="Plateforme cloud" rx="2.5" ry="2.5" style="stroke:#2C7BB6;stroke-width:1.5;" width="197" x="492.5" y="188.1973"/><ellipse cx="547" cy="206.4211" fill="#ADD1B2" rx="10" ry="10" style="stroke:#181818;stroke-width:1.0;"/><path d="M548.4844,203.6243 Q548.5938,203.468 548.7188,203.3899 Q548.8594,203.3118 549.0156,203.3118 Q549.2813,203.3118 549.4375,203.4993 Q549.6094,203.6868 549.6094,204.1086 L549.6094,205.1399 Q549.6094,205.5618 549.4375,205.7493 Q549.2813,205.9368 549.0156,205.9368 Q548.7656,205.9368 548.625,205.7961 Q548.4844,205.6711 548.4063,205.2961 Q548.375,205.0461 548.25,204.9211 Q548,204.6555 547.5625,204.4993 Q547.1406,204.343 546.7031,204.343 Q546.1719,204.343 545.7188,204.5774 Q545.2656,204.8118 544.9219,205.343 Q544.5781,205.8586 544.5781,206.593 L544.5781,207.3743 Q544.5781,208.2336 545.2031,208.8118 Q545.8438,209.3899 546.9531,209.3899 Q547.625,209.3899 548.0938,209.218 Q548.3594,209.1086 548.6563,208.7961 Q548.8438,208.6086 548.9531,208.5618 Q549.0625,208.4993 549.1875,208.4993 Q549.4375,208.4993 549.6094,208.6868 Q549.7969,208.8586 549.7969,209.1086 Q549.7969,209.3586 549.5469,209.6399 Q549.1875,210.0461 548.625,210.2805 Q547.875,210.593 546.9688,210.593 Q545.8906,210.593 545.0469,210.1555 Q544.3438,209.8118 543.8594,209.0461 Q543.375,208.2805 543.375,207.3899 L543.375,206.5774 Q543.375,205.6399 543.8125,204.8274 Q544.25,204.0149 545.0156,203.5774 Q545.7969,203.1399 546.6563,203.1399 Q547.1875,203.1399 547.6406,203.2649 Q548.0938,203.3743 548.4844,203.6243 Z " fill="#000000"/><text fill="#000000" font-family="Arial" font-size="12" font-style="italic" lengthAdjust="spacing" textLength="45" x="583.5" y="204.4531">&#171;block&#187;</text><text fill="#000000" font-family="Arial" font-size="11" lengthAdjust="spacing" textLength="80" x="566" y="217.314">Plateforme cloud</text><line style="stroke:#2C7BB6;stroke-width:1.5;" x1="493.5" x2="688.5" y1="224.645" y2="224.645"/><ellipse cx="503.5" cy="236.4695" fill="none" rx="3" ry="3" style="stroke:#038048;stroke-width:1.0;"/><text fill="#000000" font-family="Arial" font-size="11" lengthAdjust="spacing" textLength="172" x="511.5" y="238.9629">traitement et stockage des donn&#233;es</text><ellipse cx="503.5" cy="249.1184" fill="none" rx="3" ry="3" style="stroke:#038048;stroke-width:1.0;"/><text fill="#000000" font-family="Arial" font-size="11" lengthAdjust="spacing" textLength="108" x="511.5" y="251.6118">g&#233;n&#233;ration des alertes</text></g><!--class Application utilisateur--><g id="elem_Application utilisateur"><rect codeLine="44" fill="#EAF4FB" height="69.7456" id="Application utilisateur" rx="2.5" ry="2.5" style="stroke:#2C7BB6;stroke-width:1.5;" width="152" x="515" y="335.1973"/><ellipse cx="538" cy="353.4211" fill="#ADD1B2" rx="10" ry="10" style="stroke:#181818;stroke-width:1.0;"/><path d="M539.4844,350.6243 Q539.5938,350.468 539.7188,350.3899 Q539.8594,350.3118 540.0156,350.3118 Q540.2813,350.3118 540.4375,350.4993 Q540.6094,350.6868 540.6094,351.1086 L540.6094,352.1399 Q540.6094,352.5618 540.4375,352.7493 Q540.2813,352.9368 540.0156,352.9368 Q539.7656,352.9368 539.625,352.7961 Q539.4844,352.6711 539.4063,352.2961 Q539.375,352.0461 539.25,351.9211 Q539,351.6555 538.5625,351.4993 Q538.1406,351.343 537.7031,351.343 Q537.1719,351.343 536.7188,351.5774 Q536.2656,351.8118 535.9219,352.343 Q535.5781,352.8586 535.5781,353.593 L535.5781,354.3743 Q535.5781,355.2336 536.2031,355.8118 Q536.8438,356.3899 537.9531,356.3899 Q538.625,356.3899 539.0938,356.218 Q539.3594,356.1086 539.6563,355.7961 Q539.8438,355.6086 539.9531,355.5618 Q540.0625,355.4993 540.1875,355.4993 Q540.4375,355.4993 540.6094,355.6868 Q540.7969,355.8586 540.7969,356.1086 Q540.7969,356.3586 540.5469,356.6399 Q540.1875,357.0461 539.625,357.2805 Q538.875,357.593 537.9688,357.593 Q536.8906,357.593 536.0469,357.1555 Q535.3438,356.8118 534.8594,356.0461 Q534.375,355.2805 534.375,354.3899 L534.375,353.5774 Q534.375,352.6399 534.8125,351.8274 Q535.25,351.0149 536.0156,350.5774 Q536.7969,350.1399 537.6563,350.1399 Q538.1875,350.1399 538.6406,350.2649 Q539.0938,350.3743 539.4844,350.6243 Z " fill="#000000"/><text fill="#000000" font-family="Arial" font-size="12" font-style="italic" lengthAdjust="spacing" textLength="58" x="575" y="351.4531">&#171;external&#187;</text><text fill="#000000" font-family="Arial" font-size="11" lengthAdjust="spacing" textLength="102" x="553" y="364.314">Application utilisateur</text><line style="stroke:#2C7BB6;stroke-width:1.5;" x1="516" x2="666" y1="371.645" y2="371.645"/><ellipse cx="526" cy="383.4695" fill="none" rx="3" ry="3" style="stroke:#038048;stroke-width:1.0;"/><text fill="#000000" font-family="Arial" font-size="11" lengthAdjust="spacing" textLength="125" x="534" y="385.9629">visualisation des donn&#233;es</text><ellipse cx="526" cy="396.1184" fill="none" rx="3" ry="3" style="stroke:#038048;stroke-width:1.0;"/><text fill="#000000" font-family="Arial" font-size="11" lengthAdjust="spacing" textLength="127" x="534" y="398.6118">r&#233;ception des notifications</text></g><!--reverse link EauS?re to N?ud de mesure--><g id="link_EauS&#251;re_N&#339;ud de mesure"><path codeLine="49" d="M318.4768,132.3688 C284.7068,148.4588 243.87,167.9273 201.61,188.0673 " fill="none" id="EauS&#251;re-backto-N&#339;ud de mesure" style="stroke:#2C3E50;stroke-width:1.0;"/><polygon fill="#2C3E50" points="329.31,127.2073,322.1729,126.177,318.4768,132.3688,325.6139,133.3991,329.31,127.2073" style="stroke:#2C3E50;stroke-width:1.0;"/><text fill="#000000" font-family="Arial" font-size="12" lengthAdjust="spacing" textLength="7" x="310.3081" y="146.0231">1</text><text fill="#000000" font-family="Arial" font-size="12" lengthAdjust="spacing" textLength="18" x="196.5233" y="177.8456">1..*</text></g><!--reverse link EauS?re to Passerelle de communication--><g id="link_EauS&#251;re_Passerelle de communication"><path codeLine="50" d="M365,139.2073 C365,155.2373 365,167.7373 365,187.8373 " fill="none" id="EauS&#251;re-backto-Passerelle de communication" style="stroke:#2C3E50;stroke-width:1.0;"/><polygon fill="#2C3E50" points="365,127.2073,361,133.2073,365,139.2073,369,133.2073,365,127.2073" style="stroke:#2C3E50;stroke-width:1.0;"/><text fill="#000000" font-family="Arial" font-size="12" lengthAdjust="spacing" textLength="7" x="356.7969" y="146.9488">1</text><text fill="#000000" font-family="Arial" font-size="12" lengthAdjust="spacing" textLength="18" x="345.1438" y="177.5681">1..*</text></g><!--reverse link EauS?re to Plateforme cloud--><g id="link_EauS&#251;re_Plateforme cloud"><path codeLine="51" d="M410.0729,132.5341 C442.5529,148.6241 481.49,167.9273 522.14,188.0673 " fill="none" id="EauS&#251;re-backto-Plateforme cloud" style="stroke:#2C3E50;stroke-width:1.0;"/><polygon fill="#2C3E50" points="399.32,127.2073,402.9209,133.455,410.0729,132.5341,406.4721,126.2864,399.32,127.2073" style="stroke:#2C3E50;stroke-width:1.0;"/><text fill="#000000" font-family="Arial" font-size="12" lengthAdjust="spacing" textLength="7" x="402.9144" y="146.9488">1</text><text fill="#000000" font-family="Arial" font-size="12" lengthAdjust="spacing" textLength="7" x="500.2157" y="177.8456">1</text></g><!--link Plateforme cloud to Application utilisateur--><g id="link_Plateforme cloud_Application utilisateur"><path codeLine="53" d="M591,258.5573 C591,281.6773 591,306.0173 591,329.0773 " fill="none" id="Plateforme cloud-to-Application utilisateur" style="stroke:#2C3E50;stroke-width:1.0;stroke-dasharray:7.0,7.0;"/><polygon fill="#2C3E50" points="591,335.0773,595,326.0773,591,330.0773,587,326.0773,591,335.0773" style="stroke:#2C3E50;stroke-width:1.0;"/><text fill="#000000" font-family="Arial" font-size="12" lengthAdjust="spacing" textLength="35" x="592" y="302.4531">&#171;use&#187;</text></g><!--SRC=[XPJ1Qjj048RlUef1EHGIujXfd40n0ZcMUWi5bvvwMKbZP_5gLzdPTPgMFaLVedw67aNVgoD5IKGifn1Cblbc_d_-NPisKbV2YX8AN0clN6gqkn4bGcobK04DrPVoEyBal5VCbI2QYtopjiRhujeeO-4eYTEBTBw76LkWxP3pwwlv_78O-Nmhyur68fYCfZqajjRSF_U_JwRZNf5kHM7kfLx3IYZ2NgLYUsADUoxJCRjC1y2-pulu8hwC3q67d7PGcvbxK0YPKSM1-d2ciNDMPjxrc4cFqSODB9IcY-JgDTNV9Xd7q_4u26vbWO1bvHwWn393Iq7Wf6EZionQIB7cRduA32tgtKfgwQJHpN6kJ4vm2byymaTbCg5mTfP5N_LCHii7SlLlRak4NzP_B3Atz7QBKYcXytQS4d3dXPAkthN7ToWye8PIAeaUhBT2pSva50HTH13kZGtXQB58aZI57q40Zt51-5ATpOXRi8mY1W1-zg2RlxzyqGYNIFwHpNYZJOS2d41kbCBSjMuBetMzGsA7MsdvW2LgnpjJ1pihD9MIg8cdgdTMcaBU-QQPEWrwPU4JVw955caKSbEMNijSD04FsM5II6hdFRlPydq1z-VA-ABZraXFTyGPvutNtCbj6xIjTyGvlpQYXCELiMKtQ4YTzvEkNHhG0JdpU2TzDq_wzOwFLdGc23WbwvwsvxzEDQugrQqBtl6j4xlmjX77Rmwj5ghJFu6jfEQjqClGdkX9irQErNED7xjSTQEfKUmzYN0Iml4f_pxeK_v_D3eEzz_2__YtBkvmRzZ4ivyrkzlFVpIAtWZe0qVa2IF-Rlm3]--></g></svg>