<?xml version="1.0" encoding="us-ascii" standalone="no"?><svg xmlns="http://www.w3.org/2000/svg" xmlns:xlink="http://www.w3.org/1999/xlink" contentStyleType="text/css" height="736px" preserveAspectRatio="none" style="width:515px;height:736px;background:#FFFFFF;" version="1.1" viewBox="0 0 515 736" width="515px" zoomAndPan="magnify"><defs/><g><text fill="#000000" font-family="Arial" font-size="14" font-weight="bold" lengthAdjust="spacing" textLength="369" x="66" y="23.1318">Diagramme de D&#233;finition de Blocs - Plateforme cloud</text><text fill="#000000" font-family="Arial" font-size="14" font-style="italic" font-weight="bold" lengthAdjust="spacing" textLength="376" x="62.5" y="39.2305">D&#233;composition fonctionnelle interne - Syst&#232;me EauS&#251;re</text><!--cluster Fonctions internes--><g id="cluster_Fonctions internes"><path d="M10,122.1973 L112,122.1973 A6,6 0 0 1 116,126.1973 L123,140.8462 L254,140.8462 A4,4 0 0 1 258,144.8462 L258,725.1973 A4,4 0 0 1 254,729.1973 L10,729.1973 A4,4 0 0 1 6,725.1973 L6,126.1973 A4,4 0 0 1 10,122.1973 " fill="#EDE7F6" style="stroke:#4A4A6A;stroke-width:1.5;"/><line style="stroke:#4A4A6A;stroke-width:1.5;" x1="6" x2="123" y1="140.8462" y2="140.8462"/><text fill="#000000" font-family="Arial" font-size="11" font-weight="bold" lengthAdjust="spacing" textLength="104" x="10" y="134.5151">Fonctions internes</text></g><!--class Gestion des donn?es--><g id="elem_Gestion des donn&#233;es"><rect codeLine="28" fill="#F3E5F5" height="63.9961" id="Gestion des donn&#233;es" rx="4" ry="4" style="stroke:#7B1FA2;stroke-width:1.5;" width="220" x="22" y="153.1973"/><rect fill="#D1C4E9" height="32.998" rx="4" ry="4" style="stroke:#D1C4E9;stroke-width:1.5;" width="220" x="22" y="153.1973"/><rect fill="#D1C4E9" height="4" style="stroke:#D1C4E9;stroke-width:1.5;" width="220" x="22" y="182.1953"/><rect codeLine="28" fill="none" height="63.9961" id="Gestion des donn&#233;es" rx="4" ry="4" style="stroke:#7B1FA2;stroke-width:1.5;" width="220" x="22" y="153.1973"/><ellipse cx="79.25" cy="169.6963" fill="#ADD1B2" rx="9" ry="9" style="stroke:#181818;stroke-width:1.0;"/><path d="M80.7813,166.9619 Q80.875,166.8213 81,166.7588 Q81.125,166.6807 81.2656,166.6807 Q81.5,166.6807 81.6563,166.8525 Q81.8125,167.0244 81.8125,167.415 L81.8125,168.3525 Q81.8125,168.7432 81.6563,168.915 Q81.5,169.0869 81.2656,169.0869 Q81.0469,169.0869 80.9063,168.9619 Q80.7656,168.8369 80.7031,168.5088 Q80.6719,168.2744 80.5625,168.1494 Q80.3438,167.915 79.9375,167.7744 Q79.5469,167.6182 79.1563,167.6182 Q78.6563,167.6182 78.2344,167.8369 Q77.8281,168.0557 77.5,168.54 Q77.1875,169.0244 77.1875,169.6807 L77.1875,170.3994 Q77.1875,171.1963 77.7656,171.7275 Q78.3438,172.2588 79.375,172.2588 Q79.9844,172.2588 80.4063,172.0869 Q80.6563,171.9932 80.9375,171.7119 Q81.1094,171.54 81.2031,171.4932 Q81.2969,171.4307 81.4219,171.4307 Q81.6406,171.4307 81.8125,171.6025 Q81.9844,171.7744 81.9844,171.9932 Q81.9844,172.2119 81.75,172.4775 Q81.4219,172.8525 80.9063,173.0713 Q80.2188,173.3525 79.375,173.3525 Q78.4063,173.3525 77.625,172.9619 Q76.9844,172.6338 76.5313,171.9463 Q76.0938,171.2432 76.0938,170.415 L76.0938,169.665 Q76.0938,168.8057 76.4844,168.0713 Q76.8906,167.3213 77.5938,166.9307 Q78.3125,166.5244 79.1094,166.5244 Q79.5781,166.5244 80,166.6338 Q80.4219,166.7432 80.7813,166.9619 Z " fill="#000000"/><text fill="#000000" font-family="Arial" font-size="10" font-style="italic" lengthAdjust="spacing" textLength="37" x="127.25" y="167.5771">&#171;block&#187;</text><text fill="#000000" font-family="Arial" font-size="10" lengthAdjust="spacing" textLength="98" x="96.75" y="179.0762">Gestion des donn&#233;es</text><line style="stroke:#7B1FA2;stroke-width:1.5;" x1="23" x2="241" y1="186.1953" y2="186.1953"/><ellipse cx="33" cy="197.4448" fill="none" rx="3" ry="3" style="stroke:#038048;stroke-width:1.0;"/><text fill="#000000" font-family="Arial" font-size="10" lengthAdjust="spacing" textLength="123" x="40" y="199.5752">stocker les mesures re&#231;ues</text><ellipse cx="33" cy="208.9438" fill="none" rx="3" ry="3" style="stroke:#038048;stroke-width:1.0;"/><text fill="#000000" font-family="Arial" font-size="10" lengthAdjust="spacing" textLength="156" x="40" y="211.0742">assurer la r&#233;tention et l'archivage</text></g><!--class Analyse et traitement--><g id="elem_Analyse et traitement"><rect codeLine="33" fill="#F3E5F5" height="63.9961" id="Analyse et traitement" rx="4" ry="4" style="stroke:#7B1FA2;stroke-width:1.5;" width="220" x="22" y="277.1973"/><rect fill="#D1C4E9" height="32.998" rx="4" ry="4" style="stroke:#D1C4E9;stroke-width:1.5;" width="220" x="22" y="277.1973"/><rect fill="#D1C4E9" height="4" style="stroke:#D1C4E9;stroke-width:1.5;" width="220" x="22" y="306.1953"/><rect codeLine="33" fill="none" height="63.9961" id="Analyse et traitement" rx="4" ry="4" style="stroke:#7B1FA2;stroke-width:1.5;" width="220" x="22" y="277.1973"/><ellipse cx="78.25" cy="293.6963" fill="#ADD1B2" rx="9" ry="9" style="stroke:#181818;stroke-width:1.0;"/><path d="M79.7813,290.9619 Q79.875,290.8213 80,290.7588 Q80.125,290.6807 80.2656,290.6807 Q80.5,290.6807 80.6563,290.8525 Q80.8125,291.0244 80.8125,291.415 L80.8125,292.3525 Q80.8125,292.7432 80.6563,292.915 Q80.5,293.0869 80.2656,293.0869 Q80.0469,293.0869 79.9063,292.9619 Q79.7656,292.8369 79.7031,292.5088 Q79.6719,292.2744 79.5625,292.1494 Q79.3438,291.915 78.9375,291.7744 Q78.5469,291.6182 78.1563,291.6182 Q77.6563,291.6182 77.2344,291.8369 Q76.8281,292.0557 76.5,292.54 Q76.1875,293.0244 76.1875,293.6807 L76.1875,294.3994 Q76.1875,295.1963 76.7656,295.7275 Q77.3438,296.2588 78.375,296.2588 Q78.9844,296.2588 79.4063,296.0869 Q79.6563,295.9932 79.9375,295.7119 Q80.1094,295.54 80.2031,295.4932 Q80.2969,295.4307 80.4219,295.4307 Q80.6406,295.4307 80.8125,295.6025 Q80.9844,295.7744 80.9844,295.9932 Q80.9844,296.2119 80.75,296.4775 Q80.4219,296.8525 79.9063,297.0713 Q79.2188,297.3525 78.375,297.3525 Q77.4063,297.3525 76.625,296.9619 Q75.9844,296.6338 75.5313,295.9463 Q75.0938,295.2432 75.0938,294.415 L75.0938,293.665 Q75.0938,292.8057 75.4844,292.0713 Q75.8906,291.3213 76.5938,290.9307 Q77.3125,290.5244 78.1094,290.5244 Q78.5781,290.5244 79,290.6338 Q79.4219,290.7432 79.7813,290.9619 Z " fill="#000000"/><text fill="#000000" font-family="Arial" font-size="10" font-style="italic" lengthAdjust="spacing" textLength="37" x="127.25" y="291.5771">&#171;block&#187;</text><text fill="#000000" font-family="Arial" font-size="10" lengthAdjust="spacing" textLength="100" x="95.75" y="303.0762">Analyse et traitement</text><line style="stroke:#7B1FA2;stroke-width:1.5;" x1="23" x2="241" y1="310.1953" y2="310.1953"/><ellipse cx="33" cy="321.4448" fill="none" rx="3" ry="3" style="stroke:#038048;stroke-width:1.0;"/><text fill="#000000" font-family="Arial" font-size="10" lengthAdjust="spacing" textLength="153" x="40" y="323.5752">traiter les donn&#233;es en temps r&#233;el</text><ellipse cx="33" cy="332.9438" fill="none" rx="3" ry="3" style="stroke:#038048;stroke-width:1.0;"/><text fill="#000000" font-family="Arial" font-size="10" lengthAdjust="spacing" textLength="171" x="40" y="335.0742">d&#233;tecter les tendances et anomalies</text></g><!--class Gestion des alertes--><g id="elem_Gestion des alertes"><rect codeLine="38" fill="#F3E5F5" height="63.9961" id="Gestion des alertes" rx="4" ry="4" style="stroke:#7B1FA2;stroke-width:1.5;" width="220" x="22" y="401.1973"/><rect fill="#D1C4E9" height="32.998" rx="4" ry="4" style="stroke:#D1C4E9;stroke-width:1.5;" width="220" x="22" y="401.1973"/><rect fill="#D1C4E9" height="4" style="stroke:#D1C4E9;stroke-width:1.5;" width="220" x="22" y="430.1953"/><rect codeLine="38" fill="none" height="63.9961" id="Gestion des alertes" rx="4" ry="4" style="stroke:#7B1FA2;stroke-width:1.5;" width="220" x="22" y="401.1973"/><ellipse cx="83.75" cy="417.6963" fill="#ADD1B2" rx="9" ry="9" style="stroke:#181818;stroke-width:1.0;"/><path d="M85.2813,414.9619 Q85.375,414.8213 85.5,414.7588 Q85.625,414.6807 85.7656,414.6807 Q86,414.6807 86.1563,414.8525 Q86.3125,415.0244 86.3125,415.415 L86.3125,416.3525 Q86.3125,416.7432 86.1563,416.915 Q86,417.0869 85.7656,417.0869 Q85.5469,417.0869 85.4063,416.9619 Q85.2656,416.8369 85.2031,416.5088 Q85.1719,416.2744 85.0625,416.1494 Q84.8438,415.915 84.4375,415.7744 Q84.0469,415.6182 83.6563,415.6182 Q83.1563,415.6182 82.7344,415.8369 Q82.3281,416.0557 82,416.54 Q81.6875,417.0244 81.6875,417.6807 L81.6875,418.3994 Q81.6875,419.1963 82.2656,419.7275 Q82.8438,420.2588 83.875,420.2588 Q84.4844,420.2588 84.9063,420.0869 Q85.1563,419.9932 85.4375,419.7119 Q85.6094,419.54 85.7031,419.4932 Q85.7969,419.4307 85.9219,419.4307 Q86.1406,419.4307 86.3125,419.6025 Q86.4844,419.7744 86.4844,419.9932 Q86.4844,420.2119 86.25,420.4775 Q85.9219,420.8525 85.4063,421.0713 Q84.7188,421.3525 83.875,421.3525 Q82.9063,421.3525 82.125,420.9619 Q81.4844,420.6338 81.0313,419.9463 Q80.5938,419.2432 80.5938,418.415 L80.5938,417.665 Q80.5938,416.8057 80.9844,416.0713 Q81.3906,415.3213 82.0938,414.9307 Q82.8125,414.5244 83.6094,414.5244 Q84.0781,414.5244 84.5,414.6338 Q84.9219,414.7432 85.2813,414.9619 Z " fill="#000000"/><text fill="#000000" font-family="Arial" font-size="10" font-style="italic" lengthAdjust="spacing" textLength="37" x="127.25" y="415.5771">&#171;block&#187;</text><text fill="#000000" font-family="Arial" font-size="10" lengthAdjust="spacing" textLength="89" x="101.25" y="427.0762">Gestion des alertes</text><line style="stroke:#7B1FA2;stroke-width:1.5;" x1="23" x2="241" y1="434.1953" y2="434.1953"/><ellipse cx="33" cy="445.4448" fill="none" rx="3" ry="3" style="stroke:#038048;stroke-width:1.0;"/><text fill="#000000" font-family="Arial" font-size="10" lengthAdjust="spacing" textLength="172" x="40" y="447.5752">&#233;valuer les seuils de qualit&#233; de l'eau</text><ellipse cx="33" cy="456.9438" fill="none" rx="3" ry="3" style="stroke:#038048;stroke-width:1.0;"/><text fill="#000000" font-family="Arial" font-size="10" lengthAdjust="spacing" textLength="173" x="40" y="459.0742">d&#233;clencher et router les notifications</text></g><!--class Authentification et s?curit?--><g id="elem_Authentification et s&#233;curit&#233;"><rect codeLine="43" fill="#F3E5F5" height="63.9961" id="Authentification et s&#233;curit&#233;" rx="4" ry="4" style="stroke:#7B1FA2;stroke-width:1.5;" width="220" x="22" y="525.1973"/><rect fill="#D1C4E9" height="32.998" rx="4" ry="4" style="stroke:#D1C4E9;stroke-width:1.5;" width="220" x="22" y="525.1973"/><rect fill="#D1C4E9" height="4" style="stroke:#D1C4E9;stroke-width:1.5;" width="220" x="22" y="554.1953"/><rect codeLine="43" fill="none" height="63.9961" id="Authentification et s&#233;curit&#233;" rx="4" ry="4" style="stroke:#7B1FA2;stroke-width:1.5;" width="220" x="22" y="525.1973"/><ellipse cx="64.25" cy="541.6963" fill="#ADD1B2" rx="9" ry="9" style="stroke:#181818;stroke-width:1.0;"/><path d="M65.7813,538.9619 Q65.875,538.8213 66,538.7588 Q66.125,538.6807 66.2656,538.6807 Q66.5,538.6807 66.6563,538.8525 Q66.8125,539.0244 66.8125,539.415 L66.8125,540.3525 Q66.8125,540.7432 66.6563,540.915 Q66.5,541.0869 66.2656,541.0869 Q66.0469,541.0869 65.9063,540.9619 Q65.7656,540.8369 65.7031,540.5088 Q65.6719,540.2744 65.5625,540.1494 Q65.3438,539.915 64.9375,539.7744 Q64.5469,539.6182 64.1563,539.6182 Q63.6563,539.6182 63.2344,539.8369 Q62.8281,540.0557 62.5,540.54 Q62.1875,541.0244 62.1875,541.6807 L62.1875,542.3994 Q62.1875,543.1963 62.7656,543.7275 Q63.3438,544.2588 64.375,544.2588 Q64.9844,544.2588 65.4063,544.0869 Q65.6563,543.9932 65.9375,543.7119 Q66.1094,543.54 66.2031,543.4932 Q66.2969,543.4307 66.4219,543.4307 Q66.6406,543.4307 66.8125,543.6025 Q66.9844,543.7744 66.9844,543.9932 Q66.9844,544.2119 66.75,544.4775 Q66.4219,544.8525 65.9063,545.0713 Q65.2188,545.3525 64.375,545.3525 Q63.4063,545.3525 62.625,544.9619 Q61.9844,544.6338 61.5313,543.9463 Q61.0938,543.2432 61.0938,542.415 L61.0938,541.665 Q61.0938,540.8057 61.4844,540.0713 Q61.8906,539.3213 62.5938,538.9307 Q63.3125,538.5244 64.1094,538.5244 Q64.5781,538.5244 65,538.6338 Q65.4219,538.7432 65.7813,538.9619 Z " fill="#000000"/><text fill="#000000" font-family="Arial" font-size="10" font-style="italic" lengthAdjust="spacing" textLength="37" x="127.25" y="539.5771">&#171;block&#187;</text><text fill="#000000" font-family="Arial" font-size="10" lengthAdjust="spacing" textLength="128" x="81.75" y="551.0762">Authentification et s&#233;curit&#233;</text><line style="stroke:#7B1FA2;stroke-width:1.5;" x1="23" x2="241" y1="558.1953" y2="558.1953"/><ellipse cx="33" cy="569.4448" fill="none" rx="3" ry="3" style="stroke:#038048;stroke-width:1.0;"/><text fill="#000000" font-family="Arial" font-size="10" lengthAdjust="spacing" textLength="142" x="40" y="571.5752">contr&#244;ler les acc&#232;s utilisateurs</text><ellipse cx="33" cy="580.9438" fill="none" rx="3" ry="3" style="stroke:#038048;stroke-width:1.0;"/><text fill="#000000" font-family="Arial" font-size="10" lengthAdjust="spacing" textLength="182" x="40" y="583.0742">garantir la confidentialit&#233; des donn&#233;es</text></g><!--class Interface API--><g id="elem_Interface API"><rect codeLine="48" fill="#F3E5F5" height="63.9961" id="Interface API" rx="4" ry="4" style="stroke:#7B1FA2;stroke-width:1.5;" width="220" x="22" y="649.1973"/><rect fill="#D1C4E9" height="32.998" rx="4" ry="4" style="stroke:#D1C4E9;stroke-width:1.5;" width="220" x="22" y="649.1973"/><rect fill="#D1C4E9" height="4" style="stroke:#D1C4E9;stroke-width:1.5;" width="220" x="22" y="678.1953"/><rect codeLine="48" fill="none" height="63.9961" id="Interface API" rx="4" ry="4" style="stroke:#7B1FA2;stroke-width:1.5;" width="220" x="22" y="649.1973"/><ellipse cx="97.25" cy="665.6963" fill="#ADD1B2" rx="9" ry="9" style="stroke:#181818;stroke-width:1.0;"/><path d="M98.7813,662.9619 Q98.875,662.8213 99,662.7588 Q99.125,662.6807 99.2656,662.6807 Q99.5,662.6807 99.6563,662.8525 Q99.8125,663.0244 99.8125,663.415 L99.8125,664.3525 Q99.8125,664.7432 99.6563,664.915 Q99.5,665.0869 99.2656,665.0869 Q99.0469,665.0869 98.9063,664.9619 Q98.7656,664.8369 98.7031,664.5088 Q98.6719,664.2744 98.5625,664.1494 Q98.3438,663.915 97.9375,663.7744 Q97.5469,663.6182 97.1563,663.6182 Q96.6563,663.6182 96.2344,663.8369 Q95.8281,664.0557 95.5,664.54 Q95.1875,665.0244 95.1875,665.6807 L95.1875,666.3994 Q95.1875,667.1963 95.7656,667.7275 Q96.3438,668.2588 97.375,668.2588 Q97.9844,668.2588 98.4063,668.0869 Q98.6563,667.9932 98.9375,667.7119 Q99.1094,667.54 99.2031,667.4932 Q99.2969,667.4307 99.4219,667.4307 Q99.6406,667.4307 99.8125,667.6025 Q99.9844,667.7744 99.9844,667.9932 Q99.9844,668.2119 99.75,668.4775 Q99.4219,668.8525 98.9063,669.0713 Q98.2188,669.3525 97.375,669.3525 Q96.4063,669.3525 95.625,668.9619 Q94.9844,668.6338 94.5313,667.9463 Q94.0938,667.2432 94.0938,666.415 L94.0938,665.665 Q94.0938,664.8057 94.4844,664.0713 Q94.8906,663.3213 95.5938,662.9307 Q96.3125,662.5244 97.1094,662.5244 Q97.5781,662.5244 98,662.6338 Q98.4219,662.7432 98.7813,662.9619 Z " fill="#000000"/><text fill="#000000" font-family="Arial" font-size="10" font-style="italic" lengthAdjust="spacing" textLength="37" x="127.25" y="663.5771">&#171;block&#187;</text><text fill="#000000" font-family="Arial" font-size="10" lengthAdjust="spacing" textLength="62" x="114.75" y="675.0762">Interface API</text><line style="stroke:#7B1FA2;stroke-width:1.5;" x1="23" x2="241" y1="682.1953" y2="682.1953"/><ellipse cx="33" cy="693.4448" fill="none" rx="3" ry="3" style="stroke:#038048;stroke-width:1.0;"/><text fill="#000000" font-family="Arial" font-size="10" lengthAdjust="spacing" textLength="176" x="40" y="695.5752">exposer les donn&#233;es aux applications</text><ellipse cx="33" cy="704.9438" fill="none" rx="3" ry="3" style="stroke:#038048;stroke-width:1.0;"/><text fill="#000000" font-family="Arial" font-size="10" lengthAdjust="spacing" textLength="150" x="40" y="707.0742">recevoir les requ&#234;tes des clients</text></g><!--class Plateforme cloud--><g id="elem_Plateforme cloud"><rect codeLine="24" fill="#F3E5F5" height="32.998" id="Plateforme cloud" rx="4" ry="4" style="stroke:#7B1FA2;stroke-width:1.5;" width="220" x="256" y="60.1973"/><rect fill="#D1C4E9" height="32.998" rx="4" ry="4" style="stroke:#D1C4E9;stroke-width:1.5;" width="220" x="256" y="60.1973"/><rect fill="#D1C4E9" height="4" style="stroke:#D1C4E9;stroke-width:1.5;" width="220" x="256" y="89.1953"/><rect codeLine="24" fill="none" height="32.998" id="Plateforme cloud" rx="4" ry="4" style="stroke:#7B1FA2;stroke-width:1.5;" width="220" x="256" y="60.1973"/><ellipse cx="321.25" cy="76.6963" fill="#ADD1B2" rx="9" ry="9" style="stroke:#181818;stroke-width:1.0;"/><path d="M322.7813,73.9619 Q322.875,73.8213 323,73.7588 Q323.125,73.6807 323.2656,73.6807 Q323.5,73.6807 323.6563,73.8525 Q323.8125,74.0244 323.8125,74.415 L323.8125,75.3525 Q323.8125,75.7432 323.6563,75.915 Q323.5,76.0869 323.2656,76.0869 Q323.0469,76.0869 322.9063,75.9619 Q322.7656,75.8369 322.7031,75.5088 Q322.6719,75.2744 322.5625,75.1494 Q322.3438,74.915 321.9375,74.7744 Q321.5469,74.6182 321.1563,74.6182 Q320.6563,74.6182 320.2344,74.8369 Q319.8281,75.0557 319.5,75.54 Q319.1875,76.0244 319.1875,76.6807 L319.1875,77.3994 Q319.1875,78.1963 319.7656,78.7275 Q320.3438,79.2588 321.375,79.2588 Q321.9844,79.2588 322.4063,79.0869 Q322.6563,78.9932 322.9375,78.7119 Q323.1094,78.54 323.2031,78.4932 Q323.2969,78.4307 323.4219,78.4307 Q323.6406,78.4307 323.8125,78.6025 Q323.9844,78.7744 323.9844,78.9932 Q323.9844,79.2119 323.75,79.4775 Q323.4219,79.8525 322.9063,80.0713 Q322.2188,80.3525 321.375,80.3525 Q320.4063,80.3525 319.625,79.9619 Q318.9844,79.6338 318.5313,78.9463 Q318.0938,78.2432 318.0938,77.415 L318.0938,76.665 Q318.0938,75.8057 318.4844,75.0713 Q318.8906,74.3213 319.5938,73.9307 Q320.3125,73.5244 321.1094,73.5244 Q321.5781,73.5244 322,73.6338 Q322.4219,73.7432 322.7813,73.9619 Z " fill="#000000"/><text fill="#000000" font-family="Arial" font-size="10" font-style="italic" lengthAdjust="spacing" textLength="37" x="361.25" y="74.5771">&#171;block&#187;</text><text fill="#000000" font-family="Arial" font-size="10" lengthAdjust="spacing" textLength="82" x="338.75" y="86.0762">Plateforme cloud</text></g><!--link Gestion des donn?es to Analyse et traitement--><!--link Analyse et traitement to Gestion des alertes--><!--link Gestion des alertes to Authentification et s?curit?--><!--link Authentification et s?curit? to Interface API--><!--reverse link Plateforme cloud to Gestion des donn?es--><g id="link_Plateforme cloud_Gestion des donn&#233;es"><path codeLine="60" d="M310.3787,97.3426 C293.6987,103.4826 285.95,106.7073 269,114.1973 C242.37,125.9673 213.58,140.4073 189.3,153.1073 " fill="none" id="Plateforme cloud-backto-Gestion des donn&#233;es" style="stroke:#2C3E50;stroke-width:1.0;"/><polygon fill="#2C3E50" points="321.64,93.1973,314.6276,91.5162,310.3787,97.3426,317.3911,99.0237,321.64,93.1973" style="stroke:#2C3E50;stroke-width:1.0;"/></g><!--reverse link Plateforme cloud to Analyse et traitement--><g id="link_Plateforme cloud_Analyse et traitement"><path codeLine="61" d="M347.4637,102.9568 C322.3737,137.0968 270.92,206.6173 260,217.1973 C236.79,239.6773 207.64,260.8473 183.03,277.0973 " fill="none" id="Plateforme cloud-backto-Analyse et traitement" style="stroke:#2C3E50;stroke-width:1.0;"/><polygon fill="#2C3E50" points="354.57,93.2873,347.7937,95.7533,347.4637,102.9568,354.24,100.4908,354.57,93.2873" style="stroke:#2C3E50;stroke-width:1.0;"/></g><!--reverse link Plateforme cloud to Gestion des alertes--><g id="link_Plateforme cloud_Gestion des alertes"><path codeLine="62" d="M361.3193,105.0366 C353.4093,148.8766 327.78,263.5673 260,341.1973 C239.47,364.7173 211.69,385.3973 187.27,401.0773 " fill="none" id="Plateforme cloud-backto-Gestion des alertes" style="stroke:#2C3E50;stroke-width:1.0;"/><polygon fill="#2C3E50" points="363.45,93.2273,358.4482,98.4217,361.3193,105.0366,366.3211,99.8422,363.45,93.2273" style="stroke:#2C3E50;stroke-width:1.0;"/></g><!--reverse link Plateforme cloud to Authentification et s?curit?--><g id="link_Plateforme cloud_Authentification et s&#233;curit&#233;"><path codeLine="63" d="M371.0639,105.2237 C375.5439,131.2737 380.42,173.1173 371,217.1973 C345.78,335.2973 336.57,371.8173 260,465.1973 C240.46,489.0173 213.24,509.5473 188.91,525.0373 " fill="none" id="Plateforme cloud-backto-Authentification et s&#233;curit&#233;" style="stroke:#2C3E50;stroke-width:1.0;"/><polygon fill="#2C3E50" points="369.03,93.3973,366.1048,99.9884,371.0639,105.2237,373.9891,98.6325,369.03,93.3973" style="stroke:#2C3E50;stroke-width:1.0;"/></g><!--reverse link Plateforme cloud to Interface API--><g id="link_Plateforme cloud_Interface API"><path codeLine="64" d="M393.1958,101.2579 C431.5558,135.7279 508,214.8973 508,308.1973 C508,308.1973 508,308.1973 508,434.1973 C508,562.4273 352.98,627.4073 242.02,657.4973 " fill="none" id="Plateforme cloud-backto-Interface API" style="stroke:#2C3E50;stroke-width:1.0;"/><polygon fill="#2C3E50" points="384.27,93.2373,386.0593,100.2228,393.1958,101.2579,391.4064,94.2723,384.27,93.2373" style="stroke:#2C3E50;stroke-width:1.0;"/></g><!--SRC=[ZLJBRjD05DtxAqPXKGaKseG-G8eYkNb0DwXIa5W0YyduEXbbFEFEesr0_HuQrknO-iUuuzYfSUmKIr7it7FFFNFkYSsAovHgcf08Okg4dIffFz84IAWv5O5fgi_uTo2zNgN813NcahBLGYidev4IIfCNqpUJi-dP7apf27G1kRZiJSD-C-JJahEL16D8xtML9THQtHNz_H7EEAaKpP96wexB1OcfC52ff2YFBc1FvMGykPYUDm2hEa_3q_0yR0ErAIr0kMTsBO3CbOXQwisUXjPgFdUsWZcfOpu0HGrxvnhtHgUJTtNmp886PTTf2sF2vSZZFlF8Bac_NwqLx5g29c-3OCaZ892aTaqIIEQWJH1ORl6OW_bmpEa2Up1821fdcvXBRhcI_l5IA6P8brmBQY5M6a5CA1SDZkV3htB0XuXdAacLsRR4IZ9_8q4WEPTu10dOFriRcprYzuIwMVP7m-2O3uCWFoVfrDaxP32Ou-JL4365ywGpBRXDoMiwPIJ8Zo0Wf61x3wQGRqY4KhADH-uO4KlmUaMCnMVqHo0k0UCqVcl8VZem1GBfy5T4KAApZGMPyu8bueXgjkItg0kX3vNXeQHYRS23hARSGe9TJTEtrUtqKYK1IR0ZDNuSY08P-T6inAAAY4hcmPPGgH8gU2xueSK2Aa3RPWUopIqLhY0suBWmVkat3Zbjjl7tuWYeUnB214Ysn0uSZXahHKbbUSmPpTTJTyJPfNUkhFjMWqnE-nbDiXZ6NMU_HK5E6SiU3N6M2sumA4wN-rbWrf4vNn0snPXoVDo9VpAs9kdAvoUc35-TrrTD2k0U4rrV3dNtXAQfg9pJOpKmk5Ly2zPmux9VrhVXX-5gfDrDRqbcSNM_uByK3_0DNugosvOaJzEIiKQMfYJKfUmIqgRay0PpISyikKxvxmQ20FrfU0kyx3QSOcVSmOuMz_vtoCwgWpEUyULGRys0lm00]--></g></svg>