<svg xmlns="http://www.w3.org/2000/svg" xmlns:xlink="http://www.w3.org/1999/xlink" contentStyleType="text/css" data-diagram-type="DESCRIPTION" height="643px" preserveAspectRatio="none" style="width:1966px;height:643px;background:#FFFFFF;" version="1.1" viewBox="0 0 1966 643" width="1966px" zoomAndPan="magnify"><?plantuml 1.2026.3beta6?><defs/><g><g class="title" data-source-line="15"><text fill="#000000" font-family="Arial" font-size="14" font-weight="700" lengthAdjust="spacing" textLength="434.3281" x="762.5709" y="22.9951">Diagramme de Cas d'Utilisation &#8212; Syst&#232;me EauS&#251;re v3</text><text fill="#000000" font-family="Arial" font-size="14" font-style="italic" font-weight="700" lengthAdjust="spacing" textLength="339.4658" x="810.0021" y="39.292">Bou&#233;e IoT de Surveillance de Qualit&#233; d'Eau</text></g><!--cluster Syst?me EauS?re--><g class="cluster" data-qualified-name="Syst.me EauS.re" data-source-line="26" id="ent0004"><rect fill="#FAFAFA" height="447.59" rx="2.5" ry="2.5" style="stroke:#555555;stroke-width:1;" width="1923" x="29.47" y="182.2338"/><text fill="#000000" font-family="Arial" font-size="13" font-weight="700" lengthAdjust="spacing" textLength="128.248" x="926.846" y="196.3006">Syst&#232;me EauS&#251;re</text></g><!--cluster Mise en service--><g class="cluster" data-qualified-name="Syst.me EauS.re.Mise en service" data-source-line="29" id="ent0005"><path d="M799.97,224.8438 L914.4597,224.8438 A3.75,3.75 0 0 1 916.9597,227.3438 L923.9597,245.9766 L1050.97,245.9766 A2.5,2.5 0 0 1 1053.47,248.4766 L1053.47,467.0238 A2.5,2.5 0 0 1 1050.97,469.5238 L799.97,469.5238 A2.5,2.5 0 0 1 797.47,467.0238 L797.47,227.3438 A2.5,2.5 0 0 1 799.97,224.8438" fill="#FAFAFA" style="stroke:#555555;stroke-width:1.5;"/><line style="stroke:#555555;stroke-width:1.5;" x1="797.47" x2="923.9597" y1="245.9766" y2="245.9766"/><text fill="#000000" font-family="Arial" font-size="13" font-weight="700" lengthAdjust="spacing" textLength="113.4897" x="801.47" y="238.9106">Mise en service</text></g><!--cluster Utilisation--><g class="cluster" data-qualified-name="Syst.me EauS.re.Utilisation" data-source-line="35" id="ent0008"><path d="M1079.97,224.6838 L1156.4754,224.6838 A3.75,3.75 0 0 1 1158.9754,227.1838 L1165.9754,245.8166 L1925.97,245.8166 A2.5,2.5 0 0 1 1928.47,248.3166 L1928.47,475.7838 A2.5,2.5 0 0 1 1925.97,478.2838 L1079.97,478.2838 A2.5,2.5 0 0 1 1077.47,475.7838 L1077.47,227.1838 A2.5,2.5 0 0 1 1079.97,224.6838" fill="#FAFAFA" style="stroke:#555555;stroke-width:1.5;"/><line style="stroke:#555555;stroke-width:1.5;" x1="1077.47" x2="1165.9754" y1="245.8166" y2="245.8166"/><text fill="#000000" font-family="Arial" font-size="13" font-weight="700" lengthAdjust="spacing" textLength="75.5054" x="1081.47" y="238.7506">Utilisation</text></g><!--cluster Maintenance--><g class="cluster" data-qualified-name="Syst.me EauS.re.Maintenance" data-source-line="46" id="ent0016"><path d="M241.97,371.7538 L337.2263,371.7538 A3.75,3.75 0 0 1 339.7263,374.2538 L346.7263,392.8866 L444.97,392.8866 A2.5,2.5 0 0 1 447.47,395.3866 L447.47,603.3238 A2.5,2.5 0 0 1 444.97,605.8238 L241.97,605.8238 A2.5,2.5 0 0 1 239.47,603.3238 L239.47,374.2538 A2.5,2.5 0 0 1 241.97,371.7538" fill="#FAFAFA" style="stroke:#555555;stroke-width:1.5;"/><line style="stroke:#555555;stroke-width:1.5;" x1="239.47" x2="346.7263" y1="392.8866" y2="392.8866"/><text fill="#000000" font-family="Arial" font-size="13" font-weight="700" lengthAdjust="spacing" textLength="94.2563" x="243.47" y="385.8206">Maintenance</text></g><!--cluster Administration--><g class="cluster" data-qualified-name="Syst.me EauS.re.Administration" data-source-line="52" id="ent0019"><path d="M55.97,224.2338 L166.0418,224.2338 A3.75,3.75 0 0 1 168.5418,226.7338 L175.5418,245.3666 L770.97,245.3666 A2.5,2.5 0 0 1 773.47,247.8666 L773.47,320.2538 A2.5,2.5 0 0 1 770.97,322.7538 L55.97,322.7538 A2.5,2.5 0 0 1 53.47,320.2538 L53.47,226.7338 A2.5,2.5 0 0 1 55.97,224.2338" fill="#FAFAFA" style="stroke:#555555;stroke-width:1.5;"/><line style="stroke:#555555;stroke-width:1.5;" x1="53.47" x2="175.5418" y1="245.3666" y2="245.3666"/><text fill="#000000" font-family="Arial" font-size="13" font-weight="700" lengthAdjust="spacing" textLength="109.0718" x="57.47" y="238.3006">Administration</text></g><!--entity UC_Init--><g class="entity" data-qualified-name="Syst.me EauS.re.Mise en service.UC_Init" data-source-line="30" id="ent0006"><ellipse cx="956.474" cy="282.4894" fill="#EAF4FB" rx="51.254" ry="23.6456" style="stroke:#2C7BB6;stroke-width:1.5;"/><text fill="#000000" font-family="Arial" font-size="13" lengthAdjust="spacing" textLength="59.6997" x="926.6241" y="277.9008">Initialiser</text><text fill="#000000" font-family="Arial" font-size="13" lengthAdjust="spacing" textLength="70.7383" x="921.1048" y="293.0336">le syst&#232;me</text></g><!--entity UC_Connect--><g class="entity" data-qualified-name="Syst.me EauS.re.Mise en service.UC_Connect" data-source-line="31" id="ent0007"><ellipse cx="925.4671" cy="428.6772" fill="#EAF4FB" rx="112.2671" ry="24.8534" style="stroke:#2C7BB6;stroke-width:1.5;"/><text fill="#000000" font-family="Arial" font-size="13" lengthAdjust="spacing" textLength="188.3096" x="831.3123" y="429.2209">Connecter automatiquement</text><text fill="#000000" font-family="Arial" font-size="13" lengthAdjust="spacing" textLength="104.7998" x="873.0672" y="444.3538">IoT &#8596; Passerelle</text></g><!--entity UC_Auth--><g class="entity" data-qualified-name="Syst.me EauS.re.Utilisation.UC_Auth" data-source-line="36" id="ent0009"><ellipse cx="1155.4679" cy="282.4928" fill="#EAF4FB" rx="61.8179" ry="23.8091" style="stroke:#2C7BB6;stroke-width:1.5;"/><text fill="#000000" font-family="Arial" font-size="13" lengthAdjust="spacing" textLength="85.5474" x="1112.6942" y="279.8422">Se connecter</text><text fill="#000000" font-family="Arial" font-size="13" lengthAdjust="spacing" textLength="75.334" x="1117.8009" y="294.9751">au syst&#232;me</text></g><!--entity UC_Consult--><g class="entity" data-qualified-name="Syst.me EauS.re.Utilisation.UC_Consult" data-source-line="37" id="ent0010"><ellipse cx="1336.4667" cy="282.4891" fill="#EAF4FB" rx="84.5267" ry="19.3053" style="stroke:#2C7BB6;stroke-width:1.5;"/><text fill="#000000" font-family="Arial" font-size="13" lengthAdjust="spacing" textLength="144.4346" x="1264.2494" y="286.5555">Consulter les donn&#233;es</text></g><!--entity UC_Dashboard--><g class="entity" data-qualified-name="Syst.me EauS.re.Utilisation.UC_Dashboard" data-source-line="38" id="ent0011"><ellipse cx="1380.4697" cy="428.6757" fill="#EAF4FB" rx="87.7597" ry="19.9519" style="stroke:#2C7BB6;stroke-width:1.5;"/><text fill="#000000" font-family="Arial" font-size="13" lengthAdjust="spacing" textLength="151.6963" x="1304.6215" y="432.7421">Visualiser le dashboard</text></g><!--entity UC_History--><g class="entity" data-qualified-name="Syst.me EauS.re.Utilisation.UC_History" data-source-line="39" id="ent0012"><ellipse cx="1175.4698" cy="428.6697" fill="#EAF4FB" rx="82.0298" ry="18.806" style="stroke:#2C7BB6;stroke-width:1.5;"/><text fill="#000000" font-family="Arial" font-size="13" lengthAdjust="spacing" textLength="138.7725" x="1106.0836" y="432.7361">Consulter l'historique</text></g><!--entity UC_Alert--><g class="entity" data-qualified-name="Syst.me EauS.re.Utilisation.UC_Alert" data-source-line="40" id="ent0013"><ellipse cx="1605.4659" cy="282.4929" fill="#EAF4FB" rx="79.4459" ry="18.2892" style="stroke:#2C7BB6;stroke-width:1.5;"/><text fill="#000000" font-family="Arial" font-size="13" lengthAdjust="spacing" textLength="132.8564" x="1539.0376" y="286.5593">Recevoir des alertes</text></g><!--entity UC_AlertFall--><g class="entity" data-qualified-name="Syst.me EauS.re.Utilisation.UC_AlertFall" data-source-line="41" id="ent0014"><ellipse cx="1827.4683" cy="428.6743" fill="#EAF4FB" rx="84.6683" ry="22.3806" style="stroke:#2C7BB6;stroke-width:1.5;"/><text fill="#000000" font-family="Arial" font-size="13" lengthAdjust="spacing" textLength="127.5371" x="1763.6997" y="428.1991">Recevoir une alerte</text><text fill="#000000" font-family="Arial" font-size="13" lengthAdjust="spacing" textLength="57.1035" x="1798.9165" y="443.3319">de chute</text></g><!--entity UC_AlertQuality--><g class="entity" data-qualified-name="Syst.me EauS.re.Utilisation.UC_AlertQuality" data-source-line="42" id="ent0015"><ellipse cx="1605.4697" cy="428.6752" fill="#EAF4FB" rx="102.7397" ry="33.6114" style="stroke:#2C7BB6;stroke-width:1.5;"/><text fill="#000000" font-family="Arial" font-size="13" lengthAdjust="spacing" textLength="147.9194" x="1531.5099" y="419.7701">Recevoir une alerte de</text><text fill="#000000" font-family="Arial" font-size="13" lengthAdjust="spacing" textLength="99.3154" x="1555.8119" y="434.9029">d&#233;gradation de</text><text fill="#000000" font-family="Arial" font-size="13" lengthAdjust="spacing" textLength="116.3906" x="1547.2743" y="450.0357">la qualit&#233; de l'eau</text></g><!--entity UC_FUOTA--><g class="entity" data-qualified-name="Syst.me EauS.re.Maintenance.UC_FUOTA" data-source-line="47" id="ent0017"><ellipse cx="343.4708" cy="428.6757" fill="#EAF4FB" rx="87.9608" ry="22.922" style="stroke:#2C7BB6;stroke-width:1.5;"/><text fill="#000000" font-family="Arial" font-size="13" lengthAdjust="spacing" textLength="84.1318" x="301.4049" y="422.9998">Mettre &#224; jour</text><text fill="#000000" font-family="Arial" font-size="13" lengthAdjust="spacing" textLength="129.0732" x="278.9342" y="438.1327">le syst&#232;me (FUOTA)</text></g><!--entity UC_ValidUpdate--><g class="entity" data-qualified-name="Syst.me EauS.re.Maintenance.UC_ValidUpdate" data-source-line="48" id="ent0018"><ellipse cx="343.4749" cy="565.5529" fill="#EAF4FB" rx="55.2049" ry="24.2692" style="stroke:#2C7BB6;stroke-width:1.5;"/><text fill="#000000" font-family="Arial" font-size="13" lengthAdjust="spacing" textLength="74.2866" x="306.3316" y="562.24">Valider une</text><text fill="#000000" font-family="Arial" font-size="13" lengthAdjust="spacing" textLength="72.4268" x="307.2615" y="577.3728">mise &#224; jour</text></g><!--entity UC_ManageUsers--><g class="entity" data-qualified-name="Syst.me EauS.re.Administration.UC_ManageUsers" data-source-line="53" id="ent0020"><ellipse cx="150.4651" cy="282.4968" fill="#EAF4FB" rx="80.7151" ry="18.543" style="stroke:#2C7BB6;stroke-width:1.5;"/><text fill="#000000" font-family="Arial" font-size="13" lengthAdjust="spacing" textLength="135.77" x="82.5801" y="286.5632">G&#233;rer les utilisateurs</text></g><!--entity UC_Supervise--><g class="entity" data-qualified-name="Syst.me EauS.re.Administration.UC_Supervise" data-source-line="54" id="ent0021"><ellipse cx="350.4714" cy="282.494" fill="#EAF4FB" rx="84.5014" ry="19.3003" style="stroke:#2C7BB6;stroke-width:1.5;"/><text fill="#000000" font-family="Arial" font-size="13" lengthAdjust="spacing" textLength="144.3774" x="278.2827" y="286.5604">Superviser le syst&#232;me</text></g><!--entity UC_Deploy--><g class="entity" data-qualified-name="Syst.me EauS.re.Administration.UC_Deploy" data-source-line="55" id="ent0022"><ellipse cx="530.4737" cy="282.494" fill="#EAF4FB" rx="60.1637" ry="24.2603" style="stroke:#2C7BB6;stroke-width:1.5;"/><text fill="#000000" font-family="Arial" font-size="13" lengthAdjust="spacing" textLength="81.377" x="489.7852" y="279.1937">D&#233;ployer les</text><text fill="#000000" font-family="Arial" font-size="13" lengthAdjust="spacing" textLength="79.1997" x="490.8739" y="294.3266">mises &#224; jour</text></g><!--entity UC_Diag--><g class="entity" data-qualified-name="Syst.me EauS.re.Administration.UC_Diag" data-source-line="56" id="ent0023"><ellipse cx="691.4714" cy="282.497" fill="#EAF4FB" rx="66.1514" ry="23.9232" style="stroke:#2C7BB6;stroke-width:1.5;"/><text fill="#000000" font-family="Arial" font-size="13" lengthAdjust="spacing" textLength="91.3491" x="645.7968" y="279.6806">Diagnostiquer</text><text fill="#000000" font-family="Arial" font-size="13" lengthAdjust="spacing" textLength="82.6846" x="650.1291" y="294.8134">un probl&#232;me</text></g><!--entity User--><g class="entity" data-qualified-name="User" data-source-line="20" id="ent0002"><ellipse cx="1155.4731" cy="75.5938" fill="#FFF8E7" rx="16" ry="16" style="stroke:#E69500;stroke-width:0.5;"/><path d="M1155.4731,95.5938 C1159.4731,95.5938 1162.4731,95.5938 1166.4731,91.5938 C1174.4731,91.5938 1182.4731,99.5938 1182.4731,107.5938 L1182.4731,111.5938 C1182.4731,115.5938 1178.4731,119.5938 1174.4731,119.5938 L1136.4731,119.5938 C1132.4731,119.5938 1128.4731,115.5938 1128.4731,111.5938 L1128.4731,107.5938 C1128.4731,99.5938 1136.4731,91.5938 1144.4731,91.5938 C1148.4731,95.5938 1151.4731,95.5938 1155.4731,95.5938" fill="#FFF8E7" style="stroke:#E69500;stroke-width:0.5;"/><text fill="#000000" font-family="Arial" font-size="13" lengthAdjust="spacing" textLength="66.8662" x="1122.04" y="132.1606">Utilisateur</text></g><!--entity Admin--><g class="entity" data-qualified-name="Admin" data-source-line="21" id="ent0003"><ellipse cx="406.4659" cy="75.5938" fill="#FFF8E7" rx="16" ry="16" style="stroke:#E69500;stroke-width:0.5;"/><path d="M406.4659,95.5938 C410.4659,95.5938 413.4659,95.5938 417.4659,91.5938 C425.4659,91.5938 433.4659,99.5938 433.4659,107.5938 L433.4659,111.5938 C433.4659,115.5938 429.4659,119.5938 425.4659,119.5938 L387.4659,119.5938 C383.4659,119.5938 379.4659,115.5938 379.4659,111.5938 L379.4659,107.5938 C379.4659,99.5938 387.4659,91.5938 395.4659,91.5938 C399.4659,95.5938 402.4659,95.5938 406.4659,95.5938" fill="#FFF8E7" style="stroke:#E69500;stroke-width:0.5;"/><text fill="#000000" font-family="Arial" font-size="13" lengthAdjust="spacing" textLength="97.1318" x="357.9" y="132.1606">Administrateur</text></g><!--link User to UC_Init--><g class="link" data-entity-1="ent0002" data-entity-2="ent0006" data-link-type="dependency" data-source-line="66" id="lnk24"><path d="M1121.71,129.2638 C1081.02,166.7538 1018.1727,224.6482 983.3427,256.7382" fill="none" id="User-to-UC_Init" style="stroke:#444444;stroke-width:1;"/><polygon fill="#444444" points="978.93,260.8038,988.2593,257.6472,982.6072,257.4158,982.8386,251.7637,978.93,260.8038" style="stroke:#444444;stroke-width:1;"/></g><!--link User to UC_Auth--><g class="link" data-entity-1="ent0002" data-entity-2="ent0009" data-link-type="dependency" data-source-line="67" id="lnk25"><path d="M1155.47,135.7038 C1155.47,172.4738 1155.47,221.3438 1155.47,252.2238" fill="none" id="User-to-UC_Auth" style="stroke:#444444;stroke-width:1;"/><polygon fill="#444444" points="1155.47,258.2238,1159.47,249.2238,1155.47,253.2238,1151.47,249.2238,1155.47,258.2238" style="stroke:#444444;stroke-width:1;"/></g><!--link User to UC_Consult--><g class="link" data-entity-1="ent0002" data-entity-2="ent0010" data-link-type="dependency" data-source-line="68" id="lnk26"><path d="M1189.23,130.0438 C1203.35,143.5338 1219.84,159.5138 1234.47,174.2338 C1265.08,205.0338 1295.6433,237.5207 1315.6533,259.0307" fill="none" id="User-to-UC_Consult" style="stroke:#444444;stroke-width:1;"/><polygon fill="#444444" points="1319.74,263.4238,1316.5386,254.1097,1316.3344,259.7629,1310.6813,259.5586,1319.74,263.4238" style="stroke:#444444;stroke-width:1;"/></g><!--link User to UC_Alert--><g class="link" data-entity-1="ent0002" data-entity-2="ent0013" data-link-type="dependency" data-source-line="69" id="lnk27"><path d="M1189.28,103.7638 C1243.53,113.4937 1352.64,136.2338 1438.47,174.2338 C1494.56,199.0638 1548.6102,237.5738 1579.2602,260.9638" fill="none" id="User-to-UC_Alert" style="stroke:#444444;stroke-width:1;"/><polygon fill="#444444" points="1584.03,264.6038,1579.302,255.964,1580.0552,261.5704,1574.4487,262.3237,1584.03,264.6038" style="stroke:#444444;stroke-width:1;"/></g><!--link User to UC_FUOTA--><g class="link" data-entity-1="ent0002" data-entity-2="ent0017" data-link-type="dependency" data-source-line="70" id="lnk28"><path d="M1121.61,99.8737 C938.28,109.1838 72.19,154.1738 53.47,174.2338 C6,225.0838 12.82,274.3038 53.47,330.7538 C99.38,394.5038 183.1775,416.2638 250.7275,423.8538" fill="none" id="User-to-UC_FUOTA" style="stroke:#444444;stroke-width:1;"/><polygon fill="#444444" points="256.69,424.5238,248.1929,419.5438,251.7213,423.9655,247.2996,427.4938,256.69,424.5238" style="stroke:#444444;stroke-width:1;"/></g><!--link Admin to UC_ManageUsers--><g class="link" data-entity-1="ent0003" data-entity-2="ent0020" data-link-type="dependency" data-source-line="73" id="lnk29"><path d="M357.48,116.0538 C324.83,129.3038 281.93,149.3338 248.47,174.2338 C213.05,200.5738 183.8573,236.2217 166.6573,259.1817" fill="none" id="Admin-to-UC_ManageUsers" style="stroke:#444444;stroke-width:1;"/><polygon fill="#444444" points="163.06,263.9838,171.6573,259.179,166.0578,259.9821,165.2546,254.3825,163.06,263.9838" style="stroke:#444444;stroke-width:1;"/></g><!--link Admin to UC_Supervise--><g class="link" data-entity-1="ent0003" data-entity-2="ent0021" data-link-type="dependency" data-source-line="74" id="lnk30"><path d="M395,135.7038 C383.16,174.4638 366.934,227.6059 357.864,257.2759" fill="none" id="Admin-to-UC_Supervise" style="stroke:#444444;stroke-width:1;"/><polygon fill="#444444" points="356.11,263.0138,362.5663,255.5763,357.5717,258.2322,354.9158,253.2376,356.11,263.0138" style="stroke:#444444;stroke-width:1;"/></g><!--link Admin to UC_Deploy--><g class="link" data-entity-1="ent0003" data-entity-2="ent0022" data-link-type="dependency" data-source-line="75" id="lnk31"><path d="M431.86,135.7038 C456.87,172.6838 490.9087,223.0037 511.7187,253.7737" fill="none" id="Admin-to-UC_Deploy" style="stroke:#444444;stroke-width:1;"/><polygon fill="#444444" points="515.08,258.7438,513.3514,249.0478,512.2789,254.602,506.7247,253.5295,515.08,258.7438" style="stroke:#444444;stroke-width:1;"/></g><!--link Admin to UC_Diag--><g class="link" data-entity-1="ent0003" data-entity-2="ent0023" data-link-type="dependency" data-source-line="76" id="lnk32"><path d="M455.44,108.5438 C498.79,119.5138 562.2,140.0538 608.47,174.2338 C639.53,197.1738 661.8101,229.5767 676.0001,253.6167" fill="none" id="Admin-to-UC_Diag" style="stroke:#444444;stroke-width:1;"/><polygon fill="#444444" points="679.05,258.7838,677.9198,249,676.5084,254.4779,671.0305,253.0665,679.05,258.7838" style="stroke:#444444;stroke-width:1;"/></g><!--link UC_Init to UC_Connect--><g class="link" data-entity-1="ent0006" data-entity-2="ent0007" data-link-type="dependency" data-source-line="83" id="lnk33"><path d="M951.56,306.3338 C945.86,332.8638 937.7507,370.5477 931.9307,397.6277" fill="none" id="UC_Init-to-UC_Connect" style="stroke:#444444;stroke-width:1;stroke-dasharray:7,7;"/><polygon fill="#444444" points="930.67,403.4938,936.4718,395.5352,931.7206,398.6054,928.6504,393.8542,930.67,403.4938" style="stroke:#444444;stroke-width:1;"/><text fill="#000000" font-family="Arial" font-size="13" lengthAdjust="spacing" textLength="63.0068" x="944.47" y="351.8206">&#171;include&#187;</text></g><!--link UC_Consult to UC_Dashboard--><g class="link" data-entity-1="ent0010" data-entity-2="ent0011" data-link-type="dependency" data-source-line="86" id="lnk34"><path d="M1342.13,302.0438 C1350.49,329.4238 1364.2991,374.6749 1372.7991,402.5349" fill="none" id="UC_Consult-to-UC_Dashboard" style="stroke:#444444;stroke-width:1;stroke-dasharray:7,7;"/><polygon fill="#444444" points="1374.55,408.2738,1375.7495,398.4982,1373.0909,403.4914,1368.0977,400.8328,1374.55,408.2738" style="stroke:#444444;stroke-width:1;"/><text fill="#000000" font-family="Arial" font-size="13" lengthAdjust="spacing" textLength="63.0068" x="1359.47" y="351.8206">&#171;include&#187;</text></g><!--link UC_Consult to UC_History--><g class="link" data-entity-1="ent0010" data-entity-2="ent0012" data-link-type="dependency" data-source-line="87" id="lnk35"><path d="M1316.4,301.4638 C1285.22,329.3938 1229.969,378.8603 1199.249,406.3803" fill="none" id="UC_Consult-to-UC_History" style="stroke:#444444;stroke-width:1;stroke-dasharray:7,7;"/><polygon fill="#444444" points="1194.78,410.3838,1204.1525,407.3579,1198.5042,407.0475,1198.8145,401.3992,1194.78,410.3838" style="stroke:#444444;stroke-width:1;"/><text fill="#000000" font-family="Arial" font-size="13" lengthAdjust="spacing" textLength="63.0068" x="1270.47" y="351.8206">&#171;include&#187;</text></g><!--link UC_Deploy to UC_FUOTA--><g class="link" data-entity-1="ent0022" data-entity-2="ent0017" data-link-type="dependency" data-source-line="90" id="lnk36"><path d="M503.28,304.4538 C467.93,331.7138 411.2721,375.4007 375.7521,402.7807" fill="none" id="UC_Deploy-to-UC_FUOTA" style="stroke:#444444;stroke-width:1;stroke-dasharray:7,7;"/><polygon fill="#444444" points="371,406.4438,380.5701,404.1172,374.9601,403.3912,375.6861,397.7811,371,406.4438" style="stroke:#444444;stroke-width:1;"/><text fill="#000000" font-family="Arial" font-size="13" lengthAdjust="spacing" textLength="63.0068" x="454.47" y="351.8206">&#171;include&#187;</text></g><!--link UC_FUOTA to UC_ValidUpdate--><g class="link" data-entity-1="ent0017" data-entity-2="ent0018" data-link-type="dependency" data-source-line="91" id="lnk37"><path d="M343.47,451.9438 C343.47,476.4938 343.47,509.8038 343.47,534.8838" fill="none" id="UC_FUOTA-to-UC_ValidUpdate" style="stroke:#444444;stroke-width:1;stroke-dasharray:7,7;"/><polygon fill="#444444" points="343.47,540.8838,347.47,531.8838,343.47,535.8838,339.47,531.8838,343.47,540.8838" style="stroke:#444444;stroke-width:1;"/><text fill="#000000" font-family="Arial" font-size="13" lengthAdjust="spacing" textLength="63.0068" x="344.47" y="507.3506">&#171;include&#187;</text></g><!--link UC_Alert to UC_AlertFall--><g class="link" data-entity-1="ent0013" data-entity-2="ent0014" data-link-type="dependency" data-source-line="98" id="lnk38"><path d="M1630.94,300.0338 C1671.82,326.5838 1746.9684,375.3853 1791.2284,404.1353" fill="none" id="UC_Alert-to-UC_AlertFall" style="stroke:#444444;stroke-width:1;stroke-dasharray:7,7;"/><polygon fill="#444444" points="1796.26,407.4038,1790.8915,399.1467,1792.067,404.6801,1786.5336,405.8556,1796.26,407.4038" style="stroke:#444444;stroke-width:1;"/><text fill="#000000" font-family="Arial" font-size="13" lengthAdjust="spacing" textLength="61.1851" x="1717.47" y="351.8206">&#171;extend&#187;</text></g><!--link UC_Alert to UC_AlertQuality--><g class="link" data-entity-1="ent0013" data-entity-2="ent0015" data-link-type="dependency" data-source-line="99" id="lnk39"><path d="M1605.47,301.1738 C1605.47,324.4038 1605.47,359.6738 1605.47,388.7438" fill="none" id="UC_Alert-to-UC_AlertQuality" style="stroke:#444444;stroke-width:1;stroke-dasharray:7,7;"/><polygon fill="#444444" points="1605.47,394.7438,1609.47,385.7438,1605.47,389.7438,1601.47,385.7438,1605.47,394.7438" style="stroke:#444444;stroke-width:1;"/><text fill="#000000" font-family="Arial" font-size="13" lengthAdjust="spacing" textLength="61.1851" x="1606.47" y="351.8206">&#171;extend&#187;</text></g><?plantuml-src pLVBRjj65DtpAoxKXUs5dJYsapOG1D0obHgjxSIK2XGGK8p9iJGrDQFCmuvR1CWgo3hm1tHPVKEN_1D_IU-GGuaKANafqzvuviwvhtCVLZUCJuaa4uZfDJ69xWckpyc4WYyPIJpLT1-oloZi7vGkIQI53FLzGe7SKIKcj7Hf58s8eiT2nbHsHI8a_F2g--Ru-7M348bkHb8O7Zl1mEyTzevNeVN7BBhXL2dOtpig2KqHXeogAe-ohq5eMMNFjp-hq5QfzAKKTmxXCFkMurDNrElz6BofYPMD3bx_TFJoPKb4ZKaixXWVmJL95FKypJH6lNtLEM5aX1AOkfX2boY8jmQQ9KmHpGI7noyF4DuhdVwB4W4nOVgVf71xq7vnrHdoDkiS2vFEA9oAlWK8ZRobB4a8ZpB03uOaJASpHCN7xHUiutbRyFZmPLE_g1tyRZyON8QmRJZxQEY4ScrZI8rKC4bdcb49z9Ec4lEris5pizn2gqW9sjW2_31F0qLbSUt74yQPqj99u7Lsz0o2tRkyEE-Vfjyk0mX_3_lfjxDWmqP96cd2HqZ_LetPBVZRym0A0-6zt_t5VnV0Fho5CwOeK0uOzrk6z7PmK1Gwj9OaB9XDbkizq3hbJ6DxH2avvAXVEVLPIXi-c-Nk7_PL5QShE4SdaAR4Q371IdKq7d9RXuzV7-0zKQY59ea5pt7SAuJwtEZZA_InKler_qgtDTz22b5Xrf0JyvHpkKs-qUEQRme71lgMK6n628djHQsAKCat-weAzHjJ9eysOa5CrFXA41clZ_P98RRIhAqnLfgGDkQjzLRzd0dULv4kQKHl1PFO7XMGX4gzphqYJbPk1OxXrE4CERRSQ6nqWs4bd1v9aYUnq3o4IsSu7EAS3_OW8V1ntj8fne8IqofZvmt_VYN93cmX4SOrvTcCQ2YYnMsDP6TKQnm_wJ_mfp3L6eBjtk2Yx--q6hpERfQuWMRYlBGE3_d4rgq3NKlNxDLWYW6XApqyH0zB_RYvage2DJ_VfJFfAi0iEhzwWcvdX2EudGjggJRDr7OaLmXFTPq2Rlwg2dQIpgQ9kC_DosEdrWRFrHMrhvQWSFVWGcNj2xDfE4obk4fM6kUGy5KU_S_FOPa8mulkgTy_lJWFvvl5uzVlC0W3wFfX46xOHbHVsXuyIm-0tTtEVBHKJhA6N3afMcjLBEj7bQEyo51RTHdniZyBeJ95AnSBibME7MkgPpR_cq_yPV2hotgxpNYKc9XsEflFzNp7SAq7cPZDvK_shzAw0DjOQMn4DBPzkkCvCjWgszlhbDQ5hF3ULdn4BOuK2nrA6BLxBNXaJnIKi9Mt8561FH-oDUowh1kYpNRapOZbExorezpAOMgOWblRitD3oowhpEUSNtEVCmwxPbEpgxXqigLPKBVh6N7J_YV3u-T0JJzVTYmVOsOJmkr-cl4ZkoeYErzIvdcO-z0ewdQEgkZ_?></g></svg>