<?plantuml 1.2026.2?><svg xmlns="http://www.w3.org/2000/svg" xmlns:xlink="http://www.w3.org/1999/xlink" contentStyleType="text/css" data-diagram-type="DESCRIPTION" height="607px" preserveAspectRatio="none" style="width:1049px;height:607px;background:#FFFFFF;" version="1.1" viewBox="0 0 1049 607" width="1049px" zoomAndPan="magnify"><defs/><g><rect fill="none" height="467.5579" rx="2.5" ry="2.5" style="stroke:#000000;stroke-width:1;" width="1031.8655" x="12" y="134.3441"/><text fill="#000000" font-family="Arial" font-size="12" font-weight="bold" lengthAdjust="spacing" textLength="293.51" x="381.1777" y="149.1722">[uc_01.2] Syst&#232;me EauS&#251;re -Vue utilisateur (suite)</text><!--entity UC_ConfigSystem--><g class="entity" data-qualified-name=".uc_01.2. Syst.me EauS.re -Vue utilisateur .suite..UC_ConfigSystem" data-source-line="20" id="ent0004"><ellipse cx="858.7667" cy="192.1755" fill="#EAF4FB" rx="77.1569" ry="17.8314" style="stroke:#2C7BB6;stroke-width:1.5;"/><text fill="#000000" font-family="Arial" font-size="12" lengthAdjust="spacing" textLength="123.7689" x="796.8822" y="196.8476">Configurer le syst&#232;me</text></g><!--entity UC_SetThresholds--><g class="entity" data-qualified-name=".uc_01.2. Syst.me EauS.re -Vue utilisateur .suite..UC_SetThresholds" data-source-line="21" id="ent0005"><ellipse cx="273.5101" cy="333.6329" fill="#EAF4FB" rx="67.7107" ry="26.006" style="stroke:#2C7BB6;stroke-width:1.5;"/><text fill="#000000" font-family="Arial" font-size="12" lengthAdjust="spacing" textLength="91.9447" x="227.5378" y="330.2861">D&#233;finir les seuils</text><text fill="#000000" font-family="Arial" font-size="12" lengthAdjust="spacing" textLength="90.2046" x="228.4078" y="346.6302">de qualit&#233; d'eau</text></g><!--entity UC_LocalAlerts--><g class="entity" data-qualified-name=".uc_01.2. Syst.me EauS.re -Vue utilisateur .suite..UC_LocalAlerts" data-source-line="22" id="ent0006"><ellipse cx="111.8997" cy="333.6241" fill="#EAF4FB" rx="73.8997" ry="25.9972" style="stroke:#2C7BB6;stroke-width:1.5;"/><text fill="#000000" font-family="Arial" font-size="12" lengthAdjust="spacing" textLength="100.7767" x="61.5113" y="330.2897">Activer/d&#233;sactiver</text><text fill="#000000" font-family="Arial" font-size="12" lengthAdjust="spacing" textLength="98.7127" x="62.5433" y="346.6339">les alertes locales</text></g><!--entity UC_HealthFreq--><g class="entity" data-qualified-name=".uc_01.2. Syst.me EauS.re -Vue utilisateur .suite..UC_HealthFreq" data-source-line="23" id="ent0007"><ellipse cx="766.8074" cy="332.3583" fill="#EAF4FB" rx="76.0366" ry="24.7315" style="stroke:#2C7BB6;stroke-width:1.5;"/><text fill="#000000" font-family="Arial" font-size="12" lengthAdjust="spacing" textLength="109.8608" x="711.877" y="330.8802">R&#233;gler la fr&#233;quence</text><text fill="#000000" font-family="Arial" font-size="12" lengthAdjust="spacing" textLength="78.0845" x="727.7651" y="347.2243">de suivi d'&#233;tat</text></g><!--entity UC_TelemetryFreq--><g class="entity" data-qualified-name=".uc_01.2. Syst.me EauS.re -Vue utilisateur .suite..UC_TelemetryFreq" data-source-line="24" id="ent0008"><ellipse cx="436.9463" cy="332.2657" fill="#EAF4FB" rx="75.7254" ry="24.6389" style="stroke:#2C7BB6;stroke-width:1.5;"/><text fill="#000000" font-family="Arial" font-size="12" lengthAdjust="spacing" textLength="109.8608" x="382.0159" y="330.9285">R&#233;gler la fr&#233;quence</text><text fill="#000000" font-family="Arial" font-size="12" lengthAdjust="spacing" textLength="75.3726" x="399.26" y="347.2726">de t&#233;l&#233;m&#233;trie</text></g><!--entity UC_AntiFall--><g class="entity" data-qualified-name=".uc_01.2. Syst.me EauS.re -Vue utilisateur .suite..UC_AntiFall" data-source-line="25" id="ent0009"><ellipse cx="601.7212" cy="332.0509" fill="#EAF4FB" rx="69.0495" ry="24.424" style="stroke:#2C7BB6;stroke-width:1.5;"/><text fill="#000000" font-family="Arial" font-size="12" lengthAdjust="spacing" textLength="100.7767" x="551.3329" y="331.0437">Activer/d&#233;sactiver</text><text fill="#000000" font-family="Arial" font-size="12" lengthAdjust="spacing" textLength="62.9284" x="570.257" y="347.3878">l'anti-chute</text></g><!--entity UC_UserUpdateMgmt--><g class="entity" data-qualified-name=".uc_01.2. Syst.me EauS.re -Vue utilisateur .suite..UC_UserUpdateMgmt" data-source-line="27" id="ent0010"><ellipse cx="939.3962" cy="335.292" fill="#EAF4FB" rx="76.5522" ry="17.7104" style="stroke:#2C7BB6;stroke-width:1.5;"/><text fill="#000000" font-family="Arial" font-size="12" lengthAdjust="spacing" textLength="122.3169" x="878.2377" y="339.964">G&#233;rer les mises &#224; jour</text></g><!--entity UC_CheckUpdates--><g class="entity" data-qualified-name=".uc_01.2. Syst.me EauS.re -Vue utilisateur .suite..UC_CheckUpdates" data-source-line="28" id="ent0011"><ellipse cx="873.8488" cy="452.5606" fill="#EAF4FB" rx="83.8235" ry="25.3018" style="stroke:#2C7BB6;stroke-width:1.5;"/><text fill="#000000" font-family="Arial" font-size="12" lengthAdjust="spacing" textLength="118.4649" x="814.6163" y="450.2311">Rechercher les mises</text><text fill="#000000" font-family="Arial" font-size="12" lengthAdjust="spacing" textLength="100.0687" x="823.8144" y="466.5752">&#224; jour disponibles</text></g><!--entity UC_StartUpdate--><g class="entity" data-qualified-name=".uc_01.2. Syst.me EauS.re -Vue utilisateur .suite..UC_StartUpdate" data-source-line="29" id="ent0012"><ellipse cx="952.0756" cy="560.2502" fill="#EAF4FB" rx="76.7899" ry="24.7678" style="stroke:#2C7BB6;stroke-width:1.5;"/><text fill="#000000" font-family="Arial" font-size="12" lengthAdjust="spacing" textLength="110.8088" x="896.6712" y="558.717">Lancer le processus</text><text fill="#000000" font-family="Arial" font-size="12" lengthAdjust="spacing" textLength="79.8006" x="912.1753" y="575.0611">de mise &#224; jour</text></g><!--entity UC_TechSupport--><g class="entity" data-qualified-name=".uc_01.2. Syst.me EauS.re -Vue utilisateur .suite..UC_TechSupport" data-source-line="31" id="ent0013"><ellipse cx="686.1571" cy="452.5606" fill="#EAF4FB" rx="83.8682" ry="24.4306" style="stroke:#2C7BB6;stroke-width:1.5;"/><text fill="#000000" font-family="Arial" font-size="12" lengthAdjust="spacing" textLength="77.2685" x="647.5228" y="446.578">Demander de</text><text fill="#000000" font-family="Arial" font-size="12" lengthAdjust="spacing" textLength="123.3489" x="624.4826" y="462.9221">l'assistance technique</text></g><!--entity UC_ReportIssue--><g class="entity" data-qualified-name=".uc_01.2. Syst.me EauS.re -Vue utilisateur .suite..UC_ReportIssue" data-source-line="32" id="ent0014"><ellipse cx="714.1131" cy="560.8593" fill="#EAF4FB" rx="93.5346" ry="25.3769" style="stroke:#2C7BB6;stroke-width:1.5;"/><text fill="#000000" font-family="Arial" font-size="12" lengthAdjust="spacing" textLength="113.8088" x="657.2087" y="556.2991">R&#233;clamer un bug ou</text><text fill="#000000" font-family="Arial" font-size="12" lengthAdjust="spacing" textLength="132.2529" x="647.9867" y="572.6432">un probl&#232;me technique</text></g><!--entity UC_ContactAdmin--><g class="entity" data-qualified-name=".uc_01.2. Syst.me EauS.re -Vue utilisateur .suite..UC_ContactAdmin" data-source-line="33" id="ent0015"><ellipse cx="521.0121" cy="561.1922" fill="#EAF4FB" rx="79.5664" ry="25.7098" style="stroke:#2C7BB6;stroke-width:1.5;"/><text fill="#000000" font-family="Arial" font-size="12" lengthAdjust="spacing" textLength="110.2088" x="465.9077" y="558.2691">Communiquer avec</text><text fill="#000000" font-family="Arial" font-size="12" lengthAdjust="spacing" textLength="102.1327" x="469.9458" y="574.6132">un administrateur</text></g><!--entity User--><g class="entity" data-qualified-name="User" data-source-line="16" id="ent0002"><ellipse cx="858.7667" cy="28.5" fill="#FFF8E7" rx="16" ry="16" style="stroke:#E69500;stroke-width:0.5;"/><path d="M858.7667,48.5 C862.7667,48.5 865.7667,48.5 869.7667,44.5 C877.7667,44.5 885.7667,52.5 885.7667,60.5 L885.7667,64.5 C885.7667,68.5 881.7667,72.5 877.7667,72.5 L839.7667,72.5 C835.7667,72.5 831.7667,68.5 831.7667,64.5 L831.7667,60.5 C831.7667,52.5 839.7667,44.5 847.7667,44.5 C851.7667,48.5 854.7667,48.5 858.7667,48.5" fill="#FFF8E7" style="stroke:#E69500;stroke-width:0.5;"/><text fill="#000000" font-family="Arial" font-size="12" lengthAdjust="spacing" textLength="58.3444" x="829.5945" y="85.8281">Utilisateur</text></g><line style="stroke:#444444;stroke-width:1;" x1="858.7667" x2="858.7667" y1="89.3441" y2="174.3441"/><polygon fill="#444444" points="858.7667,174.3441,862.7667,165.3441,858.7667,169.3441,854.7667,165.3441,858.7667,174.3441" style="stroke:#444444;stroke-width:1;"/><line style="stroke:#444444;stroke-width:1;" x1="873.3528" x2="873.3528" y1="89.3441" y2="119.3441"/><line style="stroke:#444444;stroke-width:1;" x1="873.3528" x2="964.9136" y1="119.3441" y2="119.3441"/><line style="stroke:#444444;stroke-width:1;" x1="964.9136" x2="964.9136" y1="119.3441" y2="317.5815"/><polygon fill="#444444" points="964.9136,317.5815,968.9136,308.5815,964.9136,312.5815,960.9136,308.5815,964.9136,317.5815" style="stroke:#444444;stroke-width:1;"/><line style="stroke:#444444;stroke-width:1;" x1="844.1806" x2="844.1806" y1="89.3441" y2="119.3441"/><line style="stroke:#444444;stroke-width:1;" x1="844.1806" x2="27" y1="119.3441" y2="119.3441"/><line style="stroke:#444444;stroke-width:1;" x1="27" x2="27" y1="119.3441" y2="417.2589"/><line style="stroke:#444444;stroke-width:1;" x1="27" x2="658.201" y1="417.2589" y2="417.2589"/><line style="stroke:#444444;stroke-width:1;" x1="658.201" x2="658.201" y1="417.2589" y2="428.13"/><polygon fill="#444444" points="658.201,428.13,662.201,419.13,658.201,423.13,654.201,419.13,658.201,428.13" style="stroke:#444444;stroke-width:1;"/><line style="stroke:#444444;stroke-width:1;stroke-dasharray:7,7;" x1="825.6994" x2="825.6994" y1="210.0069" y2="230.0069"/><line style="stroke:#444444;stroke-width:1;stroke-dasharray:7,7;" x1="825.6994" x2="273.5101" y1="230.0069" y2="230.0069"/><line style="stroke:#444444;stroke-width:1;stroke-dasharray:7,7;" x1="273.5101" x2="273.5101" y1="230.0069" y2="307.6269"/><polygon fill="#444444" points="825.6994,210.0069,821.6994,219.0069,825.6994,215.0069,829.6994,219.0069,825.6994,210.0069" style="stroke:#444444;stroke-width:1;"/><text fill="#000000" font-family="Arial" font-size="10" lengthAdjust="spacing" textLength="42.69" x="226.8202" y="282.6969">&#171;extend&#187;</text><line style="stroke:#444444;stroke-width:1;stroke-dasharray:7,7;" x1="803.6546" x2="803.6546" y1="210.0069" y2="220.0069"/><line style="stroke:#444444;stroke-width:1;stroke-dasharray:7,7;" x1="803.6546" x2="111.8997" y1="220.0069" y2="220.0069"/><line style="stroke:#444444;stroke-width:1;stroke-dasharray:7,7;" x1="111.8997" x2="111.8997" y1="220.0069" y2="307.6269"/><polygon fill="#444444" points="803.6546,210.0069,799.6546,219.0069,803.6546,215.0069,807.6546,219.0069,803.6546,210.0069" style="stroke:#444444;stroke-width:1;"/><text fill="#000000" font-family="Arial" font-size="10" lengthAdjust="spacing" textLength="42.69" x="65.2097" y="282.6969">&#171;extend&#187;</text><line style="stroke:#444444;stroke-width:1;stroke-dasharray:7,7;" x1="891.834" x2="891.834" y1="210.0069" y2="260.0069"/><line style="stroke:#444444;stroke-width:1;stroke-dasharray:7,7;" x1="891.834" x2="766.8074" y1="260.0069" y2="260.0069"/><line style="stroke:#444444;stroke-width:1;stroke-dasharray:7,7;" x1="766.8074" x2="766.8074" y1="260.0069" y2="307.6269"/><polygon fill="#444444" points="891.834,210.0069,887.834,219.0069,891.834,215.0069,895.834,219.0069,891.834,210.0069" style="stroke:#444444;stroke-width:1;"/><text fill="#000000" font-family="Arial" font-size="10" lengthAdjust="spacing" textLength="42.69" x="720.1174" y="282.6969">&#171;extend&#187;</text><line style="stroke:#444444;stroke-width:1;stroke-dasharray:7,7;" x1="847.7443" x2="847.7443" y1="210.0069" y2="240.0069"/><line style="stroke:#444444;stroke-width:1;stroke-dasharray:7,7;" x1="847.7443" x2="436.9463" y1="240.0069" y2="240.0069"/><line style="stroke:#444444;stroke-width:1;stroke-dasharray:7,7;" x1="436.9463" x2="436.9463" y1="240.0069" y2="307.6269"/><polygon fill="#444444" points="847.7443,210.0069,843.7443,219.0069,847.7443,215.0069,851.7443,219.0069,847.7443,210.0069" style="stroke:#444444;stroke-width:1;"/><text fill="#000000" font-family="Arial" font-size="10" lengthAdjust="spacing" textLength="42.69" x="390.2563" y="282.6969">&#171;extend&#187;</text><line style="stroke:#444444;stroke-width:1;stroke-dasharray:7,7;" x1="869.7891" x2="869.7891" y1="210.0069" y2="250.0069"/><line style="stroke:#444444;stroke-width:1;stroke-dasharray:7,7;" x1="869.7891" x2="601.7212" y1="250.0069" y2="250.0069"/><line style="stroke:#444444;stroke-width:1;stroke-dasharray:7,7;" x1="601.7212" x2="601.7212" y1="250.0069" y2="307.6269"/><polygon fill="#444444" points="869.7891,210.0069,865.7891,219.0069,869.7891,215.0069,873.7891,219.0069,869.7891,210.0069" style="stroke:#444444;stroke-width:1;"/><text fill="#000000" font-family="Arial" font-size="10" lengthAdjust="spacing" textLength="42.69" x="555.0313" y="282.6969">&#171;extend&#187;</text><line style="stroke:#444444;stroke-width:1;stroke-dasharray:7,7;" x1="939.3962" x2="939.3962" y1="353.0024" y2="379.6389"/><line style="stroke:#444444;stroke-width:1;stroke-dasharray:7,7;" x1="939.3962" x2="873.8488" y1="379.6389" y2="379.6389"/><line style="stroke:#444444;stroke-width:1;stroke-dasharray:7,7;" x1="873.8488" x2="873.8488" y1="379.6389" y2="427.2589"/><polygon fill="#444444" points="939.3962,353.0024,935.3962,362.0024,939.3962,358.0024,943.3962,362.0024,939.3962,353.0024" style="stroke:#444444;stroke-width:1;"/><text fill="#000000" font-family="Arial" font-size="10" lengthAdjust="spacing" textLength="42.69" x="827.1588" y="402.3288">&#171;extend&#187;</text><line style="stroke:#444444;stroke-width:1;stroke-dasharray:7,7;" x1="977.6723" x2="977.6723" y1="353.0024" y2="535.4824"/><polygon fill="#444444" points="977.6723,353.0024,973.6723,362.0024,977.6723,358.0024,981.6723,362.0024,977.6723,353.0024" style="stroke:#444444;stroke-width:1;"/><text fill="#000000" font-family="Arial" font-size="10" lengthAdjust="spacing" textLength="42.69" x="982.6723" y="456.4406">&#171;extend&#187;</text><line style="stroke:#444444;stroke-width:1;stroke-dasharray:7,7;" x1="873.8488" x2="873.8488" y1="477.8624" y2="525.4824"/><line style="stroke:#444444;stroke-width:1;stroke-dasharray:7,7;" x1="873.8488" x2="926.479" y1="525.4824" y2="525.4824"/><line style="stroke:#444444;stroke-width:1;stroke-dasharray:7,7;" x1="926.479" x2="926.479" y1="525.4824" y2="535.4824"/><polygon fill="#444444" points="873.8488,477.8624,869.8488,486.8624,873.8488,482.8624,877.8488,486.8624,873.8488,477.8624" style="stroke:#444444;stroke-width:1;"/><text fill="#000000" font-family="Arial" font-size="10" lengthAdjust="spacing" textLength="44.29" x="825.5588" y="510.5524">&#171;include&#187;</text><line style="stroke:#444444;stroke-width:1;stroke-dasharray:7,7;" x1="714.1131" x2="714.1131" y1="476.9912" y2="535.4824"/><polygon fill="#444444" points="714.1131,476.9912,710.1131,485.9912,714.1131,481.9912,718.1131,485.9912,714.1131,476.9912" style="stroke:#444444;stroke-width:1;"/><text fill="#000000" font-family="Arial" font-size="10" lengthAdjust="spacing" textLength="42.69" x="667.4232" y="510.5524">&#171;extend&#187;</text><line style="stroke:#444444;stroke-width:1;stroke-dasharray:7,7;" x1="658.201" x2="658.201" y1="476.9912" y2="487.8624"/><line style="stroke:#444444;stroke-width:1;stroke-dasharray:7,7;" x1="658.201" x2="521.0121" y1="487.8624" y2="487.8624"/><line style="stroke:#444444;stroke-width:1;stroke-dasharray:7,7;" x1="521.0121" x2="521.0121" y1="487.8624" y2="535.4824"/><polygon fill="#444444" points="658.201,476.9912,654.201,485.9912,658.201,481.9912,662.201,485.9912,658.201,476.9912" style="stroke:#444444;stroke-width:1;"/><text fill="#000000" font-family="Arial" font-size="10" lengthAdjust="spacing" textLength="42.69" x="474.3222" y="510.5524">&#171;extend&#187;</text><?plantuml-src ZPNDRjj64CVlV8gfUd1pa6iR-MWBmu3iI6s198V8xYKEWZ4v4hTQxjAxitRTek_IO_KCFVB5EYIbUFbXm0GaKTgT7sV-yv_LDwN3TO6WyS461jAR965R0bkuiSosW4mvIbbPaoH-eqo93kL7Mc7GlB26Fs11C7CAzVZwKlr9S7mIBMBArYtvGHFWFNbRKBGOFANewTowZDo5rTR1joSNRyxFNuzimdIpTZQORBTnFbkyN9m_HRlCLRenv3qS7xwADisSi_SxmilcwYy-rd7KhsEGmsAn-67-Ph0jhcV--iTNHp79vvZPUsNMi4BjAKcQ69XSiTBA8rDm4q0FLvvSajJzGBCM-IQVGlhbwFZmv3Ci7pnN_qehvXYMrN-EOFfR80YF1FZE1yNqOW9_9GdifO79XJKhjGwE70ZIxpWJ6Bdg52w-j07r0wc8GM-hxKePLMCyU0fA-skJ4Tm6r8ghBMG7X64IaPR4bxaZdrkT-HWr4yVTaVi-gxOUs_jhKsDHasFvr3QLMp_PazxLtsVrOeVpiTgAJf8HmifLszj09gKcAT7YJab6rPQHuvn-8TISBnpTFWyaXUbgMmZ7gQ-gjQXBqbGGkuS-RRoy0pIifcaUE5A_9SraPO5QTnhtSxLjc-QXK5xUgt_WTrjRvQdErVwvAZEnm_jrmPtwACt9rQz7thNP0UKCyAKrwgPHV6U2dD9Do-ee_Wv5cCP9fREf35jeJL0JUmdkFC3ek0LrgdjB1KgWF9mQRRnNdciuiEHgbBIWhtQQBqDPMiUzpgLQpYW7mS1DM8CDrqPk9RqRtKnCn6j97wc6_2gvKtTGYY8q6ntW7QKD1hD2FE_PxQQqDoWixPtLMvA_awIM7wRJiy4GnGkz7iLBSON90Um75vlJkSU4qyF3mOZ1Jt1wIdymcUpixAc8Q9IaakT4F8uCF3EYCndFYjXFGAjl9qAaU1_xFncek8V4fXqyTJmaikT8QJ5lBA0DKIRL8QCsrTbN8oVTbku1aVk6JnpP7xji8CpSbvYAr8P13XbMqjg1mjDFkSeoCf_bFyYCct2WpaXCxCx_0G00?></g></svg>