<svg xmlns="http://www.w3.org/2000/svg" xmlns:xlink="http://www.w3.org/1999/xlink" contentStyleType="text/css" data-diagram-type="DESCRIPTION" height="1232px" preserveAspectRatio="none" style="width:908px;height:1232px;background:#FFFFFF;" version="1.1" viewBox="0 0 908 1232" width="908px" zoomAndPan="magnify"><?plantuml 1.2026.3beta6?><defs/><g><!--cluster  Syst?me EauS?re--><g class="cluster" data-qualified-name=" Syst.me EauS.re" data-source-line="22" id="ent0004"><rect fill="none" height="863" rx="2.5" ry="2.5" style="stroke:#181818;stroke-width:1;" width="690.89" x="203.8" y="7"/><text fill="#000000" font-family="Arial" font-size="12" font-weight="700" lengthAdjust="spacing" textLength="118.3828" x="492.1425" y="20.1387">Syst&#232;me EauS&#251;re</text></g><!--entity UC_Dashboard--><g class="entity" data-qualified-name=" Syst.me EauS.re.UC_Dashboard" data-source-line="25" id="ent0005"><ellipse cx="324.019" cy="69.0003" fill="#EAF4FB" rx="66.439" ry="21.5603" style="stroke:#2C7BB6;stroke-width:1.5;"/><text fill="#000000" font-family="Arial" font-size="12" lengthAdjust="spacing" textLength="67.4941" x="290.2719" y="63.7528">Acc&#233;der au</text><text fill="#000000" font-family="Arial" font-size="12" lengthAdjust="spacing" textLength="95.4902" x="276.2739" y="77.7215">tableau de bord</text></g><!--entity UC_HardwareMgmt--><g class="entity" data-qualified-name=" Syst.me EauS.re.UC_HardwareMgmt" data-source-line="26" id="ent0006"><ellipse cx="324.0189" cy="142.0035" fill="#EAF4FB" rx="48.9389" ry="20.9435" style="stroke:#2C7BB6;stroke-width:1.5;"/><text fill="#000000" font-family="Arial" font-size="12" lengthAdjust="spacing" textLength="33.9316" x="307.053" y="135.7973">G&#233;rer</text><text fill="#000000" font-family="Arial" font-size="12" lengthAdjust="spacing" textLength="71.5254" x="288.2562" y="149.766">le hardware</text></g><!--entity UC_ConfigSystem--><g class="entity" data-qualified-name=" Syst.me EauS.re.UC_ConfigSystem" data-source-line="27" id="ent0007"><ellipse cx="324.0153" cy="216.0008" fill="#EAF4FB" rx="48.8353" ry="22.6108" style="stroke:#2C7BB6;stroke-width:1.5;"/><text fill="#000000" font-family="Arial" font-size="12" lengthAdjust="spacing" textLength="63.3574" x="292.3366" y="212.2964">Configurer</text><text fill="#000000" font-family="Arial" font-size="12" lengthAdjust="spacing" textLength="65.2969" x="291.3669" y="226.2652">le syst&#232;me</text></g><!--entity UC_UserUpdateMgmt--><g class="entity" data-qualified-name=" Syst.me EauS.re.UC_UserUpdateMgmt" data-source-line="28" id="ent0008"><ellipse cx="324.022" cy="288.9987" fill="#EAF4FB" rx="62.362" ry="20.7487" style="stroke:#2C7BB6;stroke-width:1.5;"/><text fill="#000000" font-family="Arial" font-size="12" lengthAdjust="spacing" textLength="93.4395" x="277.3023" y="288.518">G&#233;rer les mises</text><text fill="#000000" font-family="Arial" font-size="12" lengthAdjust="spacing" textLength="34.3828" x="306.8306" y="302.4868">&#224; jour</text></g><!--entity UC_TechSupport--><g class="entity" data-qualified-name=" Syst.me EauS.re.UC_TechSupport" data-source-line="29" id="ent0009"><ellipse cx="324.024" cy="361.0048" fill="#EAF4FB" rx="96.224" ry="21.6448" style="stroke:#2C7BB6;stroke-width:1.5;"/><text fill="#000000" font-family="Arial" font-size="12" lengthAdjust="spacing" textLength="155.5547" x="246.2467" y="361.1946">Demander de l'assistance</text><text fill="#000000" font-family="Arial" font-size="12" lengthAdjust="spacing" textLength="59.8359" x="294.1061" y="375.1634">technique</text></g><!--entity UC_ManageUsers--><g class="entity" data-qualified-name=" Syst.me EauS.re.UC_ManageUsers" data-source-line="33" id="ent0010"><ellipse cx="568.4644" cy="456.9974" fill="#EAF4FB" rx="84.0044" ry="21.0574" style="stroke:#2C7BB6;stroke-width:1.5;"/><text fill="#000000" font-family="Arial" font-size="12" lengthAdjust="spacing" textLength="125.3262" x="505.8013" y="456.0231">G&#233;rer les utilisateurs</text><text fill="#000000" font-family="Arial" font-size="12" lengthAdjust="spacing" textLength="65.9297" x="535.4995" y="469.9919">et les r&#244;les</text></g><!--entity UC_PreregisterEquip--><g class="entity" data-qualified-name=" Syst.me EauS.re.UC_PreregisterEquip" data-source-line="34" id="ent0011"><ellipse cx="568.4623" cy="530.0019" fill="#EAF4FB" rx="71.7523" ry="22.3319" style="stroke:#2C7BB6;stroke-width:1.5;"/><text fill="#000000" font-family="Arial" font-size="12" lengthAdjust="spacing" textLength="90.3457" x="523.2895" y="525.8971">Pr&#233;-enregistrer</text><text fill="#000000" font-family="Arial" font-size="12" lengthAdjust="spacing" textLength="99.3574" x="518.7836" y="539.8659">les &#233;quipements</text></g><!--entity UC_AdminSupervision--><g class="entity" data-qualified-name=" Syst.me EauS.re.UC_AdminSupervision" data-source-line="35" id="ent0012"><ellipse cx="568.4569" cy="604.0018" fill="#EAF4FB" rx="85.2069" ry="21.9418" style="stroke:#2C7BB6;stroke-width:1.5;"/><text fill="#000000" font-family="Arial" font-size="12" lengthAdjust="spacing" textLength="98.7539" x="519.08" y="599.3262">Superviser l'&#233;tat</text><text fill="#000000" font-family="Arial" font-size="12" lengthAdjust="spacing" textLength="121.248" x="507.8329" y="613.295">global de la solution</text></g><!--entity UC_MaintainSystem--><g class="entity" data-qualified-name=" Syst.me EauS.re.UC_MaintainSystem" data-source-line="36" id="ent0013"><ellipse cx="568.461" cy="678.0011" fill="#EAF4FB" rx="47.761" ry="22.1511" style="stroke:#2C7BB6;stroke-width:1.5;"/><text fill="#000000" font-family="Arial" font-size="12" lengthAdjust="spacing" textLength="56.6074" x="540.1572" y="673.6335">Maintenir</text><text fill="#000000" font-family="Arial" font-size="12" lengthAdjust="spacing" textLength="65.2969" x="535.8125" y="687.6023">le syst&#232;me</text></g><!--entity UC_HandleIssues--><g class="entity" data-qualified-name=" Syst.me EauS.re.UC_HandleIssues" data-source-line="37" id="ent0014"><ellipse cx="568.4637" cy="751.0047" fill="#EAF4FB" rx="93.6737" ry="21.1347" style="stroke:#2C7BB6;stroke-width:1.5;"/><text fill="#000000" font-family="Arial" font-size="12" lengthAdjust="spacing" textLength="142.4531" x="497.2372" y="750.2512">Traiter les r&#233;clamations</text><text fill="#000000" font-family="Arial" font-size="12" lengthAdjust="spacing" textLength="70.3359" x="533.2958" y="764.2199">et incidents</text></g><!--entity UC_DocumentSupport--><g class="entity" data-qualified-name=" Syst.me EauS.re.UC_DocumentSupport" data-source-line="38" id="ent0015"><ellipse cx="568.4586" cy="824.0017" fill="#EAF4FB" rx="97.2086" ry="21.8417" style="stroke:#2C7BB6;stroke-width:1.5;"/><text fill="#000000" font-family="Arial" font-size="12" lengthAdjust="spacing" textLength="151.8574" x="492.5299" y="823.3168">Fournir la documentation</text><text fill="#000000" font-family="Arial" font-size="12" lengthAdjust="spacing" textLength="85.623" x="525.6471" y="837.2856">et l'assistance</text></g><!--entity UC_Auth--><g class="entity" data-qualified-name=" Syst.me EauS.re.UC_Auth" data-source-line="41" id="ent0016"><ellipse cx="822.1803" cy="530.0021" fill="#EAF4FB" rx="56.5103" ry="13.7021" style="stroke:#2C7BB6;stroke-width:1.5;"/><text fill="#000000" font-family="Arial" font-size="12" lengthAdjust="spacing" textLength="81.0879" x="781.6363" y="533.4864">S'authentifier</text></g><!--entity User--><g class="entity" data-qualified-name="User" data-source-line="19" id="ent0002"><ellipse cx="83.9013" cy="268.02" fill="#FFF8E7" rx="16" ry="16" style="stroke:#E69500;stroke-width:0.5;"/><path d="M83.9013,288.02 C87.9013,288.02 90.9013,288.02 94.9013,284.02 C102.9013,284.02 110.9013,292.02 110.9013,300.02 L110.9013,304.02 C110.9013,308.02 106.9013,312.02 102.9013,312.02 L64.9013,312.02 C60.9013,312.02 56.9013,308.02 56.9013,304.02 L56.9013,300.02 C56.9013,292.02 64.9013,284.02 72.9013,284.02 C76.9013,288.02 79.9013,288.02 83.9013,288.02" fill="#FFF8E7" style="stroke:#E69500;stroke-width:0.5;"/><text fill="#000000" font-family="Arial" font-size="12" lengthAdjust="spacing" textLength="61.7227" x="53.04" y="323.6587">Utilisateur</text></g><!--entity Admin--><g class="entity" data-qualified-name="Admin" data-source-line="20" id="ent0003"><ellipse cx="324.0201" cy="984.04" fill="#FFF8E7" rx="16" ry="16" style="stroke:#E69500;stroke-width:0.5;"/><path d="M324.0201,1004.04 C328.0201,1004.04 331.0201,1004.04 335.0201,1000.04 C343.0201,1000.04 351.0201,1008.04 351.0201,1016.04 L351.0201,1020.04 C351.0201,1024.04 347.0201,1028.04 343.0201,1028.04 L305.0201,1028.04 C301.0201,1028.04 297.0201,1024.04 297.0201,1020.04 L297.0201,1016.04 C297.0201,1008.04 305.0201,1000.04 313.0201,1000.04 C317.0201,1004.04 320.0201,1004.04 324.0201,1004.04" fill="#FFF8E7" style="stroke:#E69500;stroke-width:0.5;"/><text fill="#000000" font-family="Arial" font-size="12" lengthAdjust="spacing" textLength="89.6602" x="279.19" y="1039.6787">Administrateur</text><text fill="#000000" font-family="Arial" font-size="12" lengthAdjust="spacing" textLength="80.2324" x="279.19" y="1053.6474">(propri&#233;taire)</text></g><g class="entity" data-qualified-name="GMN54" data-source-line="101" id="ent0055"><path d="M6,356.04 L6,393.9775 A0,0 0 0 0 6,393.9775 L161.8008,393.9775 A0,0 0 0 0 161.8008,393.9775 L161.8008,366.04 L151.8008,356.04 L87.9,356.04 L83.9,326.87 L79.9,356.04 L6,356.04 A0,0 0 0 0 6,356.04" fill="#FEFFDD" style="stroke:#181818;stroke-width:0.5;"/><path d="M151.8008,356.04 L151.8008,366.04 L161.8008,366.04 L151.8008,356.04" fill="#FEFFDD" style="stroke:#181818;stroke-width:0.5;"/><text fill="#000000" font-family="Arial" font-size="12" lengthAdjust="spacing" textLength="110.2383" x="12" y="372.1787">Voir UC-01 pour le</text><text fill="#000000" font-family="Arial" font-size="12" lengthAdjust="spacing" textLength="134.8008" x="12" y="386.1474">raffinement utilisateur</text></g><g class="entity" data-qualified-name="GMN57" data-source-line="106" id="ent0058"><path d="M230.09,886.05 L230.09,937.9563 A0,0 0 0 0 230.09,937.9563 L320.02,937.9563 L324.02,967.08 L328.02,937.9563 L417.965,937.9563 A0,0 0 0 0 417.965,937.9563 L417.965,896.05 L407.965,886.05 L230.09,886.05 A0,0 0 0 0 230.09,886.05" fill="#FEFFDD" style="stroke:#181818;stroke-width:0.5;"/><path d="M407.965,886.05 L407.965,896.05 L417.965,896.05 L407.965,886.05" fill="#FEFFDD" style="stroke:#181818;stroke-width:0.5;"/><text fill="#000000" font-family="Arial" font-size="12" lengthAdjust="spacing" textLength="104.8945" x="236.09" y="902.1887">R&#244;le propri&#233;taire.</text><text fill="#000000" font-family="Arial" font-size="12" lengthAdjust="spacing" textLength="110.2383" x="236.09" y="916.1574">Voir UC-02 pour le</text><text fill="#000000" font-family="Arial" font-size="12" lengthAdjust="spacing" textLength="166.875" x="236.09" y="930.1262">raffinement administrateur.</text></g><!--link UC_Dashboard to UC_ManageUsers--><!--link UC_Dashboard to UC_HardwareMgmt--><!--link UC_HardwareMgmt to UC_ConfigSystem--><!--link UC_ConfigSystem to UC_UserUpdateMgmt--><!--link UC_UserUpdateMgmt to UC_TechSupport--><!--link UC_ManageUsers to UC_PreregisterEquip--><!--link UC_PreregisterEquip to UC_AdminSupervision--><!--link UC_AdminSupervision to UC_MaintainSystem--><!--link UC_MaintainSystem to UC_HandleIssues--><!--link UC_HandleIssues to UC_DocumentSupport--><!--link UC_TechSupport to UC_Auth--><!--link UC_TechSupport to UC_Auth--><g class="link" data-entity-1="ent0009" data-entity-2="ent0016" data-link-type="dependency" data-source-line="91" id="lnk47"><path d="M419.74,357.87 C491.37,358.35 591.15,365.21 673.67,394 C739.11,416.84 788.5766,481.3881 808.8566,511.2181" fill="none" id="UC_TechSupport-to-UC_Auth" style="stroke:#444444;stroke-width:1;stroke-dasharray:7,7;"/><polygon fill="#444444" points="812.23,516.18,810.4779,506.4882,809.4189,512.0451,803.862,510.9861,812.23,516.18" style="stroke:#444444;stroke-width:1;"/><text fill="#000000" font-family="Arial" font-size="10" lengthAdjust="spacing" textLength="48.4668" x="544.46" y="356.2822">&#171;include&#187;</text></g><!--link UC_DocumentSupport to UC_Auth--><!--link UC_DocumentSupport to UC_Auth--><g class="link" data-entity-1="ent0015" data-entity-2="ent0016" data-link-type="dependency" data-source-line="98" id="lnk53"><path d="M665.98,824.65 C692.85,820.36 720.23,811.16 740.67,793 C816.7,725.45 821.9916,594.2398 821.6116,550.0498" fill="none" id="UC_DocumentSupport-to-UC_Auth" style="stroke:#444444;stroke-width:1;stroke-dasharray:7,7;"/><polygon fill="#444444" points="821.56,544.05,817.6375,553.0841,821.603,549.0498,825.6372,553.0153,821.56,544.05" style="stroke:#444444;stroke-width:1;"/><text fill="#000000" font-family="Arial" font-size="10" lengthAdjust="spacing" textLength="48.4668" x="691.67" y="790.2822">&#171;include&#187;</text></g><!--link User to Admin--><!--link User to UC_Auth--><g class="link" data-entity-1="ent0002" data-entity-2="ent0016" data-link-type="dependency" data-source-line="68" id="lnk30"><path d="M115.03,301.1 C131.92,309.58 151.59,322.71 161.8,341 C201.35,411.92 136.37,1015.67 195.8,1071 C353.45,1217.8 504.72,1123.64 673.67,990 C821.34,873.2 823.6122,613.4978 821.8922,549.8778" fill="none" id="User-to-UC_Auth" style="stroke:#444444;stroke-width:1;"/><polygon fill="#444444" points="821.73,543.88,817.9747,552.9848,821.8651,548.8782,825.9718,552.7686,821.73,543.88" style="stroke:#444444;stroke-width:1;"/></g><!--link Admin to UC_Auth--><g class="link" data-entity-1="ent0003" data-entity-2="ent0016" data-link-type="dependency" data-source-line="69" id="lnk31"><path d="M369.11,1005.64 C454.92,990.82 644.41,945.66 740.67,826 C812.11,737.21 820.2681,596.0191 821.0481,550.1191" fill="none" id="Admin-to-UC_Auth" style="stroke:#444444;stroke-width:1;"/><polygon fill="#444444" points="821.15,544.12,816.9977,553.0507,821.065,549.1193,824.9965,553.1867,821.15,544.12" style="stroke:#444444;stroke-width:1;"/></g><!--link User to UC_Dashboard--><g class="link" data-entity-1="ent0002" data-entity-2="ent0005" data-link-type="dependency" data-source-line="72" id="lnk32"><path d="M98.09,251.35 C114.58,209.74 146.73,143.66 195.8,106 C214.87,91.37 233.7319,83.9045 256.2919,78.5545" fill="none" id="User-to-UC_Dashboard" style="stroke:#444444;stroke-width:1;"/><polygon fill="#444444" points="262.13,77.17,252.4499,75.3547,257.2649,78.3237,254.2959,83.1388,262.13,77.17" style="stroke:#444444;stroke-width:1;"/></g><!--link User to UC_HardwareMgmt--><g class="link" data-entity-1="ent0002" data-entity-2="ent0006" data-link-type="dependency" data-source-line="73" id="lnk33"><path d="M114.1,251.06 C134.55,226.91 163.85,196.76 195.8,178 C220.84,163.3 246.3273,155.5693 271.6473,150.2693" fill="none" id="User-to-UC_HardwareMgmt" style="stroke:#444444;stroke-width:1;"/><polygon fill="#444444" points="277.52,149.04,267.8914,146.9688,272.6261,150.0644,269.5304,154.7991,277.52,149.04" style="stroke:#444444;stroke-width:1;"/></g><!--link User to UC_ConfigSystem--><g class="link" data-entity-1="ent0002" data-entity-2="ent0007" data-link-type="dependency" data-source-line="74" id="lnk34"><path d="M114.95,278.97 C137.21,271.61 168.33,261.46 195.8,253 C224.38,244.21 250.9711,236.4592 275.9111,229.3292" fill="none" id="User-to-UC_ConfigSystem" style="stroke:#444444;stroke-width:1;"/><polygon fill="#444444" points="281.68,227.68,271.9272,226.3079,276.8726,229.0544,274.1262,233.9998,281.68,227.68" style="stroke:#444444;stroke-width:1;"/></g><!--link User to UC_UserUpdateMgmt--><g class="link" data-entity-1="ent0002" data-entity-2="ent0008" data-link-type="dependency" data-source-line="75" id="lnk35"><path d="M115.06,289 C151.73,289 208.53,289 255.55,289" fill="none" id="User-to-UC_UserUpdateMgmt" style="stroke:#444444;stroke-width:1;"/><polygon fill="#444444" points="261.55,289,252.55,285,256.55,289,252.55,293,261.55,289" style="stroke:#444444;stroke-width:1;"/></g><!--link User to UC_TechSupport--><g class="link" data-entity-1="ent0002" data-entity-2="ent0009" data-link-type="dependency" data-source-line="76" id="lnk36"><path d="M114.93,299.09 C137.18,306.49 168.3,316.65 195.8,325 C217.22,331.51 234.9937,336.6568 255.9537,342.5468" fill="none" id="User-to-UC_TechSupport" style="stroke:#444444;stroke-width:1;"/><polygon fill="#444444" points="261.73,344.17,254.1477,337.8844,256.9164,342.8173,251.9835,345.586,261.73,344.17" style="stroke:#444444;stroke-width:1;"/></g><!--link Admin to UC_ManageUsers--><g class="link" data-entity-1="ent0003" data-entity-2="ent0010" data-link-type="dependency" data-source-line="79" id="lnk37"><path d="M369.17,998.18 C390.81,988.99 415.02,974.55 428.25,953 C448.04,920.77 441.49,650.64 445.25,613 C450.6,559.34 428.77,534.48 463.25,493 C472.43,481.96 479.5903,476.5061 493.0203,471.1961" fill="none" id="Admin-to-UC_ManageUsers" style="stroke:#444444;stroke-width:1;"/><polygon fill="#444444" points="498.6,468.99,488.7597,468.5794,493.9503,470.8284,491.7012,476.019,498.6,468.99" style="stroke:#444444;stroke-width:1;"/></g><!--link Admin to UC_PreregisterEquip--><g class="link" data-entity-1="ent0003" data-entity-2="ent0011" data-link-type="dependency" data-source-line="80" id="lnk38"><path d="M369.34,998.02 C390.9,988.8 414.96,974.4 428.25,953 C444.92,926.15 441.55,700.4 445.25,669 C450.63,623.29 433.52,602.15 463.25,567 C473.91,554.4 483.5103,548.082 499.0803,542.602" fill="none" id="Admin-to-UC_PreregisterEquip" style="stroke:#444444;stroke-width:1;"/><polygon fill="#444444" points="504.74,540.61,494.9225,539.8248,500.0236,542.27,497.5785,547.3711,504.74,540.61" style="stroke:#444444;stroke-width:1;"/></g><!--link Admin to UC_AdminSupervision--><g class="link" data-entity-1="ent0003" data-entity-2="ent0012" data-link-type="dependency" data-source-line="81" id="lnk39"><path d="M369.34,997.73 C390.76,988.47 414.7,974.11 428.25,953 C465.95,894.3 419.01,694.95 463.25,641 C472.32,629.94 479.3848,624.4571 492.7148,619.0171" fill="none" id="Admin-to-UC_AdminSupervision" style="stroke:#444444;stroke-width:1;"/><polygon fill="#444444" points="498.27,616.75,488.4258,616.4472,493.6407,618.6392,491.4486,623.8541,498.27,616.75" style="stroke:#444444;stroke-width:1;"/></g><!--link Admin to UC_MaintainSystem--><g class="link" data-entity-1="ent0003" data-entity-2="ent0013" data-link-type="dependency" data-source-line="82" id="lnk40"><path d="M369.16,997.32 C390.39,987.97 414.21,973.66 428.25,953 C458.29,908.78 429.23,756.24 463.25,715 C477.67,697.53 495.0865,689.6616 515.9865,684.7916" fill="none" id="Admin-to-UC_MaintainSystem" style="stroke:#444444;stroke-width:1;"/><polygon fill="#444444" points="521.83,683.43,512.1571,681.5768,516.9605,684.5647,513.9726,689.3681,521.83,683.43" style="stroke:#444444;stroke-width:1;"/></g><!--link Admin to UC_HandleIssues--><g class="link" data-entity-1="ent0003" data-entity-2="ent0014" data-link-type="dependency" data-source-line="83" id="lnk41"><path d="M369.12,996.69 C390.07,987.24 413.66,973.02 428.25,953 C450.45,922.53 438.31,815.27 463.25,787 C471.99,777.1 478.0649,772.2596 490.3449,767.0596" fill="none" id="Admin-to-UC_HandleIssues" style="stroke:#444444;stroke-width:1;"/><polygon fill="#444444" points="495.87,764.72,486.0227,764.546,491.2658,766.6697,489.1421,771.9128,495.87,764.72" style="stroke:#444444;stroke-width:1;"/></g><!--link Admin to UC_DocumentSupport--><g class="link" data-entity-1="ent0003" data-entity-2="ent0015" data-link-type="dependency" data-source-line="84" id="lnk42"><path d="M369.24,992.15 C388.64,982.13 410.9,968.75 428.25,953 C437.93,944.22 436.45,938.67 445.25,929 C474.44,896.95 508.3321,868.8884 534.2821,848.8384" fill="none" id="Admin-to-UC_DocumentSupport" style="stroke:#444444;stroke-width:1;"/><polygon fill="#444444" points="539.03,845.17,529.4625,847.5074,535.0734,848.227,534.3537,853.8379,539.03,845.17" style="stroke:#444444;stroke-width:1;"/></g><!--link UC_Dashboard to UC_Auth--><g class="link" data-entity-1="ent0005" data-entity-2="ent0016" data-link-type="dependency" data-source-line="87" id="lnk43"><path d="M387.74,62.26 C462.03,57.49 586.66,59.91 673.67,116 C816.99,208.41 822.5793,449.0207 821.6693,510.1507" fill="none" id="UC_Dashboard-to-UC_Auth" style="stroke:#444444;stroke-width:1;stroke-dasharray:7,7;"/><polygon fill="#444444" points="821.58,516.15,825.7135,507.2105,821.6544,511.1506,817.7144,507.0915,821.58,516.15" style="stroke:#444444;stroke-width:1;"/><text fill="#000000" font-family="Arial" font-size="10" lengthAdjust="spacing" textLength="48.4668" x="544.46" y="59.2822">&#171;include&#187;</text></g><!--link UC_HardwareMgmt to UC_Auth--><g class="link" data-entity-1="ent0006" data-entity-2="ent0016" data-link-type="dependency" data-source-line="88" id="lnk44"><path d="M371.9,136.93 C443.15,131.64 580.26,131.22 673.67,192 C791.46,268.66 815.1965,456.3712 819.7165,510.0412" fill="none" id="UC_HardwareMgmt-to-UC_Auth" style="stroke:#444444;stroke-width:1;stroke-dasharray:7,7;"/><polygon fill="#444444" points="820.22,516.02,823.4506,506.7161,819.8004,511.0376,815.4788,507.3874,820.22,516.02" style="stroke:#444444;stroke-width:1;"/><text fill="#000000" font-family="Arial" font-size="10" lengthAdjust="spacing" textLength="48.4668" x="544.46" y="133.2822">&#171;include&#187;</text></g><!--link UC_ConfigSystem to UC_Auth--><g class="link" data-entity-1="ent0007" data-entity-2="ent0016" data-link-type="dependency" data-source-line="89" id="lnk45"><path d="M372.43,211.79 C443.47,207.81 579.25,209.5 673.67,268 C768.62,326.85 806.5709,464.5391 816.9109,510.0591" fill="none" id="UC_ConfigSystem-to-UC_Auth" style="stroke:#444444;stroke-width:1;stroke-dasharray:7,7;"/><polygon fill="#444444" points="818.24,515.91,820.147,506.2475,817.1325,511.0342,812.3458,508.0196,818.24,515.91" style="stroke:#444444;stroke-width:1;"/><text fill="#000000" font-family="Arial" font-size="10" lengthAdjust="spacing" textLength="48.4668" x="544.46" y="209.2822">&#171;include&#187;</text></g><!--link UC_UserUpdateMgmt to UC_Auth--><g class="link" data-entity-1="ent0008" data-entity-2="ent0016" data-link-type="dependency" data-source-line="90" id="lnk46"><path d="M386.03,285.93 C458.65,284.84 581.66,291.29 673.67,339 C750.66,378.93 797.2162,473.6595 813.1162,510.5695" fill="none" id="UC_UserUpdateMgmt-to-UC_Auth" style="stroke:#444444;stroke-width:1;stroke-dasharray:7,7;"/><polygon fill="#444444" points="815.49,516.08,815.603,506.2318,813.5118,511.488,808.2557,509.3968,815.49,516.08" style="stroke:#444444;stroke-width:1;"/><text fill="#000000" font-family="Arial" font-size="10" lengthAdjust="spacing" textLength="48.4668" x="544.46" y="285.2822">&#171;include&#187;</text></g><!--link UC_ManageUsers to UC_Auth--><g class="link" data-entity-1="ent0010" data-entity-2="ent0016" data-link-type="dependency" data-source-line="93" id="lnk48"><path d="M624.7,473.02 C673.32,487.13 736.9873,505.5894 778.9673,517.7594" fill="none" id="UC_ManageUsers-to-UC_Auth" style="stroke:#444444;stroke-width:1;stroke-dasharray:7,7;"/><polygon fill="#444444" points="784.73,519.43,777.1996,513.0823,779.9277,518.0378,774.9722,520.7659,784.73,519.43" style="stroke:#444444;stroke-width:1;"/><text fill="#000000" font-family="Arial" font-size="10" lengthAdjust="spacing" textLength="48.4668" x="691.67" y="491.2822">&#171;include&#187;</text></g><!--link UC_PreregisterEquip to UC_Auth--><g class="link" data-entity-1="ent0011" data-entity-2="ent0016" data-link-type="dependency" data-source-line="94" id="lnk49"><path d="M640.58,530 C680.12,530 722.62,530 759.4,530" fill="none" id="UC_PreregisterEquip-to-UC_Auth" style="stroke:#444444;stroke-width:1;stroke-dasharray:7,7;"/><polygon fill="#444444" points="765.4,530,756.4,526,760.4,530,756.4,534,765.4,530" style="stroke:#444444;stroke-width:1;"/><text fill="#000000" font-family="Arial" font-size="10" lengthAdjust="spacing" textLength="48.4668" x="691.67" y="527.2822">&#171;include&#187;</text></g><!--link UC_AdminSupervision to UC_Auth--><g class="link" data-entity-1="ent0012" data-entity-2="ent0016" data-link-type="dependency" data-source-line="95" id="lnk50"><path d="M625.95,587.4 C674.65,573.08 737.7538,554.5331 779.3338,542.3031" fill="none" id="UC_AdminSupervision-to-UC_Auth" style="stroke:#444444;stroke-width:1;stroke-dasharray:7,7;"/><polygon fill="#444444" points="785.09,540.61,775.327,539.3122,780.2932,542.0209,777.5845,546.9871,785.09,540.61" style="stroke:#444444;stroke-width:1;"/><text fill="#000000" font-family="Arial" font-size="10" lengthAdjust="spacing" textLength="48.4668" x="691.67" y="551.2822">&#171;include&#187;</text></g><!--link UC_MaintainSystem to UC_Auth--><g class="link" data-entity-1="ent0013" data-entity-2="ent0016" data-link-type="dependency" data-source-line="96" id="lnk51"><path d="M610.26,666.69 C630.01,660.43 653.71,651.73 673.67,641 C726.74,612.48 776.9532,569.996 802.2532,547.306" fill="none" id="UC_MaintainSystem-to-UC_Auth" style="stroke:#444444;stroke-width:1;stroke-dasharray:7,7;"/><polygon fill="#444444" points="806.72,543.3,797.3492,546.3311,802.9977,546.6383,802.6905,552.2868,806.72,543.3" style="stroke:#444444;stroke-width:1;"/><text fill="#000000" font-family="Arial" font-size="10" lengthAdjust="spacing" textLength="48.4668" x="691.67" y="597.2822">&#171;include&#187;</text></g><!--link UC_HandleIssues to UC_Auth--><g class="link" data-entity-1="ent0014" data-entity-2="ent0016" data-link-type="dependency" data-source-line="97" id="lnk52"><path d="M630.37,734.78 C645.09,729.57 660.4,723.02 673.67,715 C745.74,671.45 794.2855,584.386 811.8455,549.286" fill="none" id="UC_HandleIssues-to-UC_Auth" style="stroke:#444444;stroke-width:1;stroke-dasharray:7,7;"/><polygon fill="#444444" points="814.53,543.92,806.9259,550.1793,812.2929,548.3916,814.0805,553.7586,814.53,543.92" style="stroke:#444444;stroke-width:1;"/><text fill="#000000" font-family="Arial" font-size="10" lengthAdjust="spacing" textLength="48.4668" x="691.67" y="658.2822">&#171;include&#187;</text></g><?plantuml-src XLRDRXit4BxhAGRgmSb1Wkt6ILi41cH5QdDm6rHsBtLHqBkZNTQxv8O_TPEYG4zzWA8Fq6Drxwr7lKcUfCFTbKHoTnN2Wh6SuSUPZzyCMU3QW96WU9ORIBd2n70fHYFzm4N552iXnJMpXLbAORvc9S9CSLRqsrVyFSBPkMTaYP5gPTuL2EmHjIpHCrgD2TDu9LMAQYuBgU2Jy_cBgwldFKuiUSYKj29j7HUpvRFbrH3QJSwJ1u5QmzdqmdEQAIKVMuHdzOYDXpnEupmwCIoNoyyMBpfkVZwBvvzVdFf8EcUfVEGYWpKhj4-7Ok91OmKNlhkGARh9Jqz7D6fy6DyQNd3D35er1gRXLgFQsMPfoGNNHjNcE_6aKh9IVBinZ4xtQUrV-un6xh2PoEXinh1wfyts7phU1REhxNyAn_3hQ0IaZGnDZeg-W4PBCcsJ9DiDfGdCtWd3xWjabgG0zvJy6EhX0fl_-8hf_5uobORhlznk559uj7bEnaVcTWn7i_whrdgTbIQ4c4knvfdTmUWsWt47ed5q6MBP5mKKgA7a6lMTsFuDFqb7QuJXABwjKYAr6yWhB9bmN53-nGdJckXd8a4Y1fDSyBSspAr1l27RobQLL0xkjsDaUs7Qmz5Jj6ZgIRNzb_u5j5ypmJ9qKUiGwutQRYOe56PE90rt6hQRjvPNMA8mkfFx6tAhtL4jd5i8I3cW-fdOem1FdCpC7MbAthEYveE1beLrJIK-tnryhSOTYci-0VmruqIZuCE77EFLA-ZNT-0tYd7JKab490KhcOkjuPABXATx2dRw4sc1hxMs636v99rGN2x5L2RMSLTZDSVYwM2yAuNMAphr0vCdpDBn2yFN7DLkrOpcHkHu0X_--ft-O8MkDRYTY61DF_kBwnqPKe1-mS7a-vodbCyFr73495R50V0RbIegGwduUsf-T6uDMjDM0iHwx67hIsFIATBektz5K9FHT_-Ag08xCtrh_1hxUBvDMmnf6aovKnGzStthEchlcUjR5wcwCpDqC9vwe--Xp6AP7eXpKWHIj2AoIFHAKYsDGfg7G6iLTy47NRrDaxhPqOOPiqbE6xfM4ukxlT8EgxIM2MzgkttNKCQinVhmnv-7e1guoUL-fiOAPWPmlNkuXOGI3NTLuq1RXCCDwC-69UCPmihm3741UAP-dGUnXk-2ADmWOxz918QEv4EYOc57e85y0riWqi0oBCNN8YaitI-r95EiBDUGv8okMfSMDKXQ1K_8W29rFHZMKjHFMu55WKzxsjfqkZzl-09UlkJD3fUNFGtjg6_KoexwHYtig6zKPSE-lItiA7IdSHtrxhIhezwTDlKHegC6TTGxxYR7I17IkEUfCR84kMukDu3l9DtWj_F9wHbKT9_Jmu0c5LklkQXVG_w3QqHQ0WVJWXbPEQIczG1ywrvX43otf_uEvmCxiA0of_jT_WS0?></g></svg>