<?plantuml 1.2026.2?><svg xmlns="http://www.w3.org/2000/svg" xmlns:xlink="http://www.w3.org/1999/xlink" contentStyleType="text/css" data-diagram-type="DESCRIPTION" height="597px" preserveAspectRatio="none" style="width:764px;height:597px;background:#FFFFFF;" version="1.1" viewBox="0 0 764 597" width="764px" zoomAndPan="magnify"><defs/><g><rect fill="none" height="457.584" rx="2.5" ry="2.5" style="stroke:#000000;stroke-width:1;" width="746.1379" x="12" y="134.3441"/><text fill="#000000" font-family="Arial" font-size="12" font-weight="bold" lengthAdjust="spacing" textLength="255.5658" x="257.2861" y="149.1722">[uc_01.1] Syst&#232;me EauS&#251;re - Vue utilisateur</text><!--entity UC_Dashboard--><g class="entity" data-qualified-name=".uc_01.1. Syst.me EauS.re - Vue utilisateur.UC_Dashboard" data-source-line="20" id="ent0004"><ellipse cx="598.7515" cy="199.012" fill="#EAF4FB" rx="62.539" ry="24.6679" style="stroke:#2C7BB6;stroke-width:1.5;"/><text fill="#000000" font-family="Arial" font-size="12" lengthAdjust="spacing" textLength="62.3284" x="567.5872" y="193.3935">Acc&#233;der au</text><text fill="#000000" font-family="Arial" font-size="12" lengthAdjust="spacing" textLength="89.8206" x="553.8411" y="209.7376">tableau de bord</text></g><!--entity UC_Realtime--><g class="entity" data-qualified-name=".uc_01.1. Syst.me EauS.re - Vue utilisateur.UC_Realtime" data-source-line="21" id="ent0005"><ellipse cx="287.3405" cy="325.5121" fill="#EAF4FB" rx="93.4011" ry="24.2122" style="stroke:#2C7BB6;stroke-width:1.5;"/><text fill="#000000" font-family="Arial" font-size="12" lengthAdjust="spacing" textLength="139.309" x="217.686" y="324.8349">Superviser les m&#233;triques</text><text fill="#000000" font-family="Arial" font-size="12" lengthAdjust="spacing" textLength="77.4606" x="248.6102" y="341.179">en temps r&#233;el</text></g><!--entity UC_HistoryStats--><g class="entity" data-qualified-name=".uc_01.1. Syst.me EauS.re - Vue utilisateur.UC_HistoryStats" data-source-line="22" id="ent0006"><ellipse cx="485.639" cy="326.4317" fill="#EAF4FB" rx="84.8974" ry="25.1318" style="stroke:#2C7BB6;stroke-width:1.5;"/><text fill="#000000" font-family="Arial" font-size="12" lengthAdjust="spacing" textLength="120.9609" x="425.1586" y="324.3532">Consulter l'historique</text><text fill="#000000" font-family="Arial" font-size="12" lengthAdjust="spacing" textLength="97.6807" x="436.7987" y="340.6973">et les statistiques</text></g><!--entity UC_ViewAlerts--><g class="entity" data-qualified-name=".uc_01.1. Syst.me EauS.re - Vue utilisateur.UC_ViewAlerts" data-source-line="23" id="ent0007"><ellipse cx="100.4697" cy="318.3939" fill="#EAF4FB" rx="73.4697" ry="17.0939" style="stroke:#2C7BB6;stroke-width:1.5;"/><text fill="#000000" font-family="Arial" font-size="12" lengthAdjust="spacing" textLength="114.8289" x="43.0553" y="323.0659">Consulter les alertes</text></g><!--entity UC_HardwareMgmt--><g class="entity" data-qualified-name=".uc_01.1. Syst.me EauS.re - Vue utilisateur.UC_HardwareMgmt" data-source-line="25" id="ent0008"><ellipse cx="659.1441" cy="328.2338" fill="#EAF4FB" rx="68.6077" ry="16.1215" style="stroke:#2C7BB6;stroke-width:1.5;"/><text fill="#000000" font-family="Arial" font-size="12" lengthAdjust="spacing" textLength="102.6608" x="607.8137" y="332.9058">G&#233;rer le hardware</text></g><!--entity UC_RegisterGateway--><g class="entity" data-qualified-name=".uc_01.1. Syst.me EauS.re - Vue utilisateur.UC_RegisterGateway" data-source-line="26" id="ent0009"><ellipse cx="605.4543" cy="444.2564" fill="#EAF4FB" rx="67.9936" ry="24.755" style="stroke:#2C7BB6;stroke-width:1.5;"/><text fill="#000000" font-family="Arial" font-size="12" lengthAdjust="spacing" textLength="97.6567" x="556.626" y="442.7425">Mettre en service</text><text fill="#000000" font-family="Arial" font-size="12" lengthAdjust="spacing" textLength="70.0085" x="570.4501" y="459.0866">la passerelle</text></g><!--entity UC_PairNode--><g class="entity" data-qualified-name=".uc_01.1. Syst.me EauS.re - Vue utilisateur.UC_PairNode" data-source-line="27" id="ent0010"><ellipse cx="670.9563" cy="551.9387" fill="#EAF4FB" rx="67.4749" ry="24.9894" style="stroke:#2C7BB6;stroke-width:1.5;"/><text fill="#000000" font-family="Arial" font-size="12" lengthAdjust="spacing" textLength="95.8447" x="623.034" y="550.0721">Jumeler le noeud</text><text fill="#000000" font-family="Arial" font-size="12" lengthAdjust="spacing" textLength="74.2565" x="633.828" y="566.4162">de mesurage</text></g><!--entity UC_HealthStatus--><g class="entity" data-qualified-name=".uc_01.1. Syst.me EauS.re - Vue utilisateur.UC_HealthStatus" data-source-line="28" id="ent0011"><ellipse cx="441.6299" cy="444.2564" fill="#EAF4FB" rx="75.8308" ry="25.0729" style="stroke:#2C7BB6;stroke-width:1.5;"/><text fill="#000000" font-family="Arial" font-size="12" lengthAdjust="spacing" textLength="85.6566" x="398.8016" y="439.2474">Consulter l'&#233;tat</text><text fill="#000000" font-family="Arial" font-size="12" lengthAdjust="spacing" textLength="107.8568" x="387.7015" y="455.5915">de fonctionnement</text></g><!--entity User--><g class="entity" data-qualified-name="User" data-source-line="16" id="ent0002"><ellipse cx="608.4755" cy="28.5" fill="#FFF8E7" rx="16" ry="16" style="stroke:#E69500;stroke-width:0.5;"/><path d="M608.4755,48.5 C612.4755,48.5 615.4755,48.5 619.4755,44.5 C627.4755,44.5 635.4755,52.5 635.4755,60.5 L635.4755,64.5 C635.4755,68.5 631.4755,72.5 627.4755,72.5 L589.4755,72.5 C585.4755,72.5 581.4755,68.5 581.4755,64.5 L581.4755,60.5 C581.4755,52.5 589.4755,44.5 597.4755,44.5 C601.4755,48.5 604.4755,48.5 608.4755,48.5" fill="#FFF8E7" style="stroke:#E69500;stroke-width:0.5;"/><text fill="#000000" font-family="Arial" font-size="12" lengthAdjust="spacing" textLength="58.3444" x="579.3033" y="85.8281">Utilisateur</text></g><line style="stroke:#444444;stroke-width:1;" x1="598.7515" x2="598.7515" y1="89.3441" y2="174.3441"/><polygon fill="#444444" points="598.7515,174.3441,602.7515,165.3441,598.7515,169.3441,594.7515,165.3441,598.7515,174.3441" style="stroke:#444444;stroke-width:1;"/><line style="stroke:#444444;stroke-width:1;" x1="618.1996" x2="618.1996" y1="89.3441" y2="119.3441"/><line style="stroke:#444444;stroke-width:1;" x1="618.1996" x2="682.0133" y1="119.3441" y2="119.3441"/><line style="stroke:#444444;stroke-width:1;" x1="682.0133" x2="682.0133" y1="119.3441" y2="312.1122"/><polygon fill="#444444" points="682.0133,312.1122,686.0133,303.1122,682.0133,307.1122,678.0133,303.1122,682.0133,312.1122" style="stroke:#444444;stroke-width:1;"/><line style="stroke:#444444;stroke-width:1;stroke-dasharray:7,7;" x1="586.2437" x2="586.2437" y1="223.6799" y2="243.6799"/><line style="stroke:#444444;stroke-width:1;stroke-dasharray:7,7;" x1="586.2437" x2="287.3405" y1="243.6799" y2="243.6799"/><line style="stroke:#444444;stroke-width:1;stroke-dasharray:7,7;" x1="287.3405" x2="287.3405" y1="243.6799" y2="301.2999"/><polygon fill="#444444" points="586.2437,223.6799,582.2437,232.6799,586.2437,228.6799,590.2437,232.6799,586.2437,223.6799" style="stroke:#444444;stroke-width:1;"/><text fill="#000000" font-family="Arial" font-size="10" lengthAdjust="spacing" textLength="42.69" x="240.6505" y="276.3699">&#171;extend&#187;</text><line style="stroke:#444444;stroke-width:1;stroke-dasharray:7,7;" x1="611.2593" x2="611.2593" y1="223.6799" y2="253.6799"/><line style="stroke:#444444;stroke-width:1;stroke-dasharray:7,7;" x1="611.2593" x2="485.639" y1="253.6799" y2="253.6799"/><line style="stroke:#444444;stroke-width:1;stroke-dasharray:7,7;" x1="485.639" x2="485.639" y1="253.6799" y2="301.2999"/><polygon fill="#444444" points="611.2593,223.6799,607.2593,232.6799,611.2593,228.6799,615.2593,232.6799,611.2593,223.6799" style="stroke:#444444;stroke-width:1;"/><text fill="#000000" font-family="Arial" font-size="10" lengthAdjust="spacing" textLength="42.69" x="438.949" y="276.3699">&#171;extend&#187;</text><line style="stroke:#444444;stroke-width:1;stroke-dasharray:7,7;" x1="561.228" x2="561.228" y1="223.6799" y2="233.6799"/><line style="stroke:#444444;stroke-width:1;stroke-dasharray:7,7;" x1="561.228" x2="100.4697" y1="233.6799" y2="233.6799"/><line style="stroke:#444444;stroke-width:1;stroke-dasharray:7,7;" x1="100.4697" x2="100.4697" y1="233.6799" y2="301.2999"/><polygon fill="#444444" points="561.228,223.6799,557.228,232.6799,561.228,228.6799,565.228,232.6799,561.228,223.6799" style="stroke:#444444;stroke-width:1;"/><text fill="#000000" font-family="Arial" font-size="10" lengthAdjust="spacing" textLength="42.69" x="53.7797" y="276.3699">&#171;extend&#187;</text><line style="stroke:#444444;stroke-width:1;stroke-dasharray:7,7;" x1="659.1441" x2="659.1441" y1="344.3553" y2="371.5635"/><line style="stroke:#444444;stroke-width:1;stroke-dasharray:7,7;" x1="659.1441" x2="605.4543" y1="371.5635" y2="371.5635"/><line style="stroke:#444444;stroke-width:1;stroke-dasharray:7,7;" x1="605.4543" x2="605.4543" y1="371.5635" y2="419.5013"/><polygon fill="#444444" points="659.1441,344.3553,655.1441,353.3553,659.1441,349.3553,663.1441,353.3553,659.1441,344.3553" style="stroke:#444444;stroke-width:1;"/><text fill="#000000" font-family="Arial" font-size="10" lengthAdjust="spacing" textLength="42.69" x="558.7644" y="394.2535">&#171;extend&#187;</text><line style="stroke:#444444;stroke-width:1;stroke-dasharray:7,7;" x1="693.448" x2="693.448" y1="344.3553" y2="526.9492"/><polygon fill="#444444" points="693.448,344.3553,689.448,353.3553,693.448,349.3553,697.448,353.3553,693.448,344.3553" style="stroke:#444444;stroke-width:1;"/><text fill="#000000" font-family="Arial" font-size="10" lengthAdjust="spacing" textLength="42.69" x="698.448" y="448.1364">&#171;extend&#187;</text><line style="stroke:#444444;stroke-width:1;stroke-dasharray:7,7;" x1="624.8403" x2="624.8403" y1="344.3553" y2="361.5635"/><line style="stroke:#444444;stroke-width:1;stroke-dasharray:7,7;" x1="624.8403" x2="441.6299" y1="361.5635" y2="361.5635"/><line style="stroke:#444444;stroke-width:1;stroke-dasharray:7,7;" x1="441.6299" x2="441.6299" y1="361.5635" y2="419.1835"/><polygon fill="#444444" points="624.8403,344.3553,620.8403,353.3553,624.8403,349.3553,628.8403,353.3553,624.8403,344.3553" style="stroke:#444444;stroke-width:1;"/><text fill="#000000" font-family="Arial" font-size="10" lengthAdjust="spacing" textLength="42.69" x="394.9399" y="394.2535">&#171;extend&#187;</text><line style="stroke:#444444;stroke-width:1;stroke-dasharray:7,7;" x1="605.4543" x2="605.4543" y1="469.0114" y2="516.9492"/><line style="stroke:#444444;stroke-width:1;stroke-dasharray:7,7;" x1="605.4543" x2="648.4647" y1="516.9492" y2="516.9492"/><line style="stroke:#444444;stroke-width:1;stroke-dasharray:7,7;" x1="648.4647" x2="648.4647" y1="516.9492" y2="526.9492"/><polygon fill="#444444" points="605.4543,469.0114,601.4543,478.0114,605.4543,474.0114,609.4543,478.0114,605.4543,469.0114" style="stroke:#444444;stroke-width:1;"/><text fill="#000000" font-family="Arial" font-size="10" lengthAdjust="spacing" textLength="44.29" x="557.1644" y="502.0192">&#171;include&#187;</text><?plantuml-src ZPHDRjim48NtFCLKNMHb8mxoqnP10DkrKnH8KDHDDaaGJAI9HPWYNVx4SOlUfpv3bxvOHxADK8wCbZk9Cn_Vl4VfpTJYk41GE3V10wc94DvCmHjuCDwR0Z9fAVNIQ27SHEefMkINz8X1-Q7H_X8BWgwLg9htH_87GUSWsiJK6ploSqM0CtAce6WpE4hHKS_OZ6pVA6FXxK7_fDSxRYZ2T3As9kXiNJZe3W-7lLsqRxbC9vgSWqxxA2hgMcjcQy9XjROtN-ROtvxZbORXSFXkSFAgB9vdSFp-Q3yckHmpCvDw38-e70bHzK1ovQMI3Zq5cm0wk79aXIZpG3rc-vARaDxlTzgTEnZDdL_-vYW664RBFvQW1TU18CI8dqB0nXD8kccwNB0gm72hFJuemi39SV0sIs1xbSVtxp-YonyCsYm6ZSAKx9DaSQ38GR5SU2k_1tAtcZHuAgOEx791Aeb8NmcLbvnz1EeRxVZQb9ozN3hseCGmnLTWvz7psmgTh36VghBvYBVS3XHteYBhowRcjK9TIvfroq9Ni-bykR0L1dAUUuQMTc4sajPb5-F2nw0ByfvpOKjSQLVAWoc4AJf-9AKYxCQXCGz7zfpJc-4yHdqE1QcLA6qePBUQSol81VwQw_9Mg2yexQN9TfhDYQ6l88z6Lr-xfeAqJsfpbOdbfTF1YLz2bBSHMgsp-hs8tzQS47iGLKKjSDfknpUYEl83d9xIioUTdPqrLiV1_xlw9TjjDilQo1HRab-4rO9uTLfJpyRnJGx_qnCRtDIphQFfgB97wbI5Z5R33TmKqofCUEBvPSe_wff3hPjSPXdfE_u5wORS_W80?></g></svg>