<?plantuml 1.2026.2?><svg xmlns="http://www.w3.org/2000/svg" xmlns:xlink="http://www.w3.org/1999/xlink" contentStyleType="text/css" data-diagram-type="DESCRIPTION" height="395px" preserveAspectRatio="none" style="width:764px;height:395px;background:#FFFFFF;" version="1.1" viewBox="0 0 764 395" width="764px" zoomAndPan="magnify"><defs/><g><!--cluster [uc_02.1] Syst?me EauS?re - Vue administrateur--><g class="cluster" data-qualified-name=".uc_02.1. Syst.me EauS.re - Vue administrateur" data-source-line="19" id="ent0003"><rect fill="none" height="271" rx="2.5" ry="2.5" style="stroke:#181818;stroke-width:1;" width="719" x="39.25" y="7"/><text fill="#000000" font-family="Arial" font-size="12" font-weight="bold" lengthAdjust="spacing" textLength="283.982" x="256.759" y="21.8281">[uc_02.1] Syst&#232;me EauS&#251;re - Vue administrateur</text></g><!--entity UC_ManageUsers--><g class="entity" data-qualified-name=".uc_02.1. Syst.me EauS.re - Vue administrateur.UC_ManageUsers" data-source-line="21" id="ent0004"><ellipse cx="142.1722" cy="238.1129" fill="#EAF7EF" rx="78.4222" ry="24.1129" style="stroke:#1A6B3C;stroke-width:1.5;"/><text fill="#000000" font-family="Arial" font-size="12" lengthAdjust="spacing" textLength="116.7729" x="83.7857" y="237.592">G&#233;rer les utilisateurs</text><text fill="#000000" font-family="Arial" font-size="12" lengthAdjust="spacing" textLength="60.7805" x="111.7819" y="253.9361">et les r&#244;les</text></g><!--entity UC_PreregisterEquip--><g class="entity" data-qualified-name=".uc_02.1. Syst.me EauS.re - Vue administrateur.UC_PreregisterEquip" data-source-line="22" id="ent0005"><ellipse cx="142.3433" cy="153.1977" fill="#EAF7EF" rx="67.5933" ry="25.6977" style="stroke:#1A6B3C;stroke-width:1.5;"/><text fill="#000000" font-family="Arial" font-size="12" lengthAdjust="spacing" textLength="85.9926" x="99.347" y="149.1033">Pr&#233;-enregistrer</text><text fill="#000000" font-family="Arial" font-size="12" lengthAdjust="spacing" textLength="93.0247" x="95.831" y="165.4474">les &#233;quipements</text></g><!--entity UC_AdminSupervision--><g class="entity" data-qualified-name=".uc_02.1. Syst.me EauS.re - Vue administrateur.UC_AdminSupervision" data-source-line="24" id="ent0006"><ellipse cx="142.2878" cy="67.8087" fill="#EAF7EF" rx="87.0378" ry="24.3087" style="stroke:#1A6B3C;stroke-width:1.5;"/><text fill="#000000" font-family="Arial" font-size="12" lengthAdjust="spacing" textLength="128.9169" x="77.8294" y="66.9806">Superviser l'&#233;tat global</text><text fill="#000000" font-family="Arial" font-size="12" lengthAdjust="spacing" textLength="75.8405" x="104.3675" y="83.3247">de la solution</text></g><!--entity UC_Status--><g class="entity" data-qualified-name=".uc_02.1. Syst.me EauS.re - Vue administrateur.UC_Status" data-source-line="25" id="ent0007"><ellipse cx="414.7776" cy="235.8902" fill="#EAF7EF" rx="78.5276" ry="25.8902" style="stroke:#1A6B3C;stroke-width:1.5;"/><text fill="#000000" font-family="Arial" font-size="12" lengthAdjust="spacing" textLength="103.5728" x="362.9912" y="232.0721">Consulter le statut</text><text fill="#000000" font-family="Arial" font-size="12" lengthAdjust="spacing" textLength="107.8568" x="360.8492" y="248.4162">de fonctionnement</text></g><!--entity UC_CollectStats--><g class="entity" data-qualified-name=".uc_02.1. Syst.me EauS.re - Vue administrateur.UC_CollectStats" data-source-line="26" id="ent0008"><ellipse cx="414.5163" cy="151.1839" fill="#EAF7EF" rx="91.2663" ry="24.1839" style="stroke:#1A6B3C;stroke-width:1.5;"/><text fill="#000000" font-family="Arial" font-size="12" lengthAdjust="spacing" textLength="136.201" x="346.4158" y="150.5511">Collecter les statistiques</text><text fill="#000000" font-family="Arial" font-size="12" lengthAdjust="spacing" textLength="74.3886" x="377.3221" y="166.8952">et les retours</text></g><!--entity UC_StudyEfficiency--><g class="entity" data-qualified-name=".uc_02.1. Syst.me EauS.re - Vue administrateur.UC_StudyEfficiency" data-source-line="27" id="ent0009"><ellipse cx="672.3712" cy="87.9178" fill="#EAF7EF" rx="70.1212" ry="24.9178" style="stroke:#1A6B3C;stroke-width:1.5;"/><text fill="#000000" font-family="Arial" font-size="12" lengthAdjust="spacing" textLength="100.1047" x="622.3188" y="86.1585">&#201;tudier l'efficacit&#233;</text><text fill="#000000" font-family="Arial" font-size="12" lengthAdjust="spacing" textLength="75.8405" x="634.4509" y="102.5026">de la solution</text></g><!--entity Admin--><g class="entity" data-qualified-name="Admin" data-source-line="17" id="ent0002"><ellipse cx="142.3083" cy="313.5" fill="#FFF8E7" rx="16" ry="16" style="stroke:#E69500;stroke-width:0.5;"/><path d="M142.3083,333.5 C146.3083,333.5 149.3083,333.5 153.3083,329.5 C161.3083,329.5 169.3083,337.5 169.3083,345.5 L169.3083,349.5 C169.3083,353.5 165.3083,357.5 161.3083,357.5 L123.3083,357.5 C119.3083,357.5 115.3083,353.5 115.3083,349.5 L115.3083,345.5 C115.3083,337.5 123.3083,329.5 131.3083,329.5 C135.3083,333.5 138.3083,333.5 142.3083,333.5" fill="#FFF8E7" style="stroke:#E69500;stroke-width:0.5;"/><text fill="#000000" font-family="Arial" font-size="12" lengthAdjust="spacing" textLength="85.1166" x="99.75" y="370.8281">Administrateur</text><text fill="#000000" font-family="Arial" font-size="12" lengthAdjust="spacing" textLength="74.8805" x="99.75" y="387.1722">(propri&#233;taire)</text></g><!--link Admin to UC_ManageUsers--><g class="link" data-entity-1="ent0002" data-entity-2="ent0004" data-link-type="dependency" data-source-line="30" id="lnk10"><path d="M142.25,296.8 C142.25,285.31 142.25,279.83 142.25,268.35" fill="none" id="Admin-to-UC_ManageUsers" style="stroke:#444444;stroke-width:1;"/><polygon fill="#444444" points="142.25,262.35,138.25,271.35,142.25,267.35,146.25,271.35,142.25,262.35" style="stroke:#444444;stroke-width:1;"/></g><!--link Admin to UC_PreregisterEquip--><g class="link" data-entity-1="ent0002" data-entity-2="ent0005" data-link-type="dependency" data-source-line="31" id="lnk11"><path d="M99.52,322.86 C77.94,311.16 52.01,295.46 31.25,278 C8.73,259.06 6.04,241.1 16.25,213.5 C26.19,186.64 47.999,173.4664 74.809,165.1564" fill="none" id="Admin-to-UC_PreregisterEquip" style="stroke:#444444;stroke-width:1;"/><polygon fill="#444444" points="80.54,163.38,70.7592,162.2239,75.7642,164.8603,73.1277,169.8652,80.54,163.38" style="stroke:#444444;stroke-width:1;"/></g><!--link Admin to UC_AdminSupervision--><g class="link" data-entity-1="ent0002" data-entity-2="ent0006" data-link-type="dependency" data-source-line="32" id="lnk12"><path d="M99.49,330.77 C68.39,318.39 29.5,296.31 16.25,260.5 C6,232.78 6,155.22 16.25,127.5 C24.81,104.36 40.9314,92.3151 63.9914,83.6751" fill="none" id="Admin-to-UC_AdminSupervision" style="stroke:#444444;stroke-width:1;"/><polygon fill="#444444" points="69.61,81.57,59.7787,80.982,64.9279,83.3243,62.5856,88.4734,69.61,81.57" style="stroke:#444444;stroke-width:1;"/></g><!--reverse link UC_AdminSupervision to UC_Status--><g class="link" data-entity-1="ent0006" data-entity-2="ent0007" data-link-type="dependency" data-source-line="35" id="lnk13"><path d="M196.2924,91.141 C209.1224,97.401 217.34,102.1 229.25,110 C252.35,125.33 300.14,176.69 323.25,192 C336.36,200.68 351.44,208.7 365.48,215.44" fill="none" id="UC_AdminSupervision-backto-UC_Status" style="stroke:#444444;stroke-width:1;stroke-dasharray:7,7;"/><polygon fill="#444444" points="190.9,88.51,197.2345,96.0515,195.3936,90.7025,200.7426,88.8616,190.9,88.51" style="stroke:#444444;stroke-width:1;"/><text fill="#444444" font-family="Arial" font-size="10" lengthAdjust="spacing" textLength="32.51" x="260.25" y="132.69">extend</text></g><!--reverse link UC_AdminSupervision to UC_CollectStats--><g class="link" data-entity-1="ent0006" data-entity-2="ent0008" data-link-type="dependency" data-source-line="36" id="lnk14"><path d="M207.6861,87.7698 C252.8961,101.6398 309.4,118.98 354.7,132.88" fill="none" id="UC_AdminSupervision-backto-UC_CollectStats" style="stroke:#444444;stroke-width:1;stroke-dasharray:7,7;"/><polygon fill="#444444" points="201.95,86.01,209.381,92.4738,206.7301,87.4765,211.7274,84.8256,201.95,86.01" style="stroke:#444444;stroke-width:1;"/><text fill="#444444" font-family="Arial" font-size="10" lengthAdjust="spacing" textLength="32.51" x="260.25" y="101.69">extend</text></g><!--reverse link UC_AdminSupervision to UC_StudyEfficiency--><g class="link" data-entity-1="ent0006" data-entity-2="ent0009" data-link-type="dependency" data-source-line="37" id="lnk15"><path d="M234.6657,71.467 C338.7157,75.407 506.44,81.76 602.37,85.39" fill="none" id="UC_AdminSupervision-backto-UC_StudyEfficiency" style="stroke:#444444;stroke-width:1;stroke-dasharray:7,7;"/><polygon fill="#444444" points="228.67,71.24,237.5122,75.5777,233.6664,71.4292,237.8149,67.5834,228.67,71.24" style="stroke:#444444;stroke-width:1;"/><text fill="#444444" font-family="Arial" font-size="10" lengthAdjust="spacing" textLength="32.51" x="398.75" y="72.69">extend</text></g><!--reverse link UC_CollectStats to UC_StudyEfficiency--><g class="link" data-entity-1="ent0008" data-entity-2="ent0009" data-link-type="dependency" data-source-line="38" id="lnk16"><path d="M488.0355,133.1735 C528.9955,123.0735 575.14,111.7 614.22,102.06" fill="none" id="UC_CollectStats-backto-UC_StudyEfficiency" style="stroke:#444444;stroke-width:1;stroke-dasharray:7,7;"/><polygon fill="#444444" points="482.21,134.61,491.9059,136.339,487.0646,133.4129,489.9906,128.5716,482.21,134.61" style="stroke:#444444;stroke-width:1;"/><text fill="#444444" font-family="Arial" font-size="10" lengthAdjust="spacing" textLength="34.11" x="537.25" y="110.69">include</text></g><!--link UC_ManageUsers to UC_PreregisterEquip--><!--link UC_PreregisterEquip to UC_AdminSupervision--><?plantuml-src ZLF1RXCn4BtxAqRXK3WaIWfj0I6aDDhb1Agqb4jJLMPtTcF5iTEnJKaH7y2V477brbltn_2QXEvcDnLxMTdptlEyDxR4t8BLGAAOMSW4OMg5LeoPkL1BJdm16URSIHjhPJ_m1SAO19VTzKJS8emEQqMUMas9NKa4VeD6Bx1MT0PJRl1KKuOqqL8JF1cDZq-VJpf0F9qNf9tADi1e79z4yJwrZpEHpXKQ0wF1KGqq9j8t6uKNuTijFlWOTfNsSOFHLfDn7B-CJbgmkk7e-DNHi7wKcV5CtmXLGCwbGSO21thZR26KC9QuHKTJzNH9UacYN5lkn_Qi1zn0m31MJP6hmeVUkt3frV1mCBg4P6Li-TCFCE8kAUy8eG-Vd9zBGxS7tnY3RPZGUrUk2Gaa6d1MI642oamLsh19vM__2uUVJwxUSyKBF3T8fYvoHkMwZugmgCv1ttn5BTVNJYnnWSh-4pZprO12YgfgevV4BP6-25FrSr3vjb18_PdBgSeG90UZfQkkxrOjnB5bLTUw9ZRHolXh6xo1yLhE1fbSg_04L6XigvHK0DFaI-bZtcHJ2VYknRN3MZPejSzggx5XL58DfVA7TPa8fZ3FHSfJOSlrFa-91w-Y2YTGfIlsdR5W4_hX3VVVxiwXNMs5t8QqacC7K5zsGE3DOF0G5Ro6-r_urQBAxkyUWzTJ-M_IJWWjNaFq4OvGgNGPUfBtvs-4VmH2MJ-wcIPnwzVSpv4r0uN-nKna6QhBltbr9jgnryLhnVm7?></g></svg>