<svg xmlns="http://www.w3.org/2000/svg" xmlns:xlink="http://www.w3.org/1999/xlink" contentStyleType="text/css" data-diagram-type="DESCRIPTION" height="598px" preserveAspectRatio="none" style="width:748px;height:598px;background:#FFFFFF;" version="1.1" viewBox="0 0 748 598" width="748px" zoomAndPan="magnify"><?plantuml 1.2026.3beta6?><defs/><g><!--cluster [uc_02] Syst?me EauS?re - Vue Administrateur--><g class="cluster" data-qualified-name=".uc_02. Syst.me EauS.re - Vue Administrateur" data-source-line="19" id="ent0003"><rect fill="none" height="454.74" rx="2.5" ry="2.5" style="stroke:#181818;stroke-width:1;" width="707" x="7" y="129.44"/><text fill="#000000" font-family="Arial" font-size="12" font-weight="700" lengthAdjust="spacing" textLength="317.748" x="201.626" y="142.5787">[uc_02] Syst&#232;me EauS&#251;re - Vue Administrateur</text></g><!--entity UC_ManageUsers--><g class="entity" data-qualified-name=".uc_02. Syst.me EauS.re - Vue Administrateur.UC_ManageUsers" data-source-line="22" id="ent0004"><ellipse cx="370.0044" cy="183.7674" fill="#EAF7EF" rx="84.0044" ry="21.0574" style="stroke:#1A6B3C;stroke-width:1.5;"/><text fill="#000000" font-family="Arial" font-size="12" lengthAdjust="spacing" textLength="125.3262" x="307.3413" y="182.7931">G&#233;rer les utilisateurs</text><text fill="#000000" font-family="Arial" font-size="12" lengthAdjust="spacing" textLength="65.9297" x="337.0395" y="196.7619">et les r&#244;les</text></g><!--entity UC_PreregisterEquip--><g class="entity" data-qualified-name=".uc_02. Syst.me EauS.re - Vue Administrateur.UC_PreregisterEquip" data-source-line="23" id="ent0005"><ellipse cx="546.0023" cy="183.7719" fill="#EAF7EF" rx="71.7523" ry="22.3319" style="stroke:#1A6B3C;stroke-width:1.5;"/><text fill="#000000" font-family="Arial" font-size="12" lengthAdjust="spacing" textLength="90.3457" x="500.8295" y="179.6671">Pr&#233;-enregistrer</text><text fill="#000000" font-family="Arial" font-size="12" lengthAdjust="spacing" textLength="99.3574" x="496.3236" y="193.6359">les &#233;quipements</text></g><!--entity UC_AdminSupervision--><g class="entity" data-qualified-name=".uc_02. Syst.me EauS.re - Vue Administrateur.UC_AdminSupervision" data-source-line="26" id="ent0006"><ellipse cx="305.0021" cy="264.3023" fill="#EAF7EF" rx="93.6221" ry="21.1923" style="stroke:#1A6B3C;stroke-width:1.5;"/><text fill="#000000" font-family="Arial" font-size="12" lengthAdjust="spacing" textLength="139.166" x="235.4191" y="263.1163">Superviser l'&#233;tat global</text><text fill="#000000" font-family="Arial" font-size="12" lengthAdjust="spacing" textLength="80.8359" x="264.5841" y="277.085">de la solution</text></g><!--entity UC_HealthStatus--><g class="entity" data-qualified-name=".uc_02. Syst.me EauS.re - Vue Administrateur.UC_HealthStatus" data-source-line="27" id="ent0007"><ellipse cx="106.0033" cy="357.1282" fill="#EAF7EF" rx="83.0933" ry="22.6382" style="stroke:#1A6B3C;stroke-width:1.5;"/><text fill="#000000" font-family="Arial" font-size="12" lengthAdjust="spacing" textLength="111.2109" x="50.3978" y="353.4628">Consulter le statut</text><text fill="#000000" font-family="Arial" font-size="12" lengthAdjust="spacing" textLength="113.9414" x="49.0326" y="367.4316">de fonctionnement</text></g><!--entity UC_CollectStats--><g class="entity" data-qualified-name=".uc_02. Syst.me EauS.re - Vue Administrateur.UC_CollectStats" data-source-line="28" id="ent0008"><ellipse cx="304.9963" cy="357.1293" fill="#EAF7EF" rx="95.6463" ry="21.5293" style="stroke:#1A6B3C;stroke-width:1.5;"/><text fill="#000000" font-family="Arial" font-size="12" lengthAdjust="spacing" textLength="147.4863" x="231.2531" y="356.3814">Collecter les statistiques</text><text fill="#000000" font-family="Arial" font-size="12" lengthAdjust="spacing" textLength="79.8398" x="265.0764" y="370.3502">et les retours</text></g><!--entity UC_StudyEfficiency--><g class="entity" data-qualified-name=".uc_02. Syst.me EauS.re - Vue Administrateur.UC_StudyEfficiency" data-source-line="29" id="ent0009"><ellipse cx="99.0005" cy="451.3427" fill="#EAF7EF" rx="75.7205" ry="21.6827" style="stroke:#1A6B3C;stroke-width:1.5;"/><text fill="#000000" font-family="Arial" font-size="12" lengthAdjust="spacing" textLength="108.7441" x="44.6285" y="449.4051">&#201;tudier l'efficacit&#233;</text><text fill="#000000" font-family="Arial" font-size="12" lengthAdjust="spacing" textLength="80.8359" x="58.5826" y="463.3739">de la solution</text></g><!--entity UC_MaintainSystem--><g class="entity" data-qualified-name=".uc_02. Syst.me EauS.re - Vue Administrateur.UC_MaintainSystem" data-source-line="32" id="ent0010"><ellipse cx="584.9985" cy="357.1317" fill="#EAF7EF" rx="74.9085" ry="17.3817" style="stroke:#1A6B3C;stroke-width:1.5;"/><text fill="#000000" font-family="Arial" font-size="12" lengthAdjust="spacing" textLength="125.7188" x="522.1392" y="360.6161">Maintenir le syst&#232;me</text></g><!--entity UC_DevelopFirmware--><g class="entity" data-qualified-name=".uc_02. Syst.me EauS.re - Vue Administrateur.UC_DevelopFirmware" data-source-line="33" id="ent0011"><ellipse cx="296.0005" cy="451.3381" fill="#EAF7EF" rx="100.8905" ry="22.5781" style="stroke:#1A6B3C;stroke-width:1.5;"/><text fill="#000000" font-family="Arial" font-size="12" lengthAdjust="spacing" textLength="150.6445" x="220.6783" y="449.3023">D&#233;velopper une nouvelle</text><text fill="#000000" font-family="Arial" font-size="12" lengthAdjust="spacing" textLength="120.4688" x="235.7662" y="463.271">version du firmware</text></g><!--entity UC_AdminDeployUpdates--><g class="entity" data-qualified-name=".uc_02. Syst.me EauS.re - Vue Administrateur.UC_AdminDeployUpdates" data-source-line="34" id="ent0012"><ellipse cx="321.9967" cy="545.5492" fill="#EAF7EF" rx="82.9867" ry="22.6292" style="stroke:#1A6B3C;stroke-width:1.5;"/><text fill="#000000" font-family="Arial" font-size="12" lengthAdjust="spacing" textLength="113.8418" x="265.0758" y="542.2274">D&#233;ployer les mises</text><text fill="#000000" font-family="Arial" font-size="12" lengthAdjust="spacing" textLength="110.9004" x="266.5465" y="556.1961">&#224; jour du firmware</text></g><!--entity UC_HandleIssues--><g class="entity" data-qualified-name=".uc_02. Syst.me EauS.re - Vue Administrateur.UC_HandleIssues" data-source-line="37" id="ent0013"><ellipse cx="602.002" cy="451.3424" fill="#EAF7EF" rx="95.562" ry="21.5124" style="stroke:#1A6B3C;stroke-width:1.5;"/><text fill="#000000" font-family="Arial" font-size="12" lengthAdjust="spacing" textLength="142.4531" x="530.7754" y="449.9883">Traiter les r&#233;clamations</text><text fill="#000000" font-family="Arial" font-size="12" lengthAdjust="spacing" textLength="91.1191" x="556.4424" y="463.957">et les incidents</text></g><!--entity UC_DocumentSupport--><g class="entity" data-qualified-name=".uc_02. Syst.me EauS.re - Vue Administrateur.UC_DocumentSupport" data-source-line="38" id="ent0014"><ellipse cx="600.9986" cy="545.5517" fill="#EAF7EF" rx="97.2086" ry="21.8417" style="stroke:#1A6B3C;stroke-width:1.5;"/><text fill="#000000" font-family="Arial" font-size="12" lengthAdjust="spacing" textLength="151.8574" x="525.0699" y="544.8668">Fournir la documentation</text><text fill="#000000" font-family="Arial" font-size="12" lengthAdjust="spacing" textLength="85.623" x="558.1871" y="558.8356">et l'assistance</text></g><!--entity Admin--><g class="entity" data-qualified-name="Admin" data-source-line="17" id="ent0002"><ellipse cx="623.0001" cy="22" fill="#FFF8E7" rx="16" ry="16" style="stroke:#E69500;stroke-width:0.5;"/><path d="M623.0001,42 C627.0001,42 630.0001,42 634.0001,38 C642.0001,38 650.0001,46 650.0001,54 L650.0001,58 C650.0001,62 646.0001,66 642.0001,66 L604.0001,66 C600.0001,66 596.0001,62 596.0001,58 L596.0001,54 C596.0001,46 604.0001,38 612.0001,38 C616.0001,42 619.0001,42 623.0001,42" fill="#FFF8E7" style="stroke:#E69500;stroke-width:0.5;"/><text fill="#000000" font-family="Arial" font-size="12" lengthAdjust="spacing" textLength="89.6602" x="578.17" y="77.6387">Administrateur</text><text fill="#000000" font-family="Arial" font-size="12" lengthAdjust="spacing" textLength="80.2324" x="578.17" y="91.6074">(propri&#233;taire)</text></g><!--link Admin to UC_ManageUsers--><g class="link" data-entity-1="ent0002" data-entity-2="ent0004" data-link-type="dependency" data-source-line="42" id="lnk15"><path d="M577.87,68.69 C545.53,81.94 501.28,101.19 464,121.44 C440.54,134.18 420.2043,147.4364 401.7743,160.1864" fill="none" id="Admin-to-UC_ManageUsers" style="stroke:#444444;stroke-width:1;"/><polygon fill="#444444" points="396.84,163.6,406.5172,161.7692,400.9519,160.7553,401.9657,155.1901,396.84,163.6" style="stroke:#444444;stroke-width:1;"/></g><!--link Admin to UC_PreregisterEquip--><g class="link" data-entity-1="ent0002" data-entity-2="ent0005" data-link-type="dependency" data-source-line="43" id="lnk16"><path d="M597.36,94.86 C584.24,117.32 571.8886,138.4705 561.3986,156.4105" fill="none" id="Admin-to-UC_PreregisterEquip" style="stroke:#444444;stroke-width:1;"/><polygon fill="#444444" points="558.37,161.59,566.3659,155.8398,560.8938,157.2737,559.4599,151.8016,558.37,161.59" style="stroke:#444444;stroke-width:1;"/></g><!--link Admin to UC_AdminSupervision--><g class="link" data-entity-1="ent0002" data-entity-2="ent0006" data-link-type="dependency" data-source-line="44" id="lnk17"><path d="M577.78,53.29 C492.63,58.69 313.64,75.39 276,121.44 C247.21,156.67 270.5478,207.8422 288.4978,237.8222" fill="none" id="Admin-to-UC_AdminSupervision" style="stroke:#444444;stroke-width:1;"/><polygon fill="#444444" points="291.58,242.97,290.3886,233.1935,289.0115,238.6801,283.5248,237.303,291.58,242.97" style="stroke:#444444;stroke-width:1;"/></g><!--link Admin to UC_MaintainSystem--><g class="link" data-entity-1="ent0002" data-entity-2="ent0010" data-link-type="dependency" data-source-line="45" id="lnk18"><path d="M626.6,94.93 C627.18,103.7 627.7,112.86 628,121.44 C629.33,159.05 633.23,168.84 628,206.1 C621.03,255.74 603.7746,306.3575 593.5746,333.7375" fill="none" id="Admin-to-UC_MaintainSystem" style="stroke:#444444;stroke-width:1;"/><polygon fill="#444444" points="591.48,339.36,598.3702,332.3226,593.2255,334.6746,590.8735,329.5298,591.48,339.36" style="stroke:#444444;stroke-width:1;"/></g><!--link Admin to UC_HandleIssues--><g class="link" data-entity-1="ent0002" data-entity-2="ent0013" data-link-type="dependency" data-source-line="46" id="lnk19"><path d="M658.79,94.79 C675.17,119.18 691,150.97 691,182.77 C691,182.77 691,182.77 691,358.13 C691,390.06 668.0769,411.8997 643.4969,427.8097" fill="none" id="Admin-to-UC_HandleIssues" style="stroke:#444444;stroke-width:1;"/><polygon fill="#444444" points="638.46,431.07,648.1889,429.5375,642.6574,428.3531,643.8419,422.8216,638.46,431.07" style="stroke:#444444;stroke-width:1;"/></g><!--link Admin to UC_DocumentSupport--><g class="link" data-entity-1="ent0002" data-entity-2="ent0014" data-link-type="dependency" data-source-line="47" id="lnk20"><path d="M668.06,80.18 C698.44,103.77 733,140 733,182.77 C733,182.77 733,182.77 733,452.34 C733,490.5 701.0524,511.9808 666.0224,525.7808" fill="none" id="Admin-to-UC_DocumentSupport" style="stroke:#444444;stroke-width:1;"/><polygon fill="#444444" points="660.44,527.98,670.2798,528.4028,665.092,526.1473,667.3475,520.9596,660.44,527.98" style="stroke:#444444;stroke-width:1;"/></g><!--link UC_HealthStatus to UC_AdminSupervision--><g class="link" data-entity-1="ent0007" data-entity-2="ent0006" data-link-type="dependency" data-source-line="50" id="lnk21"><path d="M115.27,334.23 C120.91,323.43 129.14,311.12 140,303.49 C162.86,287.43 185.5899,279.2235 212.5399,273.7535" fill="none" id="UC_HealthStatus-to-UC_AdminSupervision" style="stroke:#444444;stroke-width:1;stroke-dasharray:7,7;"/><polygon fill="#444444" points="218.42,272.56,208.8042,270.4301,213.5199,273.5546,210.3955,278.2703,218.42,272.56" style="stroke:#444444;stroke-width:1;"/><text fill="#000000" font-family="Arial" font-size="10" lengthAdjust="spacing" textLength="47.0654" x="141" y="313.7722">&#171;extend&#187;</text></g><!--link UC_AdminSupervision to UC_HealthStatus--><!--link UC_CollectStats to UC_AdminSupervision--><g class="link" data-entity-1="ent0008" data-entity-2="ent0006" data-link-type="dependency" data-source-line="51" id="lnk22"><path d="M305,335.28 C305,320.47 305,306.67 305,291.91" fill="none" id="UC_CollectStats-to-UC_AdminSupervision" style="stroke:#444444;stroke-width:1;stroke-dasharray:7,7;"/><polygon fill="#444444" points="305,285.91,301,294.91,305,290.91,309,294.91,305,285.91" style="stroke:#444444;stroke-width:1;"/><text fill="#000000" font-family="Arial" font-size="10" lengthAdjust="spacing" textLength="47.0654" x="306" y="313.7722">&#171;extend&#187;</text></g><!--link UC_StudyEfficiency to UC_AdminSupervision--><g class="link" data-entity-1="ent0009" data-entity-2="ent0006" data-link-type="dependency" data-source-line="52" id="lnk23"><path d="M154.45,436.15 C164.6,433.63 175.11,431.08 185,428.77 C285.08,405.37 346.48,459.77 411,379.77 C423.63,364.1 420.58,352.18 411,334.49 C398.29,311.01 379.1242,296.9181 356.8742,285.7681" fill="none" id="UC_StudyEfficiency-to-UC_AdminSupervision" style="stroke:#444444;stroke-width:1;stroke-dasharray:7,7;"/><polygon fill="#444444" points="351.51,283.08,357.7642,290.6883,355.9801,285.3201,361.3483,283.5361,351.51,283.08" style="stroke:#444444;stroke-width:1;"/><text fill="#000000" font-family="Arial" font-size="10" lengthAdjust="spacing" textLength="47.0654" x="420" y="360.9122">&#171;extend&#187;</text></g><!--link UC_StudyEfficiency to UC_CollectStats--><g class="link" data-entity-1="ent0009" data-entity-2="ent0008" data-link-type="dependency" data-source-line="53" id="lnk24"><path d="M123.1,430.47 C137.24,419.61 155.84,406.6 174,397.77 C194.73,387.69 212.7936,381.2078 234.3936,374.9978" fill="none" id="UC_StudyEfficiency-to-UC_CollectStats" style="stroke:#444444;stroke-width:1;stroke-dasharray:7,7;"/><polygon fill="#444444" points="240.16,373.34,230.4051,371.9825,235.3547,374.7215,232.6156,379.671,240.16,373.34" style="stroke:#444444;stroke-width:1;"/><text fill="#000000" font-family="Arial" font-size="10" lengthAdjust="spacing" textLength="48.4668" x="175" y="408.0522">&#171;include&#187;</text></g><!--link UC_CollectStats to UC_StudyEfficiency--><!--link UC_DevelopFirmware to UC_MaintainSystem--><g class="link" data-entity-1="ent0011" data-entity-2="ent0010" data-link-type="dependency" data-source-line="56" id="lnk25"><path d="M350.73,432.03 C367.99,425.79 386.98,418.44 404,410.77 C415.06,405.78 416.7,402.17 428,397.77 C438.05,393.85 486.6583,381.7911 528.6483,371.6311" fill="none" id="UC_DevelopFirmware-to-UC_MaintainSystem" style="stroke:#444444;stroke-width:1;stroke-dasharray:7,7;"/><polygon fill="#444444" points="534.48,370.22,524.7917,368.4488,529.6202,371.3959,526.6731,376.2244,534.48,370.22" style="stroke:#444444;stroke-width:1;"/><text fill="#000000" font-family="Arial" font-size="10" lengthAdjust="spacing" textLength="47.0654" x="429" y="408.0522">&#171;extend&#187;</text></g><!--link UC_MaintainSystem to UC_DevelopFirmware--><!--link UC_AdminDeployUpdates to UC_MaintainSystem--><g class="link" data-entity-1="ent0012" data-entity-2="ent0010" data-link-type="dependency" data-source-line="57" id="lnk26"><path d="M348.93,523.91 C366.11,510.32 388.54,491.81 407,473.92 C426.26,455.27 425.81,445.19 447,428.77 C456.2,421.63 510.6031,394.5222 548.4031,375.9822" fill="none" id="UC_AdminDeployUpdates-to-UC_MaintainSystem" style="stroke:#444444;stroke-width:1;stroke-dasharray:7,7;"/><polygon fill="#444444" points="553.79,373.34,543.9482,373.712,549.3009,375.5418,547.471,380.8945,553.79,373.34" style="stroke:#444444;stroke-width:1;"/><text fill="#000000" font-family="Arial" font-size="10" lengthAdjust="spacing" textLength="47.0654" x="448" y="455.1222">&#171;extend&#187;</text></g><!--link UC_AdminDeployUpdates to UC_DevelopFirmware--><g class="link" data-entity-1="ent0012" data-entity-2="ent0011" data-link-type="dependency" data-source-line="58" id="lnk27"><path d="M315.79,522.54 C311.67,507.91 307.9105,494.5642 303.7905,479.9742" fill="none" id="UC_AdminDeployUpdates-to-UC_DevelopFirmware" style="stroke:#444444;stroke-width:1;stroke-dasharray:7,7;"/><polygon fill="#444444" points="302.16,474.2,300.7564,483.9483,303.5188,479.0118,308.4553,481.7743,302.16,474.2" style="stroke:#444444;stroke-width:1;"/><text fill="#000000" font-family="Arial" font-size="10" lengthAdjust="spacing" textLength="48.4668" x="311" y="502.2022">&#171;include&#187;</text></g><!--link UC_DevelopFirmware to UC_AdminDeployUpdates--><!--link UC_ManageUsers to UC_AdminSupervision--><!--link UC_AdminSupervision to UC_MaintainSystem--><!--link UC_MaintainSystem to UC_HandleIssues--><!--link UC_HandleIssues to UC_DocumentSupport--><!--link UC_ManageUsers to UC_PreregisterEquip--><!--link UC_HealthStatus to UC_CollectStats--><?plantuml-src pLPBRnit4BxlhnYe1oT0PVYHHri41cHRSWiqRG3P1Oeu29ZbI6BD9JTys5MB0hdsraDwxx6wzzRZ_fFyaWwfLRGF2a7H7hAG8Mivyt7ccs-6TBe4f-6LTauNm8N1t0cjiipU25Kom-WbpfYNRgAL-uOL22CZc4olJyLF28T7ZKMMEsscRYaHs1rQNM1ZqLlCcSLJRJYQCosrWKyEHuzEZyyIHYo_cHlj5QyDnwF9u_5a5zhbGkGt2gs5m_s73QEHCVgkHdWGd-xYDe-3RXwz62QJoMVZnpspPZxZHvy_F6WYsGNZ-aweESoOj4qw35Ct5aiuRWQiDCVmykWWoo8w34Qy44fOPvX3RwxLlTBeqeXgvHZLx_u0c8LeasMXd4pDYVt1Sv-_F3Xw0TEbTTMVLCSnyzFgRuCmXEyyGXjr03zd6S0Ul7lxXZvmGMcNn0cyU_CMBj06aO1tGWeRxIqPrmM0mKMrCcX0ecsPN2jqyQMf_gAl0OH0hyvUFcMApV7AOXlbcQbMGrG6vo4gf4I3RxLwxKM91IeN4CApHdb69j4KpJYOfC8_Yk5FwLzpAspGUME_pUiG-LuWqy5SwbTCNYkE81bOBNt8kzwstZVojWFoJ2jBhH6v04k8taMmcLQnpLJCOuEtnVmIcNIBQN2mRJmfgQ8rjm6GyXMlFJQuHQU9wq43hVOAS2sqwbVdkOZfucmcSfOBLwrsPRl5cvBRSXmy1AfycIBwE1Bzb0dbK36LOtFV-hLOirBBiRbDxzdeXFpeBoWOYoRYURMwHQbBAW9uXTGqddvBl5Qt9AeWLUvX9annnqpSQGruZj5hKYzq44kfbpNJ1Qc2AAx-W1-8t2vOJmtd67olIawwjobw7cnqM6hZcjjU6YOsvINvvv8LB1HXMr-XSi6tug_rmXIN-9Mrf8Gct8IYZJmpu3htGMmHRessnwmb_OJoj3hfl3RTnFTBbhrFO6IjpiKwfZ3jgA_X7asg415H7xGONEzdaGWO3a-w7TvQw3LjQxNNMXtGbXnQQor2MYlTvB8FpuXEGmQYzlUJ0S8NyEG9_aZYvYSdMQVr_erVfyN-grytZE16GfAU8_bb7-xUVhCqicaNOeFV3AlV5V-7Rp-YVbw___QHV2YOhqVVVtjr-N55HT64YmgTH51tSTRkr_LW63vV24vZvmLTNTGmsPifUVRTEasRKa3VgTNDdTyxmakq-IaB9zlk6qoOOnRu7geP8nu-JSqd6h-SJWOI9mj3haFL-p2Cc2_SC7qhsGIId3Ex6Tn2jYu7YTcKycbT0H838UNJE-OtaIV7GxUC2S3kSPjeuOHNl___0G00?></g></svg>