<?plantuml 1.2026.2?><svg xmlns="http://www.w3.org/2000/svg" xmlns:xlink="http://www.w3.org/1999/xlink" contentStyleType="text/css" data-diagram-type="DESCRIPTION" height="473px" preserveAspectRatio="none" style="width:552px;height:473px;background:#FFFFFF;" version="1.1" viewBox="0 0 552 473" width="552px" zoomAndPan="magnify"><defs/><g><rect fill="none" height="317.276" rx="2.5" ry="2.5" style="stroke:#000000;stroke-width:1;" width="534.6998" x="12" y="150.6882"/><text fill="#000000" font-family="Arial" font-size="12" font-weight="bold" lengthAdjust="spacing" textLength="325.0463" x="116.8268" y="165.5163">[uc_02.2] Syst&#232;me EauS&#251;re - Vue administrateur (suite)</text><!--entity UC_MaintainSystem--><g class="entity" data-qualified-name=".uc_02.2. Syst.me EauS.re - Vue administrateur .suite..UC_MaintainSystem" data-source-line="20" id="ent0004"><ellipse cx="162.7138" cy="208.001" fill="#EAF7EF" rx="74.564" ry="17.3128" style="stroke:#1A6B3C;stroke-width:1.5;"/><text fill="#000000" font-family="Arial" font-size="12" lengthAdjust="spacing" textLength="117.5049" x="103.9614" y="212.6731">Maintenir le syst&#232;me</text></g><!--entity UC_DevelopFirmware--><g class="entity" data-qualified-name=".uc_02.2. Syst.me EauS.re - Vue administrateur .suite..UC_DevelopFirmware" data-source-line="21" id="ent0005"><ellipse cx="125.4318" cy="318.0596" fill="#EAF7EF" rx="98.4318" ry="25.1258" style="stroke:#1A6B3C;stroke-width:1.5;"/><text fill="#000000" font-family="Arial" font-size="12" lengthAdjust="spacing" textLength="140.989" x="54.9373" y="315.99">D&#233;velopper une nouvelle</text><text fill="#000000" font-family="Arial" font-size="12" lengthAdjust="spacing" textLength="113.6648" x="68.5994" y="332.3341">version du firmware</text></g><!--entity UC_AdminDeployUpdates--><g class="entity" data-qualified-name=".uc_02.2. Syst.me EauS.re - Vue administrateur .suite..UC_AdminDeployUpdates" data-source-line="22" id="ent0006"><ellipse cx="151.2707" cy="426.8848" fill="#EAF7EF" rx="77.5166" ry="26.0794" style="stroke:#1A6B3C;stroke-width:1.5;"/><text fill="#000000" font-family="Arial" font-size="12" lengthAdjust="spacing" textLength="105.5408" x="98.5003" y="423.4339">D&#233;ployer les mises</text><text fill="#000000" font-family="Arial" font-size="12" lengthAdjust="spacing" textLength="104.9048" x="98.8183" y="439.778">&#224; jour du firmware</text></g><!--entity UC_HandleIssues--><g class="entity" data-qualified-name=".uc_02.2. Syst.me EauS.re - Vue administrateur .suite..UC_HandleIssues" data-source-line="24" id="ent0007"><ellipse cx="403.5084" cy="317.8361" fill="#EAF7EF" rx="89.9548" ry="24.4551" style="stroke:#1A6B3C;stroke-width:1.5;"/><text fill="#000000" font-family="Arial" font-size="12" lengthAdjust="spacing" textLength="132.481" x="337.2679" y="316.7808">Traiter les r&#233;clamations</text><text fill="#000000" font-family="Arial" font-size="12" lengthAdjust="spacing" textLength="83.9646" x="361.5261" y="333.1249">et les incidents</text></g><!--entity UC_DocumentSupport--><g class="entity" data-qualified-name=".uc_02.2. Syst.me EauS.re - Vue administrateur .suite..UC_DocumentSupport" data-source-line="25" id="ent0008"><ellipse cx="435.5562" cy="424.9808" fill="#EAF7EF" rx="96.1436" ry="24.1754" style="stroke:#1A6B3C;stroke-width:1.5;"/><text fill="#000000" font-family="Arial" font-size="12" lengthAdjust="spacing" textLength="143.785" x="363.6637" y="424.3614">Fournir la documentation</text><text fill="#000000" font-family="Arial" font-size="12" lengthAdjust="spacing" textLength="78.0966" x="396.508" y="440.7055">et l'assistance</text></g><!--entity Admin--><g class="entity" data-qualified-name="Admin" data-source-line="16" id="ent0002"><ellipse cx="433.4933" cy="28.5" fill="#FFF8E7" rx="16" ry="16" style="stroke:#E69500;stroke-width:0.5;"/><path d="M433.4933,48.5 C437.4933,48.5 440.4933,48.5 444.4933,44.5 C452.4933,44.5 460.4933,52.5 460.4933,60.5 L460.4933,64.5 C460.4933,68.5 456.4933,72.5 452.4933,72.5 L414.4933,72.5 C410.4933,72.5 406.4933,68.5 406.4933,64.5 L406.4933,60.5 C406.4933,52.5 414.4933,44.5 422.4933,44.5 C426.4933,48.5 429.4933,48.5 433.4933,48.5" fill="#FFF8E7" style="stroke:#E69500;stroke-width:0.5;"/><text fill="#000000" font-family="Arial" font-size="12" lengthAdjust="spacing" textLength="85.1166" x="390.935" y="85.8281">Administrateur</text><text fill="#000000" font-family="Arial" font-size="12" lengthAdjust="spacing" textLength="74.8805" x="390.935" y="102.1722">(propri&#233;taire)</text></g><line style="stroke:#444444;stroke-width:1;" x1="412.2141" x2="412.2141" y1="105.6882" y2="135.6882"/><line style="stroke:#444444;stroke-width:1;" x1="412.2141" x2="162.7138" y1="135.6882" y2="135.6882"/><line style="stroke:#444444;stroke-width:1;" x1="162.7138" x2="162.7138" y1="135.6882" y2="190.6882"/><polygon fill="#444444" points="162.7138,190.6882,166.7138,181.6882,162.7138,185.6882,158.7138,181.6882,162.7138,190.6882" style="stroke:#444444;stroke-width:1;"/><line style="stroke:#444444;stroke-width:1;" x1="433.4933" x2="433.4933" y1="105.6882" y2="293.381"/><polygon fill="#444444" points="433.4933,293.381,437.4933,284.381,433.4933,288.381,429.4933,284.381,433.4933,293.381" style="stroke:#444444;stroke-width:1;"/><line style="stroke:#444444;stroke-width:1;" x1="454.7724" x2="454.7724" y1="105.6882" y2="135.6882"/><line style="stroke:#444444;stroke-width:1;" x1="454.7724" x2="503.4631" y1="135.6882" y2="135.6882"/><line style="stroke:#444444;stroke-width:1;" x1="503.4631" x2="503.4631" y1="135.6882" y2="390.8055"/><line style="stroke:#444444;stroke-width:1;" x1="503.4631" x2="467.6041" y1="390.8055" y2="390.8055"/><line style="stroke:#444444;stroke-width:1;" x1="467.6041" x2="467.6041" y1="390.8055" y2="400.8055"/><polygon fill="#444444" points="467.6041,400.8055,471.6041,391.8055,467.6041,395.8055,463.6041,391.8055,467.6041,400.8055" style="stroke:#444444;stroke-width:1;"/><line style="stroke:#444444;stroke-width:1;stroke-dasharray:7,7;" x1="125.4318" x2="125.4318" y1="225.3138" y2="292.9338"/><polygon fill="#444444" points="125.4318,225.3138,121.4318,234.3138,125.4318,230.3138,129.4318,234.3138,125.4318,225.3138" style="stroke:#444444;stroke-width:1;"/><text fill="#000000" font-family="Arial" font-size="10" lengthAdjust="spacing" textLength="42.69" x="78.7418" y="268.0038">&#171;extend&#187;</text><line style="stroke:#444444;stroke-width:1;stroke-dasharray:7,7;" x1="162.7138" x2="162.7138" y1="225.3138" y2="245.3138"/><line style="stroke:#444444;stroke-width:1;stroke-dasharray:7,7;" x1="162.7138" x2="292.5536" y1="245.3138" y2="245.3138"/><line style="stroke:#444444;stroke-width:1;stroke-dasharray:7,7;" x1="292.5536" x2="292.5536" y1="245.3138" y2="390.8055"/><line style="stroke:#444444;stroke-width:1;stroke-dasharray:7,7;" x1="292.5536" x2="177.1095" y1="390.8055" y2="390.8055"/><line style="stroke:#444444;stroke-width:1;stroke-dasharray:7,7;" x1="177.1095" x2="177.1095" y1="390.8055" y2="400.8055"/><polygon fill="#444444" points="162.7138,225.3138,158.7138,234.3138,162.7138,230.3138,166.7138,234.3138,162.7138,225.3138" style="stroke:#444444;stroke-width:1;"/><text fill="#000000" font-family="Arial" font-size="10" lengthAdjust="spacing" textLength="42.69" x="245.8636" y="321.9396">&#171;extend&#187;</text><line style="stroke:#444444;stroke-width:1;stroke-dasharray:7,7;" x1="125.4318" x2="125.4318" y1="343.1855" y2="400.8055"/><polygon fill="#444444" points="125.4318,343.1855,121.4318,352.1855,125.4318,348.1855,129.4318,352.1855,125.4318,343.1855" style="stroke:#444444;stroke-width:1;"/><text fill="#000000" font-family="Arial" font-size="10" lengthAdjust="spacing" textLength="44.29" x="77.1418" y="375.8755">&#171;include&#187;</text><?plantuml-src VPJ1JXin48RlVeffUe0U4W4jq5O8AK1MxQ6z17e1XARh8N7ZjLTZcv1MVPSUcsVeCI_MsIMKJR9qfJtOC__dcN-y-w9a71K85cS-HI0xKIhw4gA7hpv6Nu0sJ7aqtYaL9iQLo2YRT8l9niox-1aBWZuRjEtneVbEiBlN268UFG_Zp1BWb88lg15CWN8CTE9P4vzwwnbUxlOFJbwVjYHXFXcnJqul4mVzx72GFKSx7vjyuYW4sEtjDvBwp7ww9Bofd_NWKnyxwtrir91bsTl1uKPQiv_1mRlzdIOfZ57xgN4Zk4KRIAbQ0vs-Bemp8J96Idpbjals9Pl5FA9CvLK7C42TerGr97GZyRHpcVARdRtUtZKCPo4kVijy1fY6YpzCq8KlIMnVuS9sI2PMk1zAmQDdqFc4naLoXa6eOOcgpxmulQc3ybP7KD6KdItcTsHzMH93SWJE9rbRkd9tn44k4kW4juQBAV8_t1dLccovlSOhhPzHLKQ0mWGALsxn2xvvARq5LHjoHfNcejJIOLZfwfnHcds0yMAUMoomkju2fLZl6fSRJIw6H-87TDhInn2Ii1geJ2gexK7GFa-5Q6hK0saBGn2FqULFNIwpXgaiFKVrKwcwMkXsZrjCNOcj5B4IMQUgBLYEhZfRRN3XgDThyHpUmz4HtOjC7ny_hzgqTqEu3lw_KkosIPD8fV11A36dgXkGsn9DBh-LpLAwbsEZPKJNyjMu5dlMra_vR4RZs6qpxIy0?></g></svg>